<?xml version="1.0" standalone="no"?>
<!DOCTYPE svg PUBLIC "-//W3C//DTD SVG 20010904//EN"
 "http://www.w3.org/TR/2001/REC-SVG-20010904/DTD/svg10.dtd">
<svg version="1.0" xmlns="http://www.w3.org/2000/svg"
 width="300.000000pt" height="300.000000pt" viewBox="0 0 300.000000 300.000000"
 preserveAspectRatio="xMidYMid meet">
<metadata>
Created by potrace 1.10, written by Peter Selinger 2001-2011
</metadata>
<g transform="translate(0.000000,300.000000) scale(0.100000,-0.100000)"
fill="#000000" stroke="none">
<path d="M1370 2775 c-214 -48 -436 -165 -588 -309 -228 -217 -314 -443 -299
-786 20 -451 262 -960 594 -1245 288 -247 451 -277 680 -125 247 165 428 377
568 665 150 306 213 605 187 883 -14 151 -40 253 -89 342 -113 208 -287 366
-525 480 -201 95 -381 128 -528 95z m261 -104 c198 -51 365 -141 502 -271 190
-180 263 -333 282 -595 17 -235 -55 -547 -187 -810 -88 -175 -166 -284 -298
-415 -142 -143 -269 -230 -368 -254 -61 -15 -72 -15 -127 -1 -108 29 -251 130
-396 282 -166 174 -293 394 -378 655 -58 180 -75 284 -75 468 -1 235 29 349
131 503 138 207 406 386 659 441 95 20 168 19 255 -3z"/>
<path d="M1037 2447 c-26 -24 -47 -49 -47 -54 0 -6 29 -14 65 -18 73 -7 253
-47 300 -65 30 -11 30 -11 -60 -49 -242 -102 -476 -289 -577 -462 -33 -55 -38
-72 -38 -125 0 -101 6 -102 67 -16 62 86 129 167 183 220 89 88 338 255 510
342 l61 31 97 -52 c314 -169 497 -319 648 -532 69 -96 74 -96 74 7 0 54 -5 70
-38 125 -108 179 -339 363 -579 462 -45 19 -83 37 -83 40 0 9 208 58 303 71
48 6 87 16 87 21 0 16 -93 97 -111 97 -29 0 -258 -69 -330 -99 l-69 -29 -69
29 c-72 30 -301 99 -330 99 -9 0 -38 -20 -64 -43z"/>
<path d="M1462 2101 c-15 -21 -52 -90 -82 -153 l-54 -115 -68 -32 c-37 -17
-92 -52 -123 -76 -30 -25 -57 -45 -60 -45 -3 0 6 23 21 52 31 61 107 140 185
192 50 33 88 80 75 93 -2 2 -37 -12 -77 -32 -218 -109 -428 -299 -543 -489
-31 -52 -36 -68 -35 -120 1 -110 10 -110 67 -3 57 104 162 251 193 267 24 13
24 18 -7 -71 -14 -41 -34 -110 -44 -154 -20 -81 -27 -185 -12 -185 4 0 34 49
65 109 32 60 75 131 97 158 38 48 146 140 155 132 2 -3 -28 -67 -67 -144 -39
-77 -85 -178 -103 -225 -33 -83 -61 -207 -51 -217 3 -3 51 38 108 92 94 88
207 175 229 175 5 0 9 -8 9 -17 0 -33 -59 -626 -63 -629 -7 -8 -179 130 -226
182 -29 31 -54 54 -58 51 -8 -9 16 -127 34 -160 43 -83 321 -327 373 -327 44
0 45 9 44 484 0 248 -5 471 -10 496 -9 40 -12 45 -34 42 -40 -6 -140 -60 -207
-113 l-62 -48 16 37 c20 49 84 143 146 215 50 57 50 57 71 38 38 -34 84 -51
139 -51 46 0 63 6 105 34 l50 34 45 -53 c61 -70 134 -175 152 -219 l16 -37
-63 49 c-68 53 -168 108 -208 113 -21 4 -26 -1 -33 -36 -14 -67 -21 -902 -8
-947 16 -50 39 -50 122 3 69 44 269 239 292 286 15 30 41 152 34 160 -3 2 -40
-31 -83 -74 -81 -80 -189 -161 -200 -150 -6 6 -63 558 -64 615 0 12 4 22 9 22
22 0 135 -86 228 -174 55 -53 104 -96 107 -96 4 0 4 19 0 43 -12 87 -60 216
-141 376 -45 90 -81 167 -78 169 9 9 116 -81 155 -131 22 -27 66 -99 97 -158
31 -60 60 -109 65 -109 26 0 -3 179 -52 325 -16 49 -28 90 -26 92 8 8 88 -82
131 -147 24 -36 63 -101 86 -145 39 -72 44 -77 50 -55 13 47 9 130 -7 163 -77
152 -286 360 -469 469 -81 48 -166 90 -171 85 -13 -13 25 -60 75 -93 78 -52
154 -131 185 -192 15 -29 24 -52 21 -52 -3 0 -30 20 -60 45 -31 24 -86 59
-123 76 l-68 32 -53 113 c-53 112 -104 194 -122 194 -5 0 -22 -17 -37 -39z
m64 -175 l21 -54 -48 0 -48 0 15 37 c9 20 18 44 21 54 8 28 17 20 39 -37z m13
-161 c16 -8 34 -28 41 -45 28 -67 -44 -138 -111 -110 -44 19 -66 68 -49 110
12 29 50 59 78 60 7 0 26 -7 41 -15z"/>
</g>
</svg>
