<?xml version="1.0" encoding="UTF-8" standalone="no"?>
<!-- Created with Inkscape (http://www.inkscape.org/) -->

<svg
   version="1.1"
   id="svg1"
   width="728.73175"
   height="728.39282"
   viewBox="0 0 728.73175 728.39282"
   sodipodi:docname="Canticle_icon.svg"
   inkscape:version="1.3 (0e150ed6c4, 2023-07-21)"
   xmlns:inkscape="http://www.inkscape.org/namespaces/inkscape"
   xmlns:sodipodi="http://sodipodi.sourceforge.net/DTD/sodipodi-0.dtd"
   xmlns="http://www.w3.org/2000/svg"
   xmlns:svg="http://www.w3.org/2000/svg">
  <defs
     id="defs1" />
  <sodipodi:namedview
     id="namedview1"
     pagecolor="#ffffff"
     bordercolor="#000000"
     borderopacity="0.25"
     inkscape:showpageshadow="2"
     inkscape:pageopacity="0.0"
     inkscape:pagecheckerboard="0"
     inkscape:deskcolor="#d1d1d1"
     inkscape:zoom="1.1383348"
     inkscape:cx="796.33868"
     inkscape:cy="344.80191"
     inkscape:window-width="3440"
     inkscape:window-height="1369"
     inkscape:window-x="-8"
     inkscape:window-y="-8"
     inkscape:window-maximized="1"
     inkscape:current-layer="g1" />
  <g
     inkscape:groupmode="layer"
     inkscape:label="Image"
     id="g1"
     transform="translate(462.23848,-84.353657)">
    <path
       style="fill:#000000"
       d="m -107.82766,811.37373 c -0.014,-2.844 -4.18832,-106.36417 -4.29326,-106.46911 -0.0918,-0.0918 -40.36663,-8.11597 -44.08953,-8.78418 l -1.81198,-0.32522 -0.19088,-1.81074 c -0.10498,-0.99591 -1.056,-13.40275 -2.11336,-27.57075 -1.05737,-14.168 -2.35208,-31.41361 -2.87714,-38.32357 -0.52507,-6.90997 -0.95466,-12.63397 -0.95466,-12.72 0,-0.086 -22.536,-0.15643 -50.08001,-0.15643 h -50.08 v -44.88581 -44.88581 l -4.72,-2.91527 c -18.68224,-11.53894 -32.13355,-19.68622 -32.27265,-19.54712 -0.0903,0.0903 -1.3179,5.8299 -2.72808,12.75474 -1.41017,6.92484 -2.60611,12.63278 -2.65765,12.68432 -0.0799,0.0799 -11.90941,-6.36072 -46.42162,-25.27421 -33.34473,-18.27368 -94.6504,-51.85016 -106.88,-58.53705 l -2.24,-1.22479 2.08,-0.005 c 1.144,-0.003 5.464,-0.15113 9.6,-0.3299 4.136,-0.17876 27.5286,-1.11919 51.98356,-2.08985 24.45496,-0.97066 44.5093,-1.81056 44.56519,-1.86645 0.0559,-0.0559 2.13167,-10.3833 4.61284,-22.94978 2.48116,-12.56648 4.55157,-22.89289 4.6009,-22.94757 0.0617,-0.0684 79.26657,-6.11628 80.39751,-6.13897 0.044,-8.8e-4 0.08,-23.6176 0.08,-52.4816 v -52.47989 h 50.1684 50.16839 l 11.12494,-18.08855 c 6.11871,-9.94871 11.20094,-18.28663 11.29383,-18.52872 0.19657,-0.51224 0.91908,-0.33918 -14.2632,-3.41629 -6.0652,-1.22928 -11.07684,-2.28425 -11.13696,-2.34438 -0.0601,-0.0601 3.90655,-7.43369 8.81485,-16.38569 4.90829,-8.952 13.14237,-23.98037 18.29795,-33.39637 5.15557,-9.416 13.43667,-24.536 18.40244,-33.6 4.96577,-9.064 13.68178,-24.976 19.36891,-35.36 5.687125,-10.384 12.527305,-22.871517 15.200405,-27.750034 l 4.86017,-8.870029 0.21243,5.670029 c 0.84147,22.460384 4.08073,102.289994 4.1536,102.362864 0.0498,0.0498 9.22631,1.89771 20.39221,4.10644 22.06698,4.36508 25.37674,5.0301 25.50881,5.12547 0.10927,0.0789 0.45474,4.54788 3.42571,44.31526 1.32145,17.688 2.49242,33.06 2.60216,34.16 l 0.19952,2 h 47.16272 47.16272 v 47.12977 47.12977 l 18.41362,11.30995 c 10.12749,6.22047 18.489345,11.23422 18.581905,11.14167 0.0925,-0.0926 1.31658,-5.82859 2.72006,-12.74673 1.40348,-6.91815 2.60925,-12.63591 2.67948,-12.70615 0.0702,-0.0702 1.39607,0.59186 2.94632,1.47132 1.55024,0.87945 9.08262,5.01804 16.73862,9.19685 7.656,4.17882 16.728,9.14413 20.16,11.03403 3.432,1.8899 11.64,6.38941 18.24,9.99891 6.6,3.60949 26.256,14.37121 43.68,23.91492 17.424,9.54372 36.59664,20.03725 42.60586,23.31895 l 10.92586,5.96675 -1.64586,0.0884 c -0.90522,0.0486 -21.51786,0.87485 -45.80586,1.83612 -48.98762,1.93883 -60.44107,2.418 -60.56154,2.53365 -0.0449,0.0431 -2.11343,10.36159 -4.59685,22.93008 -2.48342,12.56848 -4.55229,22.89335 -4.59748,22.94414 -0.0871,0.0979 -9.72873,0.83978 -50.724135,3.90287 -13.992,1.04546 -26.412,1.99283 -27.6,2.10528 l -2.16,0.20445 v 50.20753 50.20752 h -47.28846 -47.28846 l -11.13904,18.12548 c -6.12647,9.96902 -11.20774,18.30454 -11.29172,18.52339 -0.17491,0.4558 -0.0297,0.49013 14.92478,3.52716 5.7184,1.16132 10.43907,2.15347 10.49037,2.20478 0.0513,0.0513 -2.73782,5.26061 -6.19807,11.57624 -8.42845,15.38356 -19.77891,36.11238 -26.52585,48.44295 -24.03889,43.93296 -31.48146,57.52221 -32.94847,60.16 -0.92988,1.672 -5.54391,10.096 -10.2534,18.72 -4.709485,8.624 -8.684095,15.896 -8.832465,16.16 -0.17241,0.3068 -0.27287,-0.15509 -0.2784,-1.28 z m 28.491595,-117.40626 c 3.69146,-14.67744 6.63782,-26.76017 6.54749,-26.85051 -0.1656,-0.16559 -12.86444,-2.91622 -22.49158,-4.87179 l -5.201665,-1.05662 0.0817,-29.14741 0.0817,-29.14741 6.239995,-0.21404 c 30.44112,-1.04415 61.40731,-12.06652 86.0800002,-30.64005 10.16281,-7.65053 21.0125998,-18.25673 28.6440198,-28.00092 19.99764,-25.534 31.65615,-57.19252 32.73998,-88.90499 0.26502,-7.7542 -0.0416,-17.46853 -0.73984,-23.44 -3.55981,-30.44404 -15.38664,-58.09751 -34.96712,-81.76 C 14.084555,345.5904 5.9678052,337.28955 1.2815752,333.16478 -25.161875,309.88951 -59.484035,296.13437 -94.078425,294.94776 l -6.239995,-0.21404 -0.16,-38.54282 -0.16,-38.54282 -3.68,-1.68539 c -2.024,-0.92697 -5.56742,-2.56901 -7.87426,-3.64898 l -4.19426,-1.96359 0.44278,-2.1282 c 0.71062,-3.41559 1.36318,-6.00136 2.67713,-10.6082 0.67768,-2.376 3.48099,-12.456 6.22957,-22.4 5.84326,-21.1401 8.748945,-31.63026 10.237605,-36.96 0.5899,-2.112 2.01955,-7.23249 3.17699,-11.37886 1.15744,-4.14638 2.10193,-7.67438 2.09887,-7.84 -0.003,-0.16563 -1.52783,2.65086 -3.38837,6.25886 -3.13057,6.07086 -8.402885,16.09615 -10.854625,20.64 -5.69627,10.55699 -10.13125,18.8129 -12.46278,23.2 -1.54333,2.904 -3.27351,6.144 -3.84483,7.2 -2.55266,4.71822 -12.79615,23.7829 -18.74108,34.88 -3.58289,6.688 -7.84183,14.608 -9.46431,17.6 -1.62247,2.992 -2.85286,5.47425 -2.73419,5.5161 0.11866,0.0419 5.44454,0.99864 11.83527,2.12618 6.39073,1.12755 11.68914,2.11971 11.77423,2.2048 0.0851,0.0851 -1.05607,2.22431 -2.53592,4.75382 -1.47985,2.52951 -3.48032,5.9671 -4.44549,7.6391 -4.98098,8.62871 -16.32913,28.05978 -20.69601,35.4371 l -3.07632,5.19709 -47.28,0.003 -47.28001,0.003 v 51.67391 51.6739 l -0.72,0.15303 c -0.73365,0.15593 -10.23914,0.89469 -37.36,2.9036 -8.36,0.61925 -18.08,1.34324 -21.6,1.60886 -3.52,0.26563 -9.28,0.6928 -12.8,0.94928 -9.38129,0.68356 -10.03096,0.77184 -10.21042,1.38745 -0.14804,0.50785 -1.31305,5.97207 -7.3739,34.58546 -1.50698,7.11451 -2.77667,12.97218 -2.82153,13.01704 -0.0825,0.0825 -26.18525,1.17315 -56.71415,2.36978 -9.152,0.35872 -17.84172,0.75696 -19.31048,0.88496 l -2.67048,0.23274 4.27048,2.29447 c 2.34876,1.26196 5.49448,2.93525 6.99048,3.71842 1.496,0.78317 4.304,2.28824 6.24,3.34459 1.936,1.05635 9.28,4.98658 16.32,8.73384 15.2752,8.13071 30.15814,16.07895 37.12,19.82396 1.232,0.66274 4.616,2.46486 7.52,4.00472 7.10785,3.76897 9.77843,5.19552 11.68,6.23913 0.88,0.48296 3.04,1.63732 4.8,2.56525 1.76,0.92793 3.344,1.79098 3.52,1.91789 0.176,0.12692 2.336,1.2775 4.8,2.55686 2.464,1.27936 5.37981,2.82322 6.47957,3.43079 1.48171,0.81858 2.03774,0.99401 2.14696,0.67738 0.0811,-0.23502 1.60061,-5.7553 3.37678,-12.2673 1.77617,-6.512 3.30136,-12.08449 3.38931,-12.38332 0.13435,-0.45642 0.63067,-0.25467 3.10365,1.26164 1.61905,0.99272 4.52773,2.77596 6.46373,3.96275 1.936,1.18679 5.176,3.15922 7.2,4.38318 5.49649,3.32387 13.22832,8.02753 19.52,11.87501 3.08,1.88347 7.688,4.673 10.24,6.19894 2.552,1.52594 5.036,3.02545 5.52,3.33224 l 0.88,0.55779 v 43.12589 43.12588 h 50.20753 50.20752 l 0.1968,2.16 c 0.5952,6.53267 1.49305,17.04604 1.94714,22.8 3.45983,43.84079 4.32016,53.8817 4.63327,54.07522 0.19375,0.11974 5.49475,1.40784 11.78001,2.86245 37.305235,8.6336 34.629,7.95499 34.62159,8.77897 -0.02,2.22689 1.644765,68.64351 1.809825,72.20336 l 0.20031,4.32 6.53335,-26.08 c 3.59334,-14.344 9.55362,-38.08881 13.24507,-52.76626 z m -28.822405,-91.13006 c -1.89884,-0.0849 -7.03117,-0.52762 -11.04,-0.9523 -0.88,-0.0932 -4.11853,-0.59366 -7.19674,-1.11209 -44.08483,-7.42462 -83.20576,-34.15315 -106.25922,-72.59929 -10.55155,-17.59679 -17.53351,-37.2274 -20.4295,-57.44 -1.16795,-8.15171 -1.45012,-12.3756 -1.45365,-21.76 -0.004,-11.0274 0.66432,-18.84979 2.3791,-27.84 0.16785,-0.88 0.36829,-1.96 0.44542,-2.4 1.41079,-8.04837 5.31035,-20.71166 9.16437,-29.76 8.22133,-19.3018 18.77514,-34.9268 33.39452,-49.44087 8.05677,-7.99874 15.28295,-13.83624 24.8357,-20.06294 6.00827,-3.91634 8.71386,-5.44537 15.96531,-9.02261 19.57823,-9.6582 40.07812,-14.81026 62.67469,-15.75147 l 5.2,-0.2166 -0.002,21.72724 -0.002,21.72725 -3.90112,4 c -12.95732,13.28573 -16.36329,16.7795 -21.69432,22.25347 -3.256,3.34331 -9.016,9.24914 -12.8,13.12407 -3.784,3.87493 -9.46597,9.70418 -12.62659,12.95389 -10.50005,10.79602 -17.861,18.33039 -23.18315,23.72934 -5.07884,5.15213 -5.23734,5.35234 -4.48753,5.6686 0.4275,0.18031 6.68127,2.65211 13.89727,5.49289 7.216,2.84078 14.128,5.58121 15.36,6.08985 1.232,0.50863 6.488,2.59586 11.68,4.6383 13.45293,5.29212 22.12748,8.71558 30.48,12.02908 l 7.28,2.88804 v 5.39818 5.39819 l -2.48,-0.91557 c -1.364,-0.50356 -6.08,-2.31353 -10.48,-4.02216 -4.4,-1.70863 -8.144,-3.14287 -8.32,-3.18721 -0.176,-0.0443 -0.68,-0.23051 -1.12,-0.41371 -0.7492,-0.31194 -19.9153,-7.70766 -35.04,-13.52107 -7.50394,-2.88426 -12.30818,-4.73852 -17.75556,-6.853 -2.02156,-0.7847 -3.72484,-1.37746 -3.78506,-1.31724 -0.0602,0.0602 0.96661,1.95822 2.28184,4.21778 1.31523,2.25955 4.43309,7.61351 6.92856,11.89768 2.49548,4.28417 5.33623,9.18017 6.31277,10.88 0.97655,1.69983 2.74812,4.7466 3.93683,6.7706 2.02882,3.45443 10.15936,17.46662 14.48297,24.96 1.06629,1.848 2.32874,4.008 2.80546,4.8 0.47672,0.792 1.95261,3.312 3.27975,5.6 4.61247,7.95195 17.30202,29.80133 21.27954,36.64 5.40687,9.29618 7.81582,13.44464 10.7775,18.56 1.37565,2.376 3.48988,6.00267 4.69829,8.05928 l 2.19711,3.73928 v 17.78072 17.78072 l -2.8,-0.0617 c -1.54,-0.0339 -3.736,-0.10351 -4.88,-0.15466 z m 7.76247,-88.38883 0.0775,-52.60515 35.039995,-13.49129 c 19.272,-7.42021 36.9486,-14.22711 39.28134,-15.12646 2.33273,-0.89934 4.18634,-1.53995 4.11911,-1.42356 -1.47767,2.55829 -77.31372,133.08214 -77.83924,133.97161 l -0.756255,1.28 z m -0.0758,-120.11485 0.007,-56.08 6.994555,7.2 c 3.84702,3.96 21.60609,22.176 39.46461,40.48 18.4206,18.8801 32.31806,33.36769 32.1188,33.48266 -0.44762,0.25827 -78.231865,30.99734 -78.437805,30.99734 -0.0844,0 -0.15045,-25.236 -0.1468,-56.08 z"
       id="path1" />
  </g>
</svg>
