<?xml version="1.0" standalone="no"?>
<!DOCTYPE svg PUBLIC "-//W3C//DTD SVG 20010904//EN"
 "http://www.w3.org/TR/2001/REC-SVG-20010904/DTD/svg10.dtd">
<svg version="1.0" xmlns="http://www.w3.org/2000/svg"
 width="900.000000pt" height="897.000000pt" viewBox="0 0 900.000000 897.000000"
 preserveAspectRatio="xMidYMid meet">
<metadata>
Created by potrace 1.10, written by Peter Selinger 2001-2011
</metadata>
<g transform="translate(0.000000,897.000000) scale(0.100000,-0.100000)"
fill="#000000" stroke="none">
<path d="M4283 8910 c-4 -5 -76 -10 -160 -12 -104 -2 -156 -7 -165 -15 -8 -9
-43 -13 -99 -13 -65 0 -92 -4 -103 -15 -10 -10 -35 -15 -79 -15 -45 0 -68 -5
-77 -15 -8 -10 -30 -15 -65 -15 -35 0 -57 -5 -65 -15 -8 -9 -30 -15 -60 -15
-30 0 -52 -6 -60 -15 -7 -9 -29 -15 -55 -15 -26 0 -48 -6 -55 -15 -7 -8 -29
-15 -50 -15 -21 0 -43 -7 -50 -15 -7 -8 -29 -15 -50 -15 -24 0 -40 -5 -44 -15
-3 -9 -18 -15 -39 -15 -19 0 -40 -7 -47 -15 -7 -8 -25 -15 -40 -15 -15 0 -33
-7 -40 -15 -7 -8 -25 -15 -40 -15 -15 0 -33 -7 -40 -15 -7 -8 -23 -15 -35 -15
-12 0 -28 -7 -35 -15 -7 -8 -23 -15 -37 -15 -13 0 -26 -7 -29 -15 -4 -8 -16
-15 -29 -15 -12 0 -28 -7 -35 -15 -7 -8 -23 -15 -35 -15 -13 0 -25 -7 -29 -15
-3 -8 -16 -15 -30 -15 -13 0 -26 -7 -30 -15 -3 -8 -16 -15 -30 -15 -13 0 -26
-7 -30 -15 -3 -8 -14 -15 -24 -15 -11 0 -25 -7 -32 -15 -7 -8 -21 -15 -32 -15
-10 0 -21 -7 -24 -15 -4 -8 -14 -15 -24 -15 -10 0 -23 -7 -30 -15 -7 -8 -18
-15 -25 -15 -7 0 -15 -7 -19 -15 -3 -8 -15 -15 -26 -15 -11 0 -23 -6 -26 -14
-3 -8 -16 -17 -30 -20 -13 -4 -24 -11 -24 -16 0 -6 -5 -10 -11 -10 -6 0 -28
-13 -49 -30 -21 -16 -43 -30 -48 -30 -6 0 -15 -6 -19 -12 -9 -15 -37 -33 -70
-48 -13 -5 -23 -14 -23 -20 0 -5 -4 -10 -9 -10 -6 0 -25 -13 -43 -30 -18 -16
-38 -30 -45 -30 -6 0 -16 -6 -20 -13 -4 -7 -39 -37 -77 -66 -37 -28 -74 -57
-81 -64 -7 -7 -56 -52 -110 -102 -127 -117 -190 -179 -300 -299 -135 -147
-145 -159 -145 -166 0 -7 -13 -23 -76 -92 -13 -14 -24 -29 -24 -32 0 -11 -74
-106 -82 -106 -4 0 -8 -9 -8 -19 0 -10 -7 -21 -15 -25 -8 -3 -15 -12 -15 -21
0 -8 -5 -15 -10 -15 -6 0 -15 -10 -20 -22 -15 -34 -33 -62 -47 -71 -7 -4 -13
-16 -13 -26 0 -11 -7 -21 -15 -25 -8 -3 -15 -12 -15 -20 0 -7 -7 -16 -15 -20
-8 -3 -15 -15 -15 -26 0 -11 -7 -23 -15 -26 -8 -4 -15 -14 -15 -24 0 -10 -7
-23 -15 -30 -8 -7 -15 -18 -15 -25 0 -7 -7 -18 -15 -25 -8 -7 -15 -20 -15 -30
0 -10 -7 -20 -15 -24 -8 -3 -15 -14 -15 -24 0 -11 -7 -25 -15 -32 -8 -7 -15
-23 -15 -35 0 -13 -7 -25 -15 -29 -8 -3 -15 -16 -15 -30 0 -13 -7 -26 -15 -30
-8 -3 -15 -16 -15 -30 0 -13 -7 -26 -15 -30 -8 -3 -15 -17 -15 -31 0 -14 -7
-28 -15 -31 -9 -4 -15 -19 -15 -39 0 -20 -6 -35 -15 -39 -8 -3 -15 -16 -15
-29 0 -14 -7 -30 -15 -37 -8 -7 -15 -25 -15 -40 0 -15 -7 -33 -15 -40 -8 -7
-15 -25 -15 -40 0 -15 -7 -33 -15 -40 -8 -7 -15 -27 -15 -45 0 -20 -6 -35 -15
-39 -10 -3 -15 -19 -15 -44 0 -23 -6 -45 -15 -52 -9 -8 -15 -29 -15 -55 0 -29
-5 -45 -15 -49 -11 -4 -15 -20 -15 -54 0 -32 -5 -54 -15 -62 -10 -8 -15 -31
-15 -65 0 -38 -4 -55 -15 -59 -11 -4 -15 -21 -15 -64 0 -41 -5 -64 -15 -72
-10 -9 -15 -32 -15 -75 0 -36 -6 -75 -15 -91 -10 -20 -15 -59 -15 -119 0 -60
-4 -95 -12 -103 -9 -9 -15 -69 -20 -185 -12 -306 -13 -397 -5 -397 4 0 7 -68
7 -150 0 -111 4 -160 15 -187 9 -22 15 -68 15 -122 0 -61 4 -93 15 -107 9 -12
14 -43 15 -87 0 -51 4 -69 15 -73 11 -5 15 -22 15 -64 0 -39 5 -64 15 -74 10
-9 15 -34 15 -71 0 -40 4 -57 15 -61 11 -4 15 -21 15 -55 0 -35 4 -51 15 -55
10 -4 15 -20 15 -49 0 -26 6 -47 15 -55 8 -7 15 -27 15 -45 0 -18 7 -38 15
-45 8 -7 15 -28 15 -47 0 -21 6 -36 15 -39 9 -4 15 -19 15 -39 0 -18 7 -38 15
-45 8 -7 15 -25 15 -41 0 -15 7 -34 15 -43 8 -8 15 -23 15 -34 0 -11 7 -25 15
-32 8 -7 15 -25 15 -40 0 -16 7 -30 15 -34 8 -3 15 -16 15 -30 0 -13 7 -26 15
-30 8 -3 15 -17 15 -31 0 -14 7 -28 15 -31 8 -4 15 -16 15 -29 0 -12 7 -28 15
-35 8 -7 15 -21 15 -32 0 -10 7 -21 15 -24 8 -4 15 -16 15 -29 0 -13 7 -25 15
-29 8 -3 15 -15 15 -26 0 -11 7 -23 15 -26 8 -4 15 -17 15 -30 0 -14 7 -27 15
-30 8 -4 15 -12 15 -19 0 -8 6 -20 13 -27 7 -7 16 -20 20 -28 4 -8 16 -28 27
-45 11 -16 23 -37 27 -45 3 -8 12 -19 20 -23 7 -4 13 -17 13 -28 0 -11 7 -22
15 -25 8 -4 15 -12 15 -19 0 -7 7 -15 15 -19 8 -3 15 -11 15 -18 0 -8 13 -28
29 -45 15 -17 31 -37 35 -45 17 -33 35 -61 43 -67 14 -10 73 -88 73 -96 0 -5
15 -23 33 -40 45 -46 77 -83 117 -135 42 -53 311 -325 358 -360 30 -23 63 -51
144 -126 14 -13 29 -24 33 -24 6 0 21 -11 53 -40 39 -34 98 -77 114 -83 10 -4
18 -11 18 -17 0 -5 6 -10 14 -10 8 0 16 -7 20 -15 3 -8 14 -15 25 -15 10 0 21
-7 25 -15 3 -8 12 -15 20 -15 7 0 16 -7 20 -15 3 -8 12 -15 21 -15 8 0 15 -4
15 -10 0 -5 11 -12 25 -16 14 -3 25 -10 25 -15 0 -5 10 -14 23 -19 33 -15 61
-33 70 -47 4 -7 17 -13 28 -13 11 0 22 -7 25 -15 4 -8 14 -15 24 -15 10 0 23
-7 30 -15 7 -8 18 -15 25 -15 7 0 18 -7 25 -15 7 -8 20 -15 30 -15 10 0 20 -7
24 -15 3 -8 16 -15 30 -15 13 0 26 -7 30 -15 3 -8 16 -15 30 -15 13 0 26 -7
30 -15 3 -8 16 -15 30 -15 13 0 26 -7 30 -15 3 -8 16 -15 30 -15 13 0 26 -7
30 -15 3 -9 18 -15 34 -15 16 0 35 -7 42 -15 7 -8 23 -15 35 -15 12 0 28 -7
35 -15 7 -8 23 -15 35 -15 12 0 28 -7 35 -15 7 -8 27 -15 45 -15 20 0 35 -6
39 -15 3 -9 19 -15 41 -15 22 0 38 -6 41 -15 4 -10 20 -15 44 -15 24 0 40 -5
44 -15 3 -10 19 -15 46 -15 24 0 48 -7 56 -15 9 -8 33 -15 53 -15 22 0 44 -6
51 -15 8 -9 30 -15 60 -15 30 0 52 -6 60 -15 8 -10 30 -15 65 -15 35 0 57 -5
65 -15 8 -10 31 -15 69 -15 33 -1 64 -7 75 -15 13 -10 44 -15 88 -15 43 0 80
-6 99 -15 22 -12 57 -16 133 -14 71 1 110 -3 127 -12 33 -19 662 -20 680 -2 9
9 49 13 124 13 78 0 118 4 139 15 17 9 56 15 101 15 52 0 78 4 89 15 10 10 35
15 74 15 41 0 63 5 72 15 8 10 30 15 65 15 35 0 57 5 65 15 8 9 29 15 56 15
24 0 49 6 58 15 8 8 32 15 55 15 22 0 46 7 55 15 8 8 32 15 56 15 27 0 43 5
46 15 4 9 19 15 39 15 19 0 40 7 49 15 8 8 28 15 44 15 17 0 32 6 36 15 3 9
19 15 41 15 22 0 38 6 41 15 4 8 18 15 34 15 15 0 33 7 40 15 7 8 23 15 35 15
12 0 28 7 35 15 7 8 23 15 37 15 13 0 26 7 29 15 4 8 18 15 34 15 16 0 30 7
34 15 3 8 17 15 31 15 14 0 28 7 31 15 4 8 16 15 29 15 13 0 25 7 29 15 3 8
14 15 24 15 11 0 25 7 32 15 7 8 21 15 32 15 10 0 21 7 24 15 4 8 14 15 24 15
11 0 22 5 25 11 4 5 17 15 28 20 12 5 36 18 52 29 17 11 39 24 50 30 36 18 60
35 68 48 4 6 15 12 23 12 9 0 28 12 43 26 15 14 37 31 48 37 46 25 139 92 167
119 16 15 38 30 48 34 10 3 18 10 18 15 0 5 6 9 13 9 7 0 24 13 37 30 14 16
31 29 38 30 6 0 12 4 12 8 0 5 21 24 48 43 26 18 85 70 130 115 46 46 100 98
120 117 67 62 242 249 242 258 0 5 8 17 18 27 72 77 102 111 102 117 0 10 62
88 77 98 7 4 13 14 13 22 0 8 14 29 30 47 17 18 30 37 30 43 0 6 13 25 29 42
15 17 31 37 35 45 3 7 15 27 26 43 11 17 23 37 27 45 3 8 19 31 35 51 15 20
28 44 28 53 0 9 7 19 15 22 8 4 15 14 15 24 0 10 7 23 15 30 8 7 15 18 15 25
0 7 7 18 15 25 8 7 15 20 15 30 0 10 7 20 15 24 8 3 15 16 15 30 0 13 7 26 15
30 8 3 15 16 15 30 0 13 7 26 15 30 8 3 15 16 15 30 0 13 7 26 15 30 8 3 15
16 15 29 0 14 7 30 15 37 8 7 15 23 15 35 0 12 7 28 15 35 8 7 15 25 15 40 0
16 7 30 15 34 9 3 15 18 15 34 0 16 7 35 15 42 8 7 15 25 15 40 0 16 7 30 15
34 10 3 15 19 15 45 0 25 5 41 15 45 10 3 15 19 15 45 0 25 5 41 15 45 10 4
15 19 15 49 0 27 6 49 15 57 9 7 15 29 15 52 0 22 7 46 15 54 9 10 15 34 15
63 0 31 5 53 15 61 10 8 15 30 15 65 0 35 5 57 15 65 11 9 15 32 15 80 0 48 4
71 15 80 11 9 15 34 15 94 0 49 5 87 12 94 13 13 31 322 31 542 0 231 -17 528
-31 542 -7 7 -12 42 -12 88 0 52 -5 82 -15 96 -9 12 -14 43 -15 87 0 51 -4 69
-15 73 -11 5 -15 22 -15 64 0 39 -5 62 -15 70 -10 8 -15 30 -15 61 0 29 -6 53
-15 63 -8 8 -15 32 -15 54 0 23 -6 45 -15 52 -9 7 -15 29 -15 51 0 20 -7 44
-15 53 -8 8 -15 30 -15 49 0 19 -7 40 -15 47 -8 7 -15 25 -15 40 0 15 -7 33
-15 40 -8 7 -15 25 -15 40 0 15 -7 33 -15 40 -8 7 -15 25 -15 40 0 15 -7 33
-15 40 -8 7 -15 23 -15 35 0 12 -7 28 -15 35 -8 7 -15 23 -15 37 0 13 -7 26
-15 29 -8 4 -15 16 -15 29 0 12 -7 28 -15 35 -8 7 -15 23 -15 35 0 12 -6 28
-14 34 -8 7 -17 23 -20 36 -4 14 -11 25 -16 25 -6 0 -10 9 -10 19 0 11 -7 26
-15 35 -8 8 -15 22 -15 31 0 8 -7 18 -15 21 -8 4 -15 16 -15 29 0 13 -7 25
-15 29 -8 3 -15 15 -15 26 0 11 -7 23 -15 26 -8 4 -15 13 -15 21 0 8 -13 32
-30 53 -16 21 -30 45 -30 54 0 9 -7 19 -15 22 -8 4 -15 13 -15 20 0 8 -7 17
-15 20 -8 4 -15 15 -15 25 0 11 -7 22 -15 25 -8 4 -15 12 -15 19 0 7 -7 15
-15 19 -8 3 -15 10 -15 16 0 7 -20 38 -45 70 -25 32 -45 63 -45 69 0 5 -6 14
-13 18 -7 4 -35 37 -62 73 -27 36 -56 72 -64 81 -9 9 -36 40 -61 69 -25 29
-57 66 -72 82 -16 16 -28 32 -28 35 0 10 -291 293 -301 293 -5 0 -24 15 -43
33 -62 59 -90 82 -156 132 -36 27 -69 55 -73 62 -4 7 -13 13 -18 13 -6 0 -37
20 -69 45 -32 25 -63 45 -70 45 -6 0 -13 7 -16 15 -4 8 -12 15 -19 15 -7 0
-15 7 -19 15 -3 8 -15 15 -26 15 -11 0 -23 7 -26 15 -4 8 -12 15 -19 15 -7 0
-15 7 -19 15 -3 8 -14 15 -25 15 -11 0 -24 6 -28 13 -4 7 -26 21 -48 32 -22
11 -44 26 -48 33 -4 6 -16 12 -26 12 -10 0 -24 7 -31 15 -7 8 -20 15 -30 15
-10 0 -20 7 -24 15 -3 8 -14 15 -24 15 -11 0 -25 7 -32 15 -7 8 -19 15 -27 15
-8 0 -21 7 -29 15 -9 8 -24 15 -33 15 -10 0 -24 7 -31 15 -7 8 -23 15 -35 15
-13 0 -25 7 -29 15 -3 8 -17 15 -31 15 -14 0 -28 7 -31 15 -4 8 -18 15 -34 15
-16 0 -30 7 -34 15 -3 9 -18 15 -35 15 -16 0 -31 6 -35 15 -3 9 -18 15 -40 15
-21 0 -36 6 -40 15 -3 9 -18 15 -40 15 -21 0 -36 6 -40 15 -3 9 -18 15 -39 15
-19 0 -40 7 -47 15 -7 8 -27 15 -45 15 -18 0 -38 7 -45 15 -8 9 -29 15 -55 15
-29 0 -45 5 -49 15 -4 10 -19 15 -49 15 -27 0 -49 6 -57 15 -8 10 -30 15 -62
15 -31 0 -55 6 -64 15 -10 10 -35 15 -68 15 -35 0 -58 5 -66 15 -9 10 -32 15
-75 15 -43 0 -66 5 -75 15 -9 11 -34 15 -99 15 -54 0 -92 5 -99 12 -20 20
-729 47 -749 28z m332 -62 c28 -2 96 -10 152 -18 97 -13 103 -13 123 5 21 19
22 19 38 -2 23 -28 70 -41 172 -46 80 -5 111 -10 228 -39 26 -6 65 -13 87 -14
44 -3 151 -29 205 -51 19 -7 61 -18 94 -23 32 -5 76 -19 98 -30 21 -11 46 -20
56 -20 9 0 30 -7 46 -15 15 -8 35 -15 42 -15 8 0 49 -14 92 -31 42 -17 95 -38
117 -46 22 -9 54 -22 72 -29 17 -8 36 -14 42 -14 16 0 110 -49 147 -76 17 -13
44 -26 59 -30 27 -7 97 -45 156 -85 14 -9 59 -34 100 -54 41 -21 94 -54 119
-75 25 -20 59 -45 75 -54 54 -30 112 -70 190 -131 42 -33 85 -65 96 -71 10 -6
31 -24 45 -39 15 -16 39 -36 55 -44 44 -25 379 -345 379 -362 0 -4 28 -36 63
-72 34 -35 81 -88 104 -118 24 -30 62 -79 86 -109 24 -30 54 -73 67 -95 21
-36 55 -82 94 -127 8 -9 21 -30 29 -45 8 -15 24 -37 36 -47 12 -11 21 -23 21
-28 0 -9 53 -106 92 -166 23 -37 218 -428 218 -437 0 -4 18 -44 39 -89 22 -44
51 -124 66 -176 15 -52 33 -111 40 -130 7 -19 16 -55 20 -80 4 -25 15 -65 25
-90 20 -52 46 -162 56 -235 4 -27 11 -59 17 -70 16 -31 38 -150 46 -252 4 -51
12 -98 19 -105 8 -8 12 -48 12 -117 0 -59 5 -126 11 -151 14 -56 14 -344 1
-470 -7 -65 -6 -101 1 -117 8 -17 7 -27 -1 -35 -7 -7 -12 -26 -12 -43 0 -17
-6 -39 -14 -50 -7 -11 -16 -60 -20 -110 -6 -82 -13 -129 -46 -295 -6 -30 -18
-65 -26 -77 -8 -12 -14 -43 -14 -68 0 -26 -9 -63 -20 -85 -11 -22 -20 -51 -20
-64 0 -14 -6 -43 -14 -63 -16 -44 -29 -94 -73 -271 -3 -12 -9 -25 -14 -28 -5
-3 -9 -11 -9 -19 0 -8 -11 -31 -25 -51 -14 -20 -25 -43 -25 -50 0 -13 -28 -78
-102 -234 -17 -36 -35 -72 -40 -80 -7 -13 -23 -46 -41 -90 -4 -8 -25 -44 -47
-79 -22 -34 -40 -67 -40 -71 0 -5 -16 -29 -35 -54 -19 -26 -35 -50 -35 -55 0
-5 -11 -22 -24 -38 -13 -15 -27 -39 -31 -51 -4 -13 -17 -36 -30 -50 -78 -90
-95 -110 -95 -115 0 -12 -60 -93 -89 -121 -17 -17 -31 -34 -31 -39 0 -17 -185
-224 -314 -352 -155 -152 -184 -178 -294 -265 -45 -35 -82 -68 -82 -72 0 -4
-18 -17 -40 -28 -21 -11 -47 -28 -57 -39 -21 -21 -171 -128 -211 -151 -15 -8
-31 -21 -35 -28 -4 -7 -25 -19 -45 -28 -20 -8 -54 -26 -74 -40 -51 -36 -73
-47 -260 -140 -236 -118 -315 -154 -334 -154 -9 0 -33 -10 -53 -22 -56 -35
-190 -81 -276 -95 -16 -2 -39 -8 -50 -14 -25 -11 -92 -27 -165 -40 -30 -5 -59
-15 -65 -22 -5 -7 -19 -14 -30 -15 -72 -7 -112 -16 -127 -29 -10 -9 -26 -13
-40 -10 -12 4 -27 2 -32 -2 -14 -11 -283 -48 -400 -56 -66 -4 -104 -12 -142
-30 -49 -23 -64 -25 -221 -27 -250 -2 -282 0 -258 15 18 11 14 13 -35 19 -30
3 -68 9 -85 13 -16 3 -77 10 -134 15 -57 6 -137 14 -179 19 -42 5 -80 7 -84 5
-5 -3 -23 3 -41 14 -32 20 -133 43 -194 46 -17 0 -35 4 -39 9 -4 4 -20 7 -34
7 -15 0 -33 7 -41 16 -7 9 -21 13 -33 10 -11 -3 -26 0 -34 6 -7 7 -33 13 -56
14 -24 1 -56 8 -72 16 -29 15 -68 27 -174 52 -30 7 -80 25 -110 40 -30 15
-102 47 -160 71 -58 23 -132 56 -164 74 -32 17 -65 31 -72 31 -7 0 -19 6 -26
13 -7 7 -63 38 -123 68 -61 31 -132 72 -158 92 -27 20 -54 37 -61 37 -7 0 -21
9 -31 20 -10 11 -23 20 -29 20 -12 0 -84 50 -174 121 -30 24 -71 54 -92 68
-192 130 -498 416 -680 636 -23 28 -50 57 -60 66 -9 8 -25 30 -35 49 -9 18
-30 44 -46 57 -16 14 -29 30 -29 35 0 6 -20 35 -45 64 -25 28 -45 58 -45 64 0
7 -14 28 -30 47 -17 18 -30 39 -30 45 0 5 -17 33 -38 61 -48 66 -77 111 -103
167 -12 25 -30 56 -39 70 -53 78 -70 109 -79 146 -6 23 -18 47 -26 54 -17 14
-85 154 -85 175 0 8 -5 17 -10 20 -6 3 -10 17 -10 29 0 13 -7 29 -15 36 -8 7
-15 24 -15 39 0 14 -14 53 -30 86 -17 32 -28 65 -25 73 2 7 -4 31 -15 52 -11
22 -20 47 -20 56 0 10 -7 25 -16 35 -15 17 -42 120 -48 184 -1 17 -9 41 -16
55 -8 14 -17 45 -21 70 -4 25 -11 70 -16 100 -5 30 -14 64 -20 75 -6 11 -14
43 -18 70 -4 28 -11 67 -17 89 -5 21 -11 69 -14 105 -10 153 -22 233 -36 247
-12 12 -13 25 -6 62 5 26 8 72 7 102 -1 61 -2 219 -1 265 2 191 55 640 84 714
5 14 12 42 14 61 6 61 26 144 41 173 8 15 16 42 18 60 5 44 20 98 33 124 7 12
12 32 12 45 0 13 8 34 17 47 16 24 53 137 56 176 1 11 10 31 19 45 9 14 22 45
28 70 7 25 16 50 20 55 5 6 16 33 25 60 17 52 35 90 85 185 16 30 30 60 30 66
0 6 7 17 16 24 8 8 21 27 29 44 40 87 102 188 281 460 10 16 24 36 29 46 6 9
33 43 61 76 27 32 58 73 69 89 10 17 29 38 42 48 13 10 23 25 23 32 0 7 10 22
23 32 13 10 31 30 41 45 10 15 26 30 36 33 11 3 22 14 25 24 3 10 46 58 95
107 49 49 95 95 102 102 7 7 19 18 27 25 7 6 41 37 75 68 33 30 71 62 82 70
12 7 57 42 100 77 153 122 234 182 245 182 4 0 39 25 79 56 39 30 82 59 93 65
12 5 49 27 82 48 33 22 124 72 203 112 79 40 145 76 148 80 7 11 114 59 133
59 9 0 36 11 60 25 23 14 56 25 71 25 16 0 31 4 34 9 3 5 22 12 41 15 20 4 39
15 45 27 8 14 17 18 31 14 16 -5 46 1 104 21 6 2 17 8 25 13 38 23 143 53 195
56 17 1 44 8 60 17 17 8 57 20 90 27 33 6 94 19 135 27 41 8 95 20 120 26 25
6 74 12 110 14 36 2 101 11 145 21 69 14 140 20 284 22 18 0 38 5 45 10 21 18
126 21 281 9z"/>
<path d="M4230 8769 c-52 -4 -117 -13 -145 -18 -27 -6 -132 -20 -232 -31 -111
-12 -195 -26 -213 -35 -17 -9 -39 -13 -49 -10 -10 3 -31 0 -47 -6 -38 -15
-250 -70 -294 -77 -19 -2 -44 -11 -55 -18 -11 -7 -60 -26 -110 -43 -205 -69
-283 -98 -345 -128 -36 -16 -76 -35 -90 -42 -14 -6 -32 -15 -40 -20 -8 -5 -40
-22 -70 -37 -30 -14 -66 -35 -79 -45 -13 -11 -29 -19 -36 -19 -8 0 -37 -16
-66 -35 -30 -19 -59 -35 -65 -35 -6 0 -18 -7 -25 -16 -8 -9 -32 -25 -54 -34
-22 -10 -53 -30 -70 -44 -16 -15 -43 -34 -60 -43 -16 -9 -43 -26 -58 -39 -16
-13 -33 -24 -39 -24 -6 0 -27 -15 -48 -32 -36 -31 -58 -50 -212 -171 -36 -28
-76 -64 -88 -79 -12 -16 -26 -28 -32 -28 -5 0 -22 -12 -37 -27 -14 -16 -44
-44 -66 -64 -22 -20 -45 -44 -51 -55 -7 -10 -19 -18 -28 -16 -9 2 -16 -3 -16
-10 0 -7 -39 -53 -86 -103 -48 -49 -97 -106 -109 -125 -13 -19 -41 -54 -62
-77 -22 -22 -52 -61 -68 -85 -16 -23 -38 -52 -48 -63 -43 -48 -67 -78 -67 -86
0 -4 -43 -71 -95 -148 -52 -77 -103 -157 -114 -178 -10 -21 -37 -71 -58 -110
-144 -272 -182 -360 -265 -608 -23 -66 -46 -133 -53 -150 -7 -16 -17 -48 -23
-70 -6 -22 -18 -62 -27 -90 -17 -51 -38 -145 -55 -245 -6 -30 -17 -77 -25
-105 -8 -27 -19 -106 -25 -175 -5 -69 -15 -159 -20 -200 -22 -161 -29 -436
-16 -605 4 -38 8 -106 11 -150 3 -44 10 -107 15 -140 6 -33 10 -79 10 -102 0
-24 4 -62 10 -85 22 -101 42 -196 49 -243 5 -27 16 -75 25 -105 10 -30 20 -68
22 -85 7 -40 42 -153 59 -190 13 -27 42 -113 65 -190 28 -93 54 -165 76 -206
13 -26 24 -54 24 -63 0 -16 39 -97 51 -106 7 -5 62 -109 135 -253 23 -45 51
-91 63 -101 11 -11 21 -26 22 -35 0 -9 16 -36 34 -61 19 -25 47 -65 61 -90 15
-25 44 -65 64 -90 20 -25 44 -58 53 -75 9 -16 27 -40 40 -52 13 -12 36 -41 52
-65 16 -24 39 -54 52 -68 13 -14 42 -47 65 -74 164 -191 681 -656 729 -656 6
0 28 -14 48 -31 82 -70 128 -103 166 -120 22 -10 47 -23 55 -27 8 -5 24 -14
35 -20 11 -6 71 -42 134 -79 179 -106 570 -279 710 -313 18 -5 38 -13 44 -19
6 -6 23 -11 37 -11 14 0 51 -9 82 -20 31 -11 75 -22 99 -26 24 -3 71 -14 104
-24 33 -10 98 -24 145 -30 47 -7 101 -18 120 -25 19 -7 85 -18 145 -24 61 -6
130 -13 155 -16 191 -20 496 -23 735 -7 99 7 218 15 265 18 47 3 103 10 125
17 22 6 47 12 55 12 8 1 22 4 30 7 15 6 76 19 205 44 141 27 180 36 207 50 15
8 36 14 47 14 31 0 278 85 349 119 34 17 66 31 71 31 23 0 452 210 482 236 8
8 18 14 22 14 3 0 35 18 69 40 35 22 68 40 75 40 6 0 33 18 58 40 25 22 51 40
56 40 5 0 34 20 64 44 30 25 80 63 112 84 32 22 67 48 78 59 11 10 32 26 48
36 30 19 57 42 150 129 88 82 82 76 157 153 38 39 93 95 124 125 78 76 99 98
140 150 144 179 255 328 313 420 71 115 195 323 204 344 5 12 13 28 17 36 12
21 102 208 118 245 7 17 23 55 37 85 51 115 68 161 62 169 -3 5 2 17 11 26 9
8 27 53 39 98 13 45 29 98 35 117 7 19 13 46 15 60 2 14 13 56 24 95 12 38 21
81 21 94 0 25 13 72 35 126 19 45 42 210 59 411 1 22 5 45 8 50 9 14 20 267
18 409 -4 291 -7 353 -18 420 -7 39 -18 131 -26 205 -9 94 -20 151 -35 185
-13 29 -20 59 -16 73 3 12 0 32 -6 44 -6 12 -19 58 -29 102 -24 107 -76 303
-93 352 -8 22 -25 68 -37 104 -13 36 -33 85 -46 110 -12 25 -32 72 -45 105
-12 33 -28 67 -35 76 -8 8 -14 20 -14 26 0 17 -130 269 -173 336 -20 31 -37
60 -37 64 0 3 -15 29 -32 57 -18 27 -37 58 -43 68 -38 66 -192 276 -259 354
-20 23 -48 59 -62 80 -14 21 -41 55 -61 74 -19 19 -71 75 -116 124 -78 85
-161 166 -235 231 -19 17 -47 42 -63 58 -15 15 -34 27 -43 27 -9 0 -16 4 -16
9 0 5 -35 37 -77 70 -43 33 -98 77 -123 96 -51 41 -95 71 -160 111 -25 14 -56
37 -70 49 -14 13 -46 34 -72 47 -26 12 -103 56 -172 96 -69 39 -131 72 -139
72 -7 0 -27 10 -44 23 -26 19 -140 75 -198 98 -11 4 -60 23 -110 42 -49 20
-113 42 -140 50 -28 8 -80 26 -115 40 -36 13 -92 32 -125 41 -33 9 -73 21 -90
27 -16 6 -55 17 -85 23 -30 7 -68 18 -83 24 -16 7 -44 12 -62 12 -19 0 -54 6
-77 14 -24 8 -72 17 -108 20 -36 3 -117 12 -180 21 -63 9 -151 20 -195 26
-107 13 -487 19 -605 8z m640 -90 c24 -5 87 -14 140 -19 124 -11 247 -29 288
-42 19 -5 57 -14 85 -18 29 -5 72 -14 97 -20 173 -45 260 -70 298 -86 18 -8
43 -14 55 -14 12 0 31 -7 41 -15 11 -8 29 -15 40 -15 12 0 30 -7 40 -15 11 -8
29 -15 40 -15 12 0 30 -7 40 -15 11 -8 28 -15 37 -15 10 0 30 -7 46 -15 15 -8
60 -28 98 -46 121 -54 350 -172 410 -210 17 -10 39 -23 50 -29 11 -6 34 -19
50 -30 17 -11 37 -23 45 -27 8 -3 17 -9 20 -13 3 -3 32 -23 65 -45 57 -37 294
-212 305 -225 3 -3 27 -24 54 -45 141 -114 407 -380 521 -521 21 -27 42 -51
45 -54 12 -10 220 -289 220 -296 0 -3 14 -23 30 -44 17 -21 30 -40 30 -43 0
-3 12 -25 28 -49 47 -75 52 -82 63 -108 5 -13 13 -27 17 -30 12 -9 168 -317
209 -410 8 -19 21 -48 29 -63 8 -16 14 -35 14 -42 0 -7 7 -27 15 -44 8 -17 22
-45 30 -62 8 -17 15 -38 15 -47 0 -9 7 -30 15 -46 8 -15 15 -36 15 -45 0 -9 7
-29 15 -45 8 -15 15 -38 15 -50 0 -11 6 -33 14 -47 7 -14 16 -47 20 -72 4 -26
11 -49 17 -52 5 -4 9 -21 9 -40 0 -19 5 -46 12 -62 6 -15 14 -50 18 -78 4 -27
12 -70 18 -95 21 -89 42 -218 42 -261 0 -24 7 -84 15 -134 18 -109 21 -654 4
-755 -6 -36 -14 -105 -19 -155 -10 -114 -28 -230 -42 -274 -6 -19 -14 -60 -19
-90 -4 -31 -13 -76 -19 -101 -24 -90 -42 -156 -56 -200 -8 -25 -14 -52 -14
-61 0 -9 -7 -30 -15 -45 -8 -16 -15 -38 -15 -49 0 -11 -7 -29 -15 -39 -8 -11
-15 -28 -15 -38 0 -17 -20 -68 -46 -120 -8 -14 -14 -33 -14 -41 0 -9 -6 -28
-14 -44 -8 -15 -21 -44 -30 -63 -27 -63 -177 -364 -197 -395 -10 -16 -23 -39
-29 -50 -11 -21 -18 -34 -62 -103 -16 -24 -28 -47 -28 -52 0 -4 -3 -10 -7 -12
-9 -4 -53 -65 -53 -73 0 -3 -5 -11 -10 -18 -6 -7 -54 -70 -107 -142 -53 -71
-102 -135 -107 -142 -6 -6 -31 -36 -56 -65 -194 -229 -465 -483 -688 -647 -26
-19 -48 -38 -50 -43 -2 -4 -8 -8 -14 -8 -5 0 -36 -20 -68 -45 -32 -25 -61 -45
-63 -45 -5 0 -99 -59 -123 -77 -5 -4 -26 -16 -45 -27 -65 -35 -104 -57 -134
-76 -16 -10 -91 -48 -165 -85 -160 -78 -216 -104 -310 -140 -25 -9 -58 -22
-75 -29 -40 -17 -92 -35 -135 -48 -19 -5 -39 -14 -45 -19 -5 -5 -20 -9 -33 -9
-13 0 -38 -6 -55 -14 -35 -14 -101 -33 -162 -45 -63 -13 -136 -31 -186 -47
-26 -8 -63 -14 -84 -14 -20 0 -64 -7 -98 -14 -98 -23 -209 -36 -392 -46 -390
-22 -763 -5 -996 46 -37 8 -83 14 -104 14 -20 0 -46 5 -57 11 -11 6 -44 15
-72 20 -84 14 -246 56 -293 75 -17 8 -42 14 -55 14 -13 0 -28 4 -33 9 -6 5
-26 14 -45 19 -37 11 -91 29 -125 43 -11 4 -45 18 -75 30 -30 11 -71 28 -90
37 -19 8 -48 21 -65 28 -76 32 -386 190 -440 225 -16 10 -36 22 -43 25 -17 8
-318 210 -335 224 -43 37 -61 50 -66 50 -3 0 -22 15 -42 33 -20 17 -58 50 -85
72 -91 75 -129 110 -284 266 -168 170 -186 189 -245 264 -22 28 -43 52 -46 55
-31 28 -309 423 -309 440 0 4 -14 26 -30 48 -16 23 -30 46 -30 51 0 5 -6 16
-13 23 -6 7 -29 48 -50 90 -21 43 -43 80 -48 83 -5 4 -9 15 -9 25 0 10 -6 25
-13 32 -11 13 -29 48 -61 123 -38 88 -49 112 -62 138 -8 16 -14 36 -14 46 0 9
-7 26 -15 37 -8 10 -15 26 -15 34 0 8 -7 28 -15 44 -8 15 -15 34 -15 42 0 7
-6 28 -14 46 -7 18 -21 60 -31 93 -71 246 -92 325 -105 411 -5 34 -14 74 -20
88 -5 15 -10 42 -10 59 0 18 -6 70 -14 117 -39 226 -59 677 -36 828 5 37 14
121 19 187 12 145 28 261 47 336 8 30 14 69 14 86 0 17 7 47 15 66 8 20 15 51
15 69 1 18 7 44 15 58 8 14 14 36 15 49 0 24 23 102 47 158 7 17 13 42 13 55
0 12 7 32 15 42 8 11 15 28 15 38 0 9 6 32 14 50 8 18 22 53 31 78 10 25 24
61 33 80 8 19 21 49 28 65 39 97 135 297 146 305 4 3 11 17 17 30 6 14 27 52
46 85 19 33 40 69 45 80 46 87 332 491 375 530 6 6 40 44 75 85 98 115 254
272 365 368 55 47 105 91 110 97 6 6 39 33 75 60 36 27 72 55 80 62 8 8 53 41
100 73 47 32 93 66 103 74 9 9 20 16 24 16 4 0 36 20 72 44 77 50 146 91 181
106 13 6 27 14 30 18 5 7 294 150 360 179 71 30 96 41 140 58 25 9 60 23 78
31 18 8 41 14 50 14 10 0 26 6 37 14 11 7 39 17 62 21 24 4 45 11 49 16 3 5
15 9 27 9 12 0 35 7 51 15 15 8 39 15 52 15 13 0 38 6 56 14 33 14 100 30 195
45 28 5 66 14 85 19 40 13 159 30 288 43 52 5 111 13 130 18 50 13 705 13 760
0z"/>
<path d="M4163 8419 c-34 -4 -71 -12 -82 -18 -11 -6 -37 -11 -58 -11 -21 0
-56 -5 -78 -11 -22 -6 -69 -15 -104 -20 -36 -5 -69 -13 -75 -19 -5 -5 -26 -10
-45 -10 -20 -1 -54 -7 -76 -15 -22 -8 -50 -15 -63 -15 -13 0 -33 -5 -45 -12
-12 -6 -38 -15 -57 -19 -33 -7 -53 -13 -145 -46 -134 -49 -169 -90 -101 -118
19 -8 48 -15 63 -15 15 0 37 -7 47 -15 11 -8 28 -15 37 -15 10 0 32 -8 51 -17
18 -9 45 -22 60 -30 14 -7 31 -13 37 -13 9 0 202 -112 226 -132 6 -5 51 -38
100 -75 50 -36 154 -130 233 -208 115 -115 142 -147 142 -170 l0 -28 -82 7
c-80 6 -113 3 -263 -28 -140 -29 -169 -36 -179 -46 -6 -6 -17 -10 -26 -10 -27
0 -153 -69 -188 -103 -67 -64 -93 -156 -73 -257 6 -30 16 -82 22 -115 5 -33
14 -64 20 -69 5 -6 9 -21 9 -34 0 -13 6 -38 14 -55 7 -18 30 -72 51 -122 21
-49 41 -94 45 -100 22 -29 190 -353 190 -366 0 -17 43 -69 52 -63 4 3 8 42 8
86 0 76 6 108 48 248 49 160 180 334 347 458 39 28 75 56 82 62 7 5 14 10 17
10 3 0 25 14 49 30 25 17 48 30 52 30 4 0 40 20 80 44 39 24 82 47 93 50 12 4
22 11 22 16 0 5 8 11 18 14 10 4 34 20 53 37 19 17 45 41 59 53 42 35 43 43
12 94 -16 27 -33 59 -37 72 -4 13 -25 52 -46 87 -22 35 -39 67 -39 72 0 10
-123 195 -144 216 -9 9 -16 20 -16 25 0 10 -155 170 -164 170 -24 0 21 -102
66 -152 26 -30 85 -116 173 -252 53 -83 105 -182 105 -201 0 -9 7 -30 16 -48
l17 -31 -63 -56 c-34 -30 -118 -86 -185 -125 -68 -38 -159 -94 -202 -123 -89
-61 -244 -199 -276 -247 -75 -111 -97 -150 -132 -240 -51 -132 -57 -137 -94
-99 -48 49 -201 362 -201 412 0 10 -7 42 -15 72 -38 133 -44 182 -30 238 16
61 59 128 95 147 83 45 209 87 312 105 27 5 53 12 59 16 6 3 52 8 102 11 103
5 143 20 177 66 36 47 30 84 -25 155 -62 83 -260 267 -345 321 -14 9 -45 31
-69 49 -24 18 -65 44 -90 58 -74 40 -103 56 -166 95 -33 20 -77 42 -97 49 -21
6 -38 16 -38 21 0 26 138 80 245 95 28 3 61 12 75 19 14 7 45 16 70 20 25 3
79 13 120 21 85 17 170 11 170 -12 0 -8 7 -14 15 -14 8 0 15 8 15 18 0 22 29
40 110 67 69 24 96 49 70 65 -17 11 -49 11 -137 -1z"/>
<path d="M4605 8400 c-11 -5 -37 -9 -58 -9 -21 -1 -54 -8 -74 -16 -19 -8 -42
-15 -50 -15 -13 0 -47 -14 -143 -57 -19 -9 -42 -20 -50 -25 -8 -4 -27 -13 -41
-19 -15 -6 -29 -18 -32 -28 -4 -17 0 -17 69 -5 40 7 87 20 106 30 22 12 65 19
133 21 55 3 117 11 138 19 20 8 50 14 66 14 33 0 81 34 81 57 0 9 -8 22 -17
29 -20 15 -97 17 -128 4z"/>
<path d="M5010 8319 c-30 -4 -89 -12 -130 -17 -41 -6 -88 -18 -105 -26 -16 -9
-40 -16 -51 -16 -12 0 -27 -7 -34 -14 -6 -8 -30 -16 -53 -18 -22 -2 -42 -8
-44 -15 -6 -18 64 -27 116 -15 79 19 209 26 226 12 10 -9 19 -9 28 -2 12 10
25 12 167 30 41 5 96 15 123 22 39 10 47 16 47 35 0 13 -7 26 -16 29 -21 8
-205 5 -274 -5z"/>
<path d="M5235 8179 c-89 -9 -168 -25 -230 -49 -41 -15 90 -31 217 -27 l123 5
60 -63 c74 -77 203 -143 331 -170 17 -3 42 -17 54 -31 21 -22 22 -24 5 -24
-27 0 -148 31 -161 41 -6 5 -44 13 -85 19 -41 6 -93 15 -117 21 -23 5 -55 9
-72 9 -16 0 -31 4 -34 8 -9 16 -114 33 -248 42 -332 22 -550 27 -633 15 -55
-8 -105 -30 -105 -45 0 -6 103 -10 273 -11 149 0 306 -4 347 -10 41 -5 118
-13 170 -18 53 -4 105 -13 115 -18 11 -6 50 -14 87 -18 37 -3 70 -11 73 -16 4
-5 21 -9 39 -9 19 0 58 -7 87 -16 30 -9 74 -22 99 -29 123 -35 196 -58 205
-65 6 -4 26 -11 45 -15 19 -4 41 -11 50 -15 55 -27 109 -50 118 -50 5 0 32
-11 59 -24 26 -13 98 -48 158 -77 113 -55 316 -173 418 -244 70 -48 228 -165
243 -179 6 -6 35 -31 65 -56 148 -124 272 -249 448 -455 41 -49 156 -202 214
-287 142 -208 280 -479 399 -783 21 -55 45 -115 53 -133 8 -18 15 -40 15 -50
0 -9 7 -26 15 -36 8 -11 15 -30 15 -42 0 -12 7 -38 15 -57 8 -20 15 -52 15
-72 0 -23 5 -35 14 -35 31 0 29 58 -8 190 -8 30 -20 75 -27 100 -6 25 -17 61
-24 80 -7 19 -21 62 -30 95 -10 33 -24 74 -31 90 -6 17 -19 48 -27 70 -41 110
-57 149 -105 255 -16 36 -33 72 -36 80 -3 8 -10 23 -16 33 -17 29 -28 50 -55
102 -45 88 -86 159 -111 192 -13 17 -24 34 -24 37 0 3 -21 36 -47 73 -25 38
-60 88 -77 113 -37 54 -126 173 -135 180 -3 3 -50 55 -102 115 -98 111 -220
233 -318 315 -30 25 -61 52 -70 61 -9 8 -45 37 -81 64 -36 27 -70 54 -76 60
-6 5 -22 17 -34 25 -12 8 -42 30 -66 48 -23 17 -45 32 -48 32 -2 0 -44 27 -93
60 -48 33 -93 60 -100 60 -7 0 -13 4 -13 9 0 5 -12 14 -27 20 -16 6 -50 25
-78 41 -27 17 -75 42 -105 56 -30 15 -63 30 -72 35 -16 8 -67 28 -128 49 -14
5 -50 18 -80 30 -30 12 -68 25 -85 30 -37 10 -89 29 -132 47 -17 7 -38 13 -46
13 -8 0 -28 7 -43 15 -16 8 -36 15 -45 15 -9 0 -30 7 -45 15 -16 8 -39 15 -51
15 -12 0 -25 5 -28 10 -3 6 -19 10 -36 10 -22 0 -29 5 -29 20 0 34 49 50 155
50 102 0 116 8 75 45 -17 15 -41 18 -162 20 -79 2 -188 -1 -243 -6z m765 -399
c14 -4 56 -24 93 -44 38 -20 75 -36 84 -36 20 0 83 -39 83 -51 0 -20 -56 -7
-110 26 -32 19 -65 35 -75 35 -9 0 -38 11 -64 24 -26 12 -71 29 -101 36 -64
14 -82 22 -87 37 -7 19 50 19 102 0 28 -10 61 -22 75 -27z m375 -191 c5 -6 3
-9 -5 -9 -27 0 -60 12 -60 21 0 11 50 1 65 -12z"/>
<path d="M3389 7843 c-103 -66 -102 -66 -219 -123 -58 -28 -118 -57 -133 -65
-16 -8 -36 -15 -46 -15 -9 0 -26 -7 -37 -15 -10 -8 -27 -15 -37 -15 -11 0 -31
-6 -45 -14 -36 -18 -125 -46 -148 -46 -11 0 -28 -7 -38 -15 -11 -8 -26 -15
-33 -15 -22 0 -99 -62 -118 -95 -18 -31 -45 -110 -45 -132 0 -17 45 -16 78 1
29 14 51 22 177 63 44 14 87 29 95 34 8 5 28 15 43 23 l29 13 -31 13 c-21 8
-48 10 -79 6 -109 -17 -122 -18 -122 -9 0 6 19 15 43 22 45 14 73 26 97 40 8
5 56 22 105 37 50 14 94 30 99 35 6 5 18 9 27 9 9 0 22 6 28 14 7 8 27 17 45
20 19 4 45 15 59 26 14 11 45 29 70 39 25 11 81 40 125 65 117 68 151 64 292
-32 82 -56 150 -121 150 -143 0 -23 -34 -43 -116 -70 -38 -12 -87 -30 -109
-40 -22 -10 -69 -31 -105 -47 -81 -37 -162 -109 -198 -174 -15 -28 -36 -67
-46 -87 -17 -30 -20 -56 -19 -156 0 -130 23 -235 69 -327 8 -14 14 -32 14 -40
0 -11 119 -253 256 -518 13 -25 24 -52 24 -60 0 -8 7 -24 15 -34 8 -11 15 -28
15 -38 0 -11 8 -33 17 -51 18 -35 34 -102 36 -157 2 -45 -20 -50 -61 -15 -73
61 -236 124 -359 139 -73 9 -98 25 -137 85 -21 33 -76 104 -123 158 -118 137
-131 156 -257 410 -20 40 -36 78 -36 84 0 7 -8 31 -18 53 -37 81 -75 218 -78
279 l-3 62 79 77 c44 43 96 86 117 97 56 29 164 151 133 151 -5 0 -10 -4 -10
-10 0 -5 -9 -10 -20 -10 -16 0 -164 -82 -180 -99 -3 -4 -25 -20 -50 -36 -24
-17 -70 -56 -102 -88 -51 -51 -58 -63 -58 -98 0 -22 6 -54 13 -72 8 -18 17
-49 21 -71 4 -21 11 -46 16 -55 5 -9 18 -43 29 -76 23 -69 48 -133 86 -220 29
-65 56 -121 64 -135 5 -8 27 -44 47 -80 21 -36 42 -69 46 -75 47 -62 109 -138
140 -170 47 -50 96 -125 124 -190 l22 -50 114 -1 c84 -1 121 -5 143 -17 17 -9
35 -17 41 -17 6 0 31 -11 55 -25 24 -13 53 -29 65 -34 11 -5 40 -31 65 -58 38
-43 57 -81 85 -172 7 -21 41 14 64 67 22 50 27 154 9 212 -5 19 -14 55 -18 80
-5 25 -14 61 -21 80 -28 78 -22 67 -254 526 -104 207 -116 233 -116 252 0 8
-6 28 -14 45 -47 109 -61 291 -29 377 9 25 19 47 23 50 3 3 17 23 31 45 15 23
41 52 59 65 17 14 37 30 43 35 7 6 35 20 62 33 28 13 58 27 67 33 10 5 23 9
29 9 6 0 25 6 42 14 76 32 251 76 307 76 21 0 41 4 45 9 3 5 -16 27 -42 48
-26 21 -61 52 -78 68 -114 110 -197 173 -289 220 -124 64 -129 64 -217 8z"/>
<path d="M4520 7839 c0 -6 22 -36 48 -67 52 -60 142 -196 182 -272 22 -43 80
-159 121 -243 32 -63 26 -85 -39 -147 -32 -30 -77 -71 -101 -90 -41 -33 -196
-130 -208 -130 -10 0 -177 -103 -231 -142 -28 -21 -74 -60 -100 -86 -46 -45
-152 -175 -152 -187 0 -3 -10 -22 -23 -43 -31 -49 -59 -129 -61 -172 -1 -29 3
-36 20 -38 16 -2 33 10 60 45 22 26 46 54 54 63 40 40 146 114 212 146 40 19
81 40 90 45 10 5 26 9 35 9 10 0 30 7 45 14 16 8 49 18 75 22 27 3 53 10 59
15 35 28 406 45 509 22 121 -26 195 -95 195 -183 0 -62 25 -137 52 -161 28
-24 160 -89 180 -89 7 0 18 -4 23 -9 16 -16 158 -38 485 -75 63 -7 122 -16
130 -19 8 -4 47 -11 85 -16 102 -14 187 -31 210 -41 11 -5 43 -14 70 -19 91
-19 160 -36 171 -43 6 -4 31 -10 55 -14 24 -4 49 -10 54 -14 6 -4 26 -11 45
-15 42 -8 202 -61 247 -81 17 -8 36 -14 41 -14 6 0 23 -6 39 -14 15 -8 73 -36
128 -63 55 -26 104 -51 110 -55 24 -18 117 -78 121 -78 6 0 207 -151 214 -160
3 -4 12 -11 21 -16 22 -12 126 -103 221 -191 42 -40 82 -73 88 -73 17 0 5 41
-36 126 -19 38 -34 73 -34 78 0 4 -9 28 -21 54 -22 51 -44 102 -61 142 -26 63
-40 94 -104 225 -37 77 -84 167 -104 200 -20 33 -39 67 -43 75 -4 8 -15 27
-25 42 -9 14 -30 48 -46 75 -16 26 -32 50 -35 53 -3 3 -21 28 -40 55 -65 94
-104 150 -111 155 -3 3 -27 33 -53 67 -26 34 -53 68 -60 75 -6 7 -32 36 -56
63 -89 100 -189 202 -266 270 -44 39 -88 79 -100 91 -19 20 -207 163 -254 194
-13 8 -29 20 -35 25 -6 6 -40 28 -76 50 -36 21 -66 43 -68 47 -2 4 -8 8 -14 8
-6 0 -43 19 -82 43 -91 54 -298 156 -386 189 -14 6 -38 16 -53 24 -16 8 -34
14 -40 14 -7 0 -24 6 -39 14 -15 8 -41 17 -59 21 -19 4 -40 11 -49 15 -8 4
-40 15 -70 23 -30 9 -77 22 -105 30 -27 8 -66 18 -85 22 -19 3 -44 10 -55 14
-23 10 -116 27 -218 41 -38 5 -83 13 -100 19 -18 5 -81 12 -142 16 -60 3 -128
10 -150 15 -66 15 -305 22 -305 9z m520 -95 c58 -7 125 -17 150 -23 25 -5 101
-20 170 -32 69 -12 136 -27 150 -34 14 -7 66 -22 115 -34 50 -12 100 -29 112
-37 12 -8 29 -14 36 -14 33 0 327 -118 356 -144 9 -7 30 -18 46 -23 17 -6 52
-24 79 -42 28 -17 57 -31 67 -31 9 0 23 -7 30 -16 8 -9 32 -25 54 -36 22 -10
65 -35 96 -56 30 -20 84 -56 120 -79 74 -47 96 -65 147 -112 21 -18 68 -59
107 -90 73 -58 359 -339 366 -358 2 -6 16 -26 31 -45 15 -18 52 -62 81 -98 57
-69 162 -216 187 -262 8 -15 35 -58 61 -95 68 -102 109 -173 109 -188 0 -8 4
-16 8 -19 11 -7 98 -184 146 -297 33 -78 45 -129 31 -129 -20 0 -67 35 -75 54
-5 13 -20 26 -35 30 -14 4 -45 21 -69 39 -177 131 -243 170 -461 272 -103 48
-295 111 -460 151 -38 9 -75 20 -80 25 -9 7 -200 51 -280 65 -16 3 -88 16
-160 30 -71 13 -168 28 -215 34 -175 20 -471 68 -485 79 -5 4 -30 16 -54 25
-88 34 -128 81 -136 156 -2 20 -12 46 -37 98 -26 53 -85 105 -158 140 -55 27
-57 27 -281 27 -230 -1 -292 -9 -384 -50 -41 -19 -138 -45 -165 -45 -12 0 -34
-6 -48 -14 -62 -32 -132 -59 -138 -53 -10 10 24 56 80 110 57 55 149 117 334
226 68 40 131 79 140 87 10 8 49 41 89 74 40 33 84 79 97 103 29 48 44 121 27
131 -6 4 -16 26 -22 49 -14 54 -43 117 -74 164 -14 20 -28 48 -32 62 -3 14
-17 36 -30 48 -12 12 -23 31 -23 42 0 11 -14 36 -31 55 -38 44 -37 86 1 97 30
9 164 2 310 -17z"/>
<path d="M2523 7761 c-53 -33 -185 -171 -264 -276 -87 -117 -139 -192 -139
-205 0 -4 -3 -10 -7 -12 -5 -1 -26 -30 -48 -63 -22 -33 -74 -104 -115 -159
-80 -106 -156 -217 -186 -272 -15 -27 -16 -36 -6 -46 14 -14 16 -12 122 116
54 66 133 140 200 187 19 13 46 34 60 47 13 12 28 22 32 22 4 0 26 12 50 28
69 44 81 50 125 71 l41 19 4 79 c4 78 19 151 44 210 8 17 14 33 14 36 0 15 73
126 105 161 55 59 34 97 -32 57z m-209 -403 c5 -25 0 -40 -20 -70 -15 -21 -37
-41 -50 -44 -13 -3 -28 -12 -35 -20 -6 -8 -15 -14 -19 -14 -13 0 2 49 21 66
10 9 19 21 19 26 0 12 61 88 70 88 4 0 10 -14 14 -32z"/>
<path d="M1510 6978 c-7 -35 -16 -83 -20 -108 -11 -56 -28 -123 -46 -173 -8
-20 -14 -47 -14 -60 0 -12 -7 -31 -15 -41 -8 -11 -15 -30 -15 -42 0 -12 -7
-35 -15 -50 -8 -16 -15 -38 -15 -49 0 -11 -7 -29 -15 -39 -8 -11 -15 -28 -15
-37 0 -10 -6 -30 -14 -46 -8 -15 -22 -48 -31 -73 -9 -25 -23 -58 -31 -73 -8
-16 -14 -35 -14 -42 0 -7 -6 -26 -14 -42 -8 -15 -22 -48 -31 -73 -10 -25 -23
-58 -30 -75 -7 -16 -21 -50 -30 -75 -26 -67 -57 -141 -103 -240 -59 -128 -91
-196 -121 -260 -17 -36 -31 -71 -31 -77 0 -6 -6 -24 -14 -40 -30 -60 -61 -142
-75 -198 -4 -17 -13 -40 -19 -52 -7 -12 -12 -36 -12 -53 0 -17 -5 -41 -12 -53
-10 -20 -19 -78 -35 -236 -6 -61 7 -187 28 -281 6 -25 14 -70 19 -100 5 -30
16 -80 23 -110 15 -60 26 -64 76 -32 37 25 276 23 311 -1 14 -9 32 -17 41 -17
10 0 30 -6 46 -14 40 -21 266 -124 326 -150 21 -9 44 -16 53 -16 8 0 27 -6 42
-14 44 -22 104 -29 126 -13 18 13 16 15 -26 36 -58 27 -134 103 -158 155 -53
114 -59 159 -33 239 15 49 74 150 94 163 14 9 10 66 -7 99 -24 44 -24 176 0
240 51 137 108 216 184 251 23 10 42 25 42 31 0 7 -15 39 -32 70 -31 56 -33
62 -33 168 1 84 5 122 20 160 21 57 82 155 96 155 21 0 7 33 -28 68 -57 56
-108 117 -134 159 -13 21 -25 40 -28 43 -10 9 -31 44 -41 70 -6 14 -15 33 -20
42 -6 10 -10 31 -10 46 0 16 -3 31 -6 35 -10 10 -49 -13 -68 -41 -10 -15 -43
-45 -73 -67 -91 -65 -195 -175 -246 -258 -61 -101 -62 -113 -2 -78 17 10 55
47 86 83 68 82 217 208 245 208 23 0 43 -19 68 -65 9 -16 34 -55 57 -85 64
-87 99 -144 99 -160 0 -8 -14 -42 -32 -75 -22 -44 -34 -86 -44 -155 -7 -52
-11 -97 -8 -101 2 -4 6 -38 8 -76 2 -37 7 -80 11 -94 5 -20 -2 -34 -40 -74
-121 -130 -177 -324 -145 -495 9 -48 7 -60 -16 -119 -14 -36 -33 -73 -40 -82
-34 -38 -38 -173 -8 -301 5 -22 3 -28 -11 -28 -20 0 -154 47 -170 59 -5 5 -23
13 -40 19 -16 6 -61 22 -99 36 -38 14 -79 26 -90 26 -12 0 -27 5 -33 11 -8 8
-17 8 -30 1 -11 -6 -25 -7 -33 -2 -8 5 -17 7 -20 5 -3 -2 -37 -5 -75 -6 l-70
-3 -18 50 c-18 50 -33 117 -43 189 -2 22 -8 65 -12 95 -8 60 7 235 27 315 11
44 28 98 88 275 21 64 56 149 112 272 17 37 39 88 50 115 37 94 71 152 94 159
27 8 37 22 37 51 0 12 6 37 14 55 8 18 26 69 40 113 50 157 82 233 151 350 19
33 38 67 42 75 4 8 26 43 50 77 24 35 43 66 43 69 0 3 7 13 16 22 18 17 17 51
-5 382 -11 158 -8 140 -25 140 -9 0 -18 -22 -26 -62z"/>
<path d="M2393 6893 c-3 -10 -40 -63 -81 -118 -155 -206 -349 -406 -494 -508
-54 -38 -71 -67 -49 -81 5 -4 28 -40 50 -81 22 -41 45 -81 51 -87 6 -7 27 -36
48 -64 75 -104 127 -164 141 -164 8 0 28 11 45 23 54 41 131 59 232 54 94 -4
151 -16 200 -42 16 -8 32 -15 36 -15 8 0 104 -57 123 -73 6 -4 34 -25 64 -47
52 -38 55 -39 117 -33 47 4 69 2 86 -9 35 -23 88 -33 89 -16 3 33 -4 75 -16
98 -7 14 -24 50 -39 80 -28 60 -52 96 -166 246 -114 150 -210 298 -257 399 -8
17 -18 38 -24 47 -5 10 -9 23 -9 29 0 6 -6 25 -14 42 -29 66 -72 219 -81 290
-5 38 -10 47 -26 47 -11 0 -22 -8 -26 -17z m26 -245 c16 -35 37 -83 46 -108
28 -73 37 -94 46 -110 5 -8 21 -37 35 -65 42 -81 95 -168 119 -195 11 -14 27
-37 34 -52 8 -14 31 -48 53 -74 22 -27 46 -60 54 -76 8 -15 20 -31 26 -35 34
-22 88 -128 88 -174 0 -16 -8 -19 -45 -19 -45 0 -100 25 -200 90 -88 57 -261
110 -359 110 -44 0 -168 -23 -211 -40 -35 -13 -30 -15 -78 32 -50 51 -107 128
-107 145 0 7 -4 13 -9 13 -13 0 -31 57 -31 96 0 27 8 39 42 66 64 51 305 296
376 381 35 43 70 77 78 77 8 0 27 -28 43 -62z"/>
<path d="M4770 6500 c-80 -10 -174 -26 -210 -35 -36 -9 -84 -20 -107 -24 -45
-8 -73 -26 -73 -46 0 -13 177 -105 203 -105 9 0 18 -4 22 -10 3 -5 20 -14 38
-19 38 -12 180 -63 220 -79 16 -7 36 -12 46 -12 9 0 21 -4 27 -8 5 -5 41 -19
79 -31 39 -12 84 -29 102 -37 17 -8 39 -14 50 -14 10 0 27 -7 37 -15 11 -8 30
-15 42 -15 13 0 25 -4 28 -9 3 -5 18 -12 33 -15 16 -4 42 -13 58 -20 17 -8 50
-22 75 -31 107 -41 378 -168 495 -233 59 -32 202 -117 212 -127 6 -5 33 -25
60 -44 73 -52 187 -212 212 -301 24 -81 25 -119 5 -158 -21 -41 -49 -68 -79
-78 -23 -7 -55 -33 -55 -45 0 -4 20 -11 45 -14 33 -6 55 -18 91 -51 25 -24 49
-44 54 -44 4 0 10 38 12 84 12 178 99 326 263 444 23 17 103 52 118 52 9 0 18
4 21 9 9 14 86 22 208 22 187 -1 270 -21 442 -105 62 -31 116 -56 120 -56 29
0 -65 105 -107 119 -7 2 -28 17 -48 32 -20 16 -40 29 -43 29 -3 0 -36 18 -72
41 -37 22 -77 45 -88 50 -12 5 -28 13 -36 18 -13 9 -83 41 -190 88 -19 9 -43
20 -52 24 -10 5 -46 18 -80 30 -35 11 -77 27 -95 35 -17 8 -38 14 -47 14 -9 0
-24 4 -34 9 -9 6 -51 19 -92 31 -41 11 -91 25 -110 31 -39 11 -106 25 -190 40
-30 6 -71 15 -90 20 -19 5 -78 14 -130 20 -473 52 -625 82 -765 151 -65 32
-165 128 -165 159 0 10 -4 21 -10 24 -5 3 -10 37 -10 75 0 67 -1 70 -35 95
-33 26 -80 37 -215 49 -25 3 -110 -4 -190 -14z m265 -66 c82 -15 105 -43 119
-143 4 -24 16 -56 26 -71 46 -64 7 -78 -98 -35 -34 14 -70 25 -80 25 -11 0
-34 8 -53 17 -18 9 -61 25 -94 34 -82 24 -224 84 -243 103 -14 14 -14 18 -2
30 41 38 307 63 425 40z m990 -530 c220 -21 263 -27 392 -58 61 -14 121 -26
133 -26 11 0 31 -6 43 -14 12 -8 38 -17 57 -21 19 -3 44 -10 55 -15 30 -12
145 -50 180 -59 32 -9 86 -32 205 -88 87 -42 83 -47 -51 -59 -120 -10 -207
-40 -354 -122 -13 -7 -57 -49 -99 -93 -64 -68 -79 -79 -91 -69 -8 7 -15 18
-15 25 0 36 -131 237 -177 272 -20 15 -55 44 -77 64 -23 20 -63 49 -91 64 -27
16 -65 39 -83 53 -19 14 -83 49 -143 78 -60 29 -109 57 -109 62 0 27 11 27
225 6z"/>
<path d="M4250 6283 c1 -9 30 -91 48 -136 7 -16 12 -40 12 -55 0 -15 5 -43 11
-62 14 -45 38 -219 46 -339 5 -88 -3 -185 -29 -316 -5 -27 -14 -77 -20 -110
-5 -33 -16 -82 -24 -109 -8 -26 -14 -62 -14 -80 0 -17 -7 -49 -15 -71 -8 -22
-14 -57 -15 -78 0 -21 -5 -47 -10 -57 -6 -10 -14 -45 -19 -77 -10 -57 -22
-116 -43 -203 -41 -174 -43 -594 -3 -730 7 -25 16 -63 20 -85 4 -22 10 -44 15
-50 4 -5 10 -23 13 -40 8 -44 35 -117 76 -206 11 -25 21 -51 21 -57 0 -6 3
-12 8 -14 4 -1 18 -25 31 -53 13 -27 34 -64 47 -82 13 -17 24 -36 24 -40 0
-15 154 -187 196 -218 21 -16 44 -35 49 -41 23 -28 214 -134 240 -134 7 0 26
-6 42 -14 44 -22 112 -38 314 -72 44 -8 62 11 25 26 -14 5 -26 14 -26 19 0 5
-17 12 -37 16 -61 11 -177 72 -271 143 -48 36 -89 68 -92 71 -3 4 -21 19 -40
35 -109 88 -167 141 -245 227 -8 9 -15 23 -15 32 0 8 -3 23 -6 32 -6 14 -10
12 -25 -12 -21 -32 -24 -64 -8 -80 6 -6 9 -17 7 -25 -3 -7 -16 6 -33 32 -15
25 -38 56 -50 70 -12 14 -39 61 -60 105 -20 44 -41 87 -46 95 -24 39 -68 186
-90 295 -6 33 -16 75 -21 93 -14 48 -24 288 -16 400 3 53 14 140 23 192 9 52
21 124 26 160 5 36 16 81 25 100 8 20 17 58 20 85 5 51 6 61 24 155 6 30 15
84 20 120 5 36 14 81 19 100 39 138 62 331 57 471 -5 122 1 192 15 183 5 -3 9
-13 9 -23 0 -10 7 -24 15 -31 8 -7 15 -25 15 -41 0 -26 6 -47 31 -104 5 -11 9
-29 8 -40 -1 -26 37 -188 49 -212 6 -10 16 -45 23 -78 6 -33 31 -100 55 -148
24 -49 44 -101 44 -116 0 -19 -19 -54 -60 -106 -33 -43 -60 -81 -60 -86 0 -4
-13 -28 -30 -52 -16 -25 -30 -51 -30 -59 0 -7 -6 -22 -14 -33 -34 -49 -62
-245 -46 -325 20 -101 24 -181 9 -191 -7 -4 -10 -11 -6 -16 5 -4 12 -1 17 7
19 30 59 -23 135 -175 8 -16 24 -43 35 -60 11 -16 23 -38 26 -48 4 -10 12 -16
18 -14 19 7 8 73 -24 154 -30 74 -33 123 -10 123 6 0 10 5 10 10 0 6 -16 10
-35 10 -29 0 -38 6 -59 39 -14 21 -28 56 -32 77 -3 22 -10 44 -14 49 -14 18
-20 149 -9 190 5 22 14 57 20 78 5 21 13 45 18 55 5 9 19 37 31 62 48 98 186
270 216 270 19 0 18 49 -1 56 -8 4 -15 11 -15 16 0 6 -12 27 -27 47 -59 77
-99 179 -123 316 -5 27 -14 61 -19 75 -5 14 -12 45 -16 70 -3 25 -10 59 -14
75 -50 172 -54 183 -109 293 -54 109 -104 183 -166 250 -27 29 -67 44 -66 25z"/>
<path d="M4500 6192 c0 -8 58 -102 70 -112 8 -7 62 -118 78 -160 35 -93 51
-151 58 -210 4 -36 12 -68 18 -72 6 -5 43 -6 81 -3 233 17 414 11 465 -15 9
-4 36 -10 60 -14 51 -7 139 -32 187 -53 17 -7 35 -13 41 -13 15 0 121 -59 193
-107 87 -57 250 -228 271 -283 4 -10 11 -21 17 -25 6 -3 11 -14 11 -24 0 -53
65 -56 163 -7 83 42 111 74 102 116 -4 16 -11 32 -16 35 -5 4 -9 13 -9 21 0
32 -136 191 -231 269 -29 25 -154 107 -191 126 -99 52 -275 136 -343 164 -22
9 -49 20 -60 25 -28 13 -191 75 -250 95 -27 10 -64 24 -82 31 -17 8 -40 14
-50 14 -10 0 -23 4 -29 8 -5 5 -40 19 -79 31 -38 12 -84 29 -102 37 -17 8 -40
14 -51 14 -12 0 -23 4 -27 9 -3 5 -20 13 -38 17 -34 7 -66 20 -162 66 -60 28
-95 35 -95 20z m385 -202 c67 -32 234 -90 260 -90 9 0 50 -16 92 -35 42 -19
81 -35 88 -35 7 0 42 -13 78 -30 37 -16 71 -30 76 -30 6 0 33 -13 61 -30 28
-16 63 -33 78 -36 15 -4 54 -22 88 -40 33 -19 69 -34 79 -34 15 0 39 -16 95
-63 8 -6 30 -19 50 -29 37 -17 185 -146 210 -184 8 -12 27 -37 42 -56 14 -18
29 -45 33 -60 6 -22 1 -30 -31 -52 -21 -14 -46 -26 -54 -26 -18 0 -47 30 -110
113 -65 87 -189 199 -278 251 -43 25 -83 46 -89 46 -6 0 -16 6 -22 14 -6 7
-38 19 -71 26 -33 7 -60 16 -60 21 0 11 -67 29 -110 29 -19 0 -49 9 -67 19
-41 26 -188 42 -359 40 -115 -1 -138 1 -166 18 -26 15 -34 27 -40 63 -4 25
-16 65 -26 90 -31 72 -44 119 -36 131 11 19 123 1 189 -31z"/>
<path d="M4208 5917 c-10 -23 -18 -49 -18 -58 0 -8 -7 -24 -15 -35 -8 -10 -15
-27 -15 -36 0 -9 -6 -29 -14 -45 -13 -26 -29 -62 -62 -138 -23 -54 -86 -179
-120 -240 -18 -33 -45 -82 -59 -110 -14 -27 -41 -77 -60 -110 -19 -33 -39 -69
-45 -80 -6 -11 -19 -33 -30 -50 -11 -16 -23 -37 -27 -45 -4 -8 -26 -43 -50
-77 -24 -35 -43 -65 -43 -68 0 -3 -12 -24 -27 -48 -39 -60 -48 -76 -78 -132
-14 -27 -40 -72 -56 -100 -16 -27 -37 -63 -45 -80 -8 -16 -31 -57 -49 -90 -19
-33 -37 -67 -41 -75 -3 -8 -9 -22 -14 -30 -25 -42 -139 -280 -185 -385 -8 -16
-28 -61 -45 -100 -18 -38 -38 -83 -45 -100 -7 -16 -18 -41 -24 -55 -22 -53
-42 -117 -51 -165 -5 -27 -13 -68 -19 -90 -14 -52 -14 -358 0 -410 6 -22 14
-60 19 -85 21 -121 125 -320 167 -320 18 0 16 9 -21 150 -46 168 -26 379 44
490 6 8 14 24 19 35 13 28 70 79 110 99 53 25 106 21 158 -14 24 -16 48 -30
53 -30 5 0 11 62 13 138 2 75 9 160 16 187 18 73 41 156 53 190 6 17 13 44 16
60 2 17 11 39 18 50 8 11 14 31 14 45 0 14 7 34 15 44 8 11 15 28 15 37 0 10
6 30 14 46 8 15 22 48 32 73 9 25 36 86 60 135 23 50 63 135 89 190 26 55 52
107 56 115 5 8 12 22 15 30 3 8 19 42 34 75 15 33 36 80 45 105 10 25 24 59
31 77 8 17 14 36 14 41 0 6 6 23 14 39 23 45 46 100 46 111 0 6 6 23 14 39 25
48 46 100 46 113 0 7 7 33 15 59 39 125 46 191 43 430 -2 145 -7 236 -13 238
-5 1 -18 -16 -27 -40z m-44 -445 c-3 -31 -11 -79 -19 -107 -7 -27 -20 -80 -28
-117 -9 -37 -32 -100 -50 -140 -19 -41 -42 -95 -51 -121 -9 -26 -27 -69 -40
-95 -13 -26 -27 -58 -31 -72 -8 -28 -91 -217 -106 -240 -5 -8 -14 -26 -20 -40
-7 -14 -38 -79 -69 -145 -90 -187 -140 -307 -140 -332 0 -7 -4 -21 -10 -31
-12 -21 -65 -181 -79 -237 -5 -22 -17 -67 -26 -100 -15 -53 -27 -115 -39 -195
-8 -59 -23 -77 -66 -84 -140 -22 -236 -99 -306 -247 -11 -21 -22 -39 -26 -39
-16 0 -20 79 -9 198 14 150 35 219 130 428 22 51 41 96 41 102 0 5 7 15 15 22
8 7 15 21 15 31 0 10 14 41 30 69 17 28 30 55 30 59 0 12 75 166 109 226 16
28 38 66 48 85 11 19 40 71 64 115 25 44 49 87 52 95 9 19 38 69 160 270 53
88 97 165 97 170 0 5 8 16 18 26 9 9 26 34 37 55 31 58 83 151 104 184 11 17
34 59 52 95 55 110 100 181 110 175 5 -4 6 -31 3 -63z"/>
<path d="M2215 5757 c-57 -17 -107 -42 -138 -71 -79 -73 -144 -237 -133 -337
3 -32 10 -67 14 -76 5 -10 20 -40 33 -68 24 -49 173 -209 249 -267 103 -78
169 -149 217 -233 25 -45 53 -102 53 -109 0 -4 6 -22 13 -39 38 -87 62 -286
38 -301 -5 -3 -12 -18 -16 -33 -3 -16 -18 -40 -33 -56 -25 -26 -26 -33 -27
-145 -2 -121 -5 -134 -59 -215 -48 -72 -181 -131 -281 -125 -54 3 -60 1 -60
-16 0 -22 93 -75 131 -76 12 0 38 -7 57 -15 53 -22 313 -21 382 1 123 40 198
80 267 143 72 66 76 92 16 90 -85 -3 -145 47 -133 110 9 49 29 76 123 165 76
73 133 158 117 175 -4 3 -33 6 -67 6 -54 0 -62 3 -84 30 -32 41 -32 93 2 148
34 55 98 151 104 157 11 10 67 98 73 115 34 88 47 165 28 165 -6 0 -27 -22
-47 -50 -31 -43 -41 -50 -70 -50 -33 0 -34 1 -34 44 0 34 7 53 35 88 81 107
110 178 99 238 -9 41 -31 38 -50 -7 -56 -131 -51 -124 -92 -121 -33 3 -37 6
-40 34 -2 22 7 48 27 82 17 27 31 53 31 57 0 5 7 16 16 26 25 27 24 121 0 148
-32 36 -46 27 -46 -30 0 -65 -28 -109 -69 -109 -22 0 -31 7 -41 29 -7 19 -8
35 -2 47 57 112 67 179 32 214 -11 11 -30 20 -41 20 -19 0 -21 -4 -15 -45 9
-59 -5 -85 -48 -85 -31 0 -33 3 -43 45 -7 31 -7 59 0 91 11 46 11 47 -23 76
-19 16 -45 31 -57 34 -13 4 -23 9 -23 13 0 3 -24 17 -52 30 -29 12 -61 27 -72
33 -52 27 -203 42 -261 25z m260 -101 c33 -15 71 -32 85 -39 27 -13 79 -107
80 -144 0 -12 15 -34 34 -50 37 -31 96 -121 96 -147 0 -9 11 -28 25 -42 40
-40 63 -95 63 -147 -1 -39 4 -53 27 -77 27 -28 27 -30 20 -114 -7 -84 -6 -86
20 -111 17 -14 31 -41 35 -64 7 -41 8 -39 -83 -174 -29 -44 -57 -135 -57 -187
0 -34 7 -56 25 -81 26 -36 55 -92 55 -108 0 -5 -21 -31 -48 -58 -26 -26 -60
-70 -76 -97 -25 -42 -28 -56 -24 -110 3 -48 10 -70 31 -97 15 -20 27 -43 27
-51 0 -29 -71 -74 -154 -100 -47 -14 -195 -28 -228 -21 -49 10 -45 30 16 92
69 70 114 176 122 286 6 76 11 99 44 190 13 33 24 80 25 105 3 59 -12 199 -23
214 -5 6 -14 31 -21 56 -15 55 -85 193 -112 223 -78 85 -153 156 -204 195 -83
62 -155 142 -204 225 -35 57 -43 80 -47 137 -6 76 14 154 51 198 12 15 24 34
28 44 7 21 85 74 117 81 14 3 63 4 110 2 65 -2 99 -9 145 -29z"/>
<path d="M4735 5530 c-3 -5 1 -26 10 -46 8 -20 15 -44 15 -53 0 -33 51 -90
122 -137 40 -27 89 -64 108 -84 41 -41 100 -115 100 -125 0 -4 14 -24 30 -45
17 -21 30 -43 30 -49 0 -7 7 -14 15 -17 8 -4 15 -11 15 -16 0 -25 132 -177
203 -234 37 -31 112 -54 173 -54 62 0 142 23 156 44 9 13 -14 53 -82 146 -30
41 -73 102 -95 135 -22 33 -42 62 -46 65 -3 3 -23 30 -44 60 -21 30 -54 72
-74 95 -71 79 -241 241 -306 291 l-40 31 -142 0 c-79 1 -145 -3 -148 -7z m279
-91 c43 -23 138 -103 224 -189 103 -103 352 -436 352 -470 0 -15 -85 -22 -127
-11 -30 8 -58 30 -111 85 -38 41 -83 95 -98 122 -34 58 -143 209 -175 244 -13
14 -55 52 -94 85 -137 118 -145 132 -94 146 45 13 84 9 123 -12z"/>
<path d="M5291 5453 l-24 -19 45 -27 c60 -35 156 -132 234 -237 35 -47 67 -89
72 -95 4 -5 26 -39 47 -74 22 -35 47 -74 55 -86 46 -71 89 -146 95 -164 3 -12
11 -21 16 -21 5 0 9 -5 9 -11 0 -7 13 -33 28 -58 16 -25 39 -73 52 -106 13
-33 28 -64 32 -70 4 -5 8 -15 8 -22 0 -13 38 -72 61 -95 27 -27 105 -60 135
-56 34 4 34 5 10 123 -9 44 -21 101 -26 128 -5 26 -13 62 -19 80 -6 17 -20 66
-32 107 -12 41 -25 82 -29 90 -4 8 -15 33 -25 55 -9 22 -21 47 -26 55 -5 8
-14 25 -19 38 -16 38 -100 154 -149 206 -25 26 -80 75 -121 107 -41 33 -80 64
-87 69 -33 27 -133 74 -173 82 -107 21 -144 21 -169 1z m327 -170 c100 -73
205 -170 222 -204 11 -20 24 -39 29 -41 13 -5 98 -170 122 -236 56 -159 87
-330 57 -320 -6 2 -15 11 -18 19 -4 8 -16 34 -28 59 -11 25 -25 56 -32 70 -6
14 -22 43 -35 65 -13 22 -32 54 -41 70 -14 27 -33 56 -100 159 -39 60 -64 102
-79 131 -8 17 -29 48 -45 70 -17 22 -46 63 -64 91 -19 29 -39 55 -45 58 -17
11 -13 36 5 36 8 0 32 -12 52 -27z"/>
<path d="M6970 5380 c-120 -28 -129 -33 -191 -85 -62 -53 -159 -183 -159 -215
0 -9 -4 -20 -10 -26 -43 -43 -44 -323 -1 -379 13 -16 42 -114 54 -180 6 -33
12 -133 13 -223 1 -201 11 -221 48 -97 9 33 22 76 28 95 7 19 15 53 19 75 29
148 97 259 223 364 68 56 181 99 286 108 56 5 174 -17 237 -43 17 -8 35 -14
40 -14 11 0 183 -88 202 -103 14 -12 46 -31 71 -44 8 -4 20 -12 26 -17 6 -6
22 -18 34 -26 61 -40 174 -136 223 -190 96 -106 178 -156 225 -139 33 12 29
54 -10 99 -32 35 -73 85 -134 160 -16 19 -31 37 -34 40 -19 17 -109 187 -145
275 -9 22 -23 53 -31 68 -8 16 -14 36 -14 46 0 9 -9 41 -19 71 -15 42 -29 62
-63 87 -23 17 -49 32 -55 32 -7 1 -13 6 -13 11 0 6 -10 15 -22 20 -13 6 -36
19 -53 30 -31 19 -156 83 -210 106 -16 7 -46 20 -67 28 -20 9 -45 16 -55 16
-10 0 -23 4 -28 9 -9 9 -43 17 -180 41 -62 11 -188 10 -235 0z m280 -81 c41
-6 102 -20 135 -30 54 -18 269 -120 320 -151 11 -7 42 -26 68 -42 55 -34 117
-114 117 -151 0 -13 9 -39 20 -57 11 -18 20 -40 20 -49 0 -9 7 -22 15 -29 8
-7 15 -20 15 -29 0 -9 14 -45 30 -79 17 -35 30 -68 30 -73 0 -18 -49 -9 -77
14 -15 13 -58 40 -95 60 -37 21 -70 42 -73 48 -11 16 -165 85 -255 114 -85 27
-226 46 -278 38 -64 -11 -191 -59 -247 -94 -64 -40 -185 -160 -209 -208 -30
-56 -69 -48 -81 17 -4 20 -10 42 -15 47 -17 21 -34 134 -34 225 0 156 35 241
139 341 72 70 81 75 175 94 70 14 161 12 280 -6z"/>
<path d="M1203 5360 c-65 -15 -195 -117 -208 -162 -4 -13 -13 -38 -22 -57 -31
-68 9 -211 79 -287 57 -62 146 -104 219 -104 108 0 247 88 290 184 27 63 35
160 16 199 -9 18 -18 44 -21 58 -8 38 -92 122 -153 153 -54 27 -129 33 -200
16z m176 -78 c53 -27 109 -81 116 -113 4 -16 11 -31 16 -34 16 -11 10 -131 -8
-166 -29 -53 -82 -107 -129 -129 -54 -27 -166 -30 -190 -6 -8 9 -21 16 -28 16
-17 0 -78 68 -101 114 -14 28 -20 59 -19 106 0 57 5 72 34 117 19 29 41 54 49
57 9 3 35 17 59 30 23 14 50 27 60 30 29 8 105 -4 141 -22z"/>
<path d="M1919 5013 c-115 -132 -133 -171 -132 -290 0 -73 5 -100 22 -133 11
-22 21 -46 21 -52 0 -6 -17 -30 -39 -53 -119 -129 -123 -288 -10 -403 69 -70
105 -90 201 -108 131 -25 273 -5 213 30 -19 11 -68 58 -91 88 -7 8 -15 29 -19
46 -3 18 -11 34 -16 37 -17 11 -10 225 10 283 40 115 114 201 197 227 30 9 54
23 54 30 0 16 -75 85 -176 162 -44 34 -101 84 -126 112 -25 28 -55 51 -65 51
-11 0 -31 -12 -44 -27z m109 -125 c73 -54 152 -130 152 -147 0 -9 -23 -38 -50
-66 -28 -27 -50 -53 -50 -57 0 -4 -14 -31 -31 -58 -30 -48 -46 -98 -55 -165
-2 -16 -6 -46 -9 -65 -5 -30 6 -114 32 -244 l6 -28 -54 7 c-30 4 -61 13 -69
20 -8 7 -30 20 -47 29 -22 11 -40 33 -58 69 -23 49 -24 58 -14 117 7 46 22 83
50 128 l40 63 -3 147 c-3 164 6 209 48 253 36 37 57 36 112 -3z"/>
<path d="M4759 4870 c-109 -176 -128 -223 -136 -341 -5 -71 17 -168 42 -189 9
-7 15 -30 15 -51 0 -43 16 -51 43 -21 21 23 21 46 3 75 -20 31 -39 168 -30
224 10 66 40 129 73 152 l29 21 13 -32 c14 -34 5 -197 -31 -549 -8 -75 -8
-129 -1 -181 7 -52 7 -86 0 -112 -6 -21 -7 -50 -3 -65 7 -26 21 -140 27 -216
5 -61 -23 -87 -44 -41 -6 13 -22 29 -35 35 -29 13 -33 61 -8 82 39 32 36 56
-17 154 -36 67 -60 100 -84 115 -56 35 -135 154 -135 204 0 18 -32 76 -42 76
-4 0 -11 -12 -14 -27 -8 -29 4 -89 32 -166 17 -48 17 -50 -5 -94 l-22 -46 38
-93 c31 -76 42 -93 63 -98 16 -3 40 -27 65 -62 22 -31 65 -76 95 -99 76 -59
84 -69 70 -94 -9 -18 -8 -21 9 -21 11 0 23 9 26 21 11 33 26 17 51 -51 24 -67
31 -130 14 -130 -10 0 -77 55 -97 80 -7 8 -13 27 -13 43 0 23 -4 27 -29 27
-23 0 -45 15 -98 68 -84 82 -108 116 -117 166 -9 45 -24 38 -33 -17 -4 -25 0
-44 11 -61 9 -14 16 -30 16 -36 0 -5 16 -30 35 -56 19 -25 35 -52 35 -60 0 -8
8 -14 18 -14 10 0 49 -32 87 -71 84 -85 217 -200 340 -294 50 -38 95 -74 100
-80 12 -15 50 -35 64 -35 19 0 12 17 -31 72 -24 29 -57 73 -75 98 -37 52 -133
243 -133 265 0 8 -6 29 -14 47 -24 57 -36 119 -54 268 -21 184 -23 575 -3 670
8 41 14 140 15 265 1 173 -1 204 -17 232 -9 18 -17 40 -17 50 -1 17 -32 63
-43 63 -3 0 -24 -32 -48 -70z m-199 -973 c16 -23 33 -46 38 -52 4 -5 28 -36
52 -67 25 -32 48 -58 52 -58 5 0 8 -11 8 -25 0 -22 -4 -25 -40 -25 -34 0 -46
6 -85 47 -25 26 -45 51 -45 55 0 5 -13 27 -30 50 -22 30 -30 52 -30 83 0 23 3
45 6 48 12 11 44 -13 74 -56z"/>
<path d="M6183 4903 c-17 -6 -16 -48 0 -81 73 -144 115 -348 116 -569 1 -121
17 -235 40 -281 16 -33 70 -82 90 -82 6 0 11 -4 11 -8 0 -9 79 -47 84 -41 39
49 64 374 42 564 -10 96 -54 249 -92 325 -54 108 -215 204 -291 173z m188
-165 c56 -67 71 -106 96 -233 3 -16 13 -41 22 -54 21 -33 21 -322 0 -399 -19
-68 -30 -78 -58 -55 -15 12 -24 33 -27 63 -3 25 -10 57 -15 71 -6 15 -12 57
-14 95 -3 38 -7 114 -10 169 -3 55 -10 116 -15 135 -6 19 -10 49 -10 66 0 17
-7 37 -16 45 -11 9 -14 22 -10 42 3 16 0 40 -9 57 -20 38 -19 40 8 40 15 0 35
-15 58 -42z"/>
<path d="M5126 4828 c-3 -7 -7 -56 -10 -108 -3 -52 -10 -138 -16 -190 -5 -52
-7 -132 -4 -177 6 -76 5 -83 -12 -83 -10 0 -35 12 -55 26 -21 14 -43 23 -48
19 -7 -4 -11 -56 -11 -139 0 -116 2 -135 18 -149 10 -10 21 -17 24 -17 15 0
110 -89 165 -153 46 -55 57 -49 50 26 -7 73 9 311 24 346 5 12 12 51 16 85 3
33 9 66 13 71 4 6 11 26 14 45 7 35 30 99 48 133 32 61 31 64 -30 101 -60 36
-115 90 -133 129 -14 30 -48 53 -53 35z m111 -229 c9 -19 8 -40 -3 -99 -8 -41
-18 -95 -22 -119 -4 -25 -12 -46 -19 -48 -13 -5 -13 264 0 285 12 18 30 10 44
-19z m-76 -404 c-5 -103 -14 -147 -33 -159 -28 -17 -57 20 -67 85 -8 46 -6 59
11 89 27 45 48 61 73 58 18 -3 20 -9 16 -73z"/>
<path d="M7205 4684 c-111 -44 -170 -89 -231 -179 -58 -85 -121 -263 -159
-450 -9 -44 -21 -93 -27 -110 -5 -16 -13 -46 -17 -65 -13 -61 -70 -167 -117
-220 -28 -30 -44 -56 -40 -65 7 -19 63 -19 96 0 14 8 32 17 40 21 8 4 40 26
70 49 30 23 72 51 93 64 20 12 37 26 37 30 0 3 20 17 45 31 25 14 45 28 45 32
0 5 5 8 11 8 6 0 31 12 57 27 26 15 69 35 97 45 55 19 184 24 213 8 9 -5 42
-21 73 -35 69 -31 163 -115 215 -192 22 -32 42 -60 45 -63 11 -10 99 -197 99
-211 0 -8 7 -24 15 -35 8 -10 15 -26 15 -34 0 -8 7 -28 15 -44 8 -15 15 -36
15 -45 0 -9 7 -29 15 -45 8 -15 15 -37 15 -48 0 -23 25 -133 46 -199 8 -26 14
-55 14 -64 0 -27 38 -82 60 -88 35 -9 43 16 36 110 -4 49 -13 111 -21 138 -34
119 -36 505 -3 680 6 33 14 89 18 125 4 36 13 92 20 125 7 33 10 95 8 137 -5
85 -16 105 -109 198 -71 71 -285 230 -310 230 -5 0 -9 4 -9 8 0 5 -25 19 -55
33 -30 13 -55 27 -55 32 0 4 -6 7 -13 7 -7 0 -29 9 -50 20 -20 11 -47 20 -60
20 -13 0 -28 5 -35 12 -19 19 -170 21 -217 2z m170 -69 c102 -19 120 -27 230
-92 199 -119 276 -175 351 -254 103 -110 102 -86 14 -717 -10 -74 -16 -140
-13 -148 3 -8 1 -14 -5 -14 -10 0 -30 39 -67 125 -25 60 -46 97 -72 128 -13
16 -23 33 -23 39 0 16 -108 141 -158 181 -106 85 -242 133 -351 123 -35 -3
-74 -12 -86 -20 -12 -8 -38 -18 -57 -21 -20 -4 -57 -22 -84 -41 -26 -19 -53
-34 -60 -34 -6 0 -39 -18 -72 -40 -65 -43 -77 -47 -85 -26 -5 14 -2 30 28 141
9 33 21 89 26 125 5 36 16 82 24 103 8 20 15 45 15 55 0 20 59 158 83 196 9
14 17 30 17 35 0 19 143 141 166 141 12 0 26 5 29 10 4 6 14 8 23 6 12 -4 47
7 47 14 0 0 36 -7 80 -15z"/>
<path d="M5757 4603 c-4 -3 -7 -25 -7 -47 -1 -23 -7 -52 -15 -66 -8 -14 -15
-38 -15 -55 0 -16 -7 -48 -15 -70 -16 -44 -20 -221 -6 -244 7 -10 13 -11 30
-2 16 9 21 21 21 49 0 52 30 172 44 172 6 0 23 -21 37 -48 26 -47 33 -102 15
-131 -12 -19 -44 -183 -52 -266 -7 -77 -18 -105 -39 -105 -14 0 -62 65 -96
131 -20 40 -82 92 -139 115 -27 12 -31 11 -49 -12 -40 -50 -82 -13 -60 54 30
95 46 102 100 46 52 -54 100 -76 138 -63 34 12 41 29 12 29 -20 0 -98 72 -146
134 -32 42 -54 93 -62 141 -9 56 -11 59 -35 43 -24 -16 -43 -88 -58 -218 -4
-41 -14 -95 -21 -120 -8 -31 -12 -134 -12 -335 0 -237 3 -303 16 -358 10 -38
17 -86 17 -107 0 -21 4 -41 9 -45 5 -3 25 14 44 37 l34 43 -4 160 c-4 138 4
289 24 478 l5 48 36 -3 c37 -3 37 -4 113 -153 41 -82 85 -166 97 -185 12 -19
26 -44 31 -55 12 -28 38 -48 50 -40 31 19 56 133 67 300 4 61 11 121 16 135 5
14 14 45 18 70 14 73 35 139 48 152 19 19 14 42 -14 69 -30 28 -70 111 -94
194 -20 69 -39 110 -57 122 -11 7 -23 10 -26 6z"/>
<path d="M7255 3795 c-5 -1 -36 -10 -67 -20 -32 -9 -58 -21 -58 -26 0 -5 -6
-9 -14 -9 -8 0 -50 -26 -93 -58 -76 -57 -111 -92 -257 -256 -97 -108 -217
-196 -270 -196 -22 0 -20 -23 3 -45 21 -19 79 -18 136 3 92 32 190 49 199 33
4 -6 16 -11 27 -11 41 0 129 -50 181 -103 54 -56 118 -163 118 -198 0 -11 7
-36 16 -57 23 -53 22 -440 0 -527 -9 -32 -16 -87 -16 -122 0 -34 -5 -84 -10
-110 -6 -26 -15 -104 -20 -173 -5 -69 -14 -152 -20 -185 -22 -123 2 -184 55
-135 18 17 25 34 25 59 0 20 6 56 14 81 8 25 22 72 32 105 9 33 23 75 30 93 8
18 14 40 14 50 0 9 7 26 15 36 8 11 15 28 15 37 0 10 6 30 14 46 26 53 46 104
46 118 0 8 4 15 9 15 5 0 13 10 16 23 10 34 76 167 86 173 5 3 9 14 9 25 0 10
4 19 9 19 5 0 14 12 20 28 7 15 17 36 24 47 77 129 145 242 159 263 10 15 21
34 25 42 4 8 11 20 15 25 70 86 83 111 81 159 -2 46 -13 92 -47 206 -8 25 -17
60 -21 77 -4 18 -11 35 -16 38 -5 4 -9 15 -9 25 0 21 -71 183 -82 188 -5 2 -8
8 -8 14 0 17 -73 104 -115 136 -59 45 -136 72 -203 71 -31 0 -61 -2 -67 -4z
m151 -84 c29 -7 58 -27 95 -65 73 -73 90 -98 128 -191 19 -44 39 -91 46 -105
7 -14 21 -61 30 -104 8 -44 18 -82 20 -86 3 -4 7 -37 11 -74 5 -64 4 -69 -30
-121 -20 -29 -36 -58 -36 -64 0 -6 -13 -24 -30 -41 -16 -17 -30 -37 -30 -44 0
-7 -13 -32 -30 -54 -16 -23 -30 -46 -30 -51 0 -5 -11 -22 -24 -38 -13 -15 -33
-48 -45 -73 -12 -25 -37 -72 -56 -105 -18 -33 -45 -85 -60 -115 -15 -30 -35
-66 -45 -80 -9 -14 -20 -37 -24 -52 -3 -15 -17 -40 -30 -55 -22 -25 -25 -26
-31 -10 -4 9 -1 59 8 110 20 126 22 429 3 532 -26 145 -56 209 -149 318 -40
46 -67 67 -132 98 -45 21 -89 39 -97 39 -20 0 -88 28 -88 36 0 13 130 164 203
236 51 51 92 81 189 141 15 9 47 17 70 18 24 0 52 4 63 9 21 10 32 9 101 -9z"/>
<path d="M4077 3760 c-5 -14 -18 -314 -20 -470 -2 -117 21 -302 59 -485 8 -38
14 -94 14 -122 0 -67 20 -71 50 -8 12 24 32 55 46 67 28 28 31 70 9 173 -21
99 -20 292 2 378 17 64 17 70 1 81 -9 6 -26 32 -38 56 -12 25 -26 53 -31 62
-5 10 -9 26 -9 37 0 10 -7 35 -15 54 -8 20 -15 49 -15 64 0 37 -46 133 -53
113z"/>
<path d="M890 3613 c0 -20 4 -50 9 -67 5 -17 14 -50 20 -73 24 -95 34 -129 46
-158 18 -44 36 -96 45 -134 5 -18 13 -38 19 -44 6 -6 11 -20 11 -32 0 -12 7
-30 15 -41 8 -10 15 -27 15 -37 0 -11 6 -31 14 -45 7 -15 27 -56 43 -92 49
-106 102 -211 139 -275 19 -33 39 -69 45 -80 49 -96 195 -302 344 -486 73 -91
298 -316 385 -387 109 -88 259 -202 266 -202 3 0 23 -13 44 -30 21 -16 40 -30
43 -30 3 0 34 -19 69 -43 35 -24 83 -53 108 -66 25 -12 52 -26 60 -32 8 -5 35
-18 60 -29 25 -12 52 -24 60 -29 16 -9 74 -35 125 -56 17 -7 46 -20 65 -28 19
-8 55 -23 80 -32 25 -10 57 -23 72 -31 14 -8 35 -14 46 -14 11 0 25 -7 32 -15
14 -17 56 -20 65 -4 4 5 17 14 28 20 12 5 29 13 37 17 48 27 84 42 99 42 9 0
25 6 36 14 11 7 31 16 45 19 14 3 52 15 85 27 33 12 74 26 90 30 17 5 62 20
100 34 39 14 77 26 85 26 8 0 28 7 44 15 15 8 36 15 45 15 9 0 36 7 61 15 25
8 70 21 100 29 188 48 260 66 314 76 27 5 54 14 60 20 5 5 19 10 31 10 11 0
33 7 49 15 15 8 34 15 42 15 7 0 28 6 46 14 18 8 58 24 88 36 132 51 313 142
350 175 9 8 20 15 24 15 22 0 150 121 193 182 31 44 54 100 67 163 13 60 -43
189 -108 250 -69 65 -230 138 -336 154 -25 4 -51 11 -59 16 -8 4 -53 12 -100
16 -47 4 -117 11 -154 15 -74 8 -239 -8 -322 -30 -47 -13 -88 -24 -180 -47
-22 -6 -44 -14 -49 -20 -6 -5 -19 -9 -29 -9 -17 0 -37 -9 -97 -41 -8 -4 -35
-18 -60 -31 -125 -62 -303 -222 -385 -343 -22 -33 -43 -62 -46 -65 -5 -4 -23
-34 -74 -118 -37 -61 -111 -165 -151 -212 -46 -54 -163 -150 -183 -150 -5 0
-16 -6 -23 -12 -27 -26 -86 -42 -171 -46 -49 -2 -93 1 -100 6 -7 6 -30 14 -52
18 -22 4 -49 13 -60 20 -11 8 -27 14 -36 14 -9 0 -36 11 -60 25 -24 13 -53 29
-64 34 -11 5 -37 21 -58 35 -21 14 -40 26 -43 26 -13 0 -270 206 -320 258 -43
44 -124 147 -124 158 0 4 -6 15 -14 23 -22 25 -74 128 -81 161 -4 16 -11 32
-16 35 -24 16 6 98 48 128 50 38 225 33 335 -9 39 -15 50 -16 60 -6 11 11 6
20 -27 48 -22 20 -49 40 -60 45 -24 11 -58 32 -65 40 -3 3 -27 19 -53 35 -27
16 -61 37 -75 46 -29 18 -84 49 -142 81 -19 10 -48 27 -65 38 -16 10 -39 23
-50 28 -11 5 -37 21 -58 35 -21 14 -40 26 -42 26 -10 0 -177 119 -230 164
-128 109 -247 262 -324 416 -12 25 -26 52 -30 60 -26 46 -90 219 -98 263 -8
42 -33 34 -33 -10z m460 -805 c30 -23 82 -61 115 -86 33 -24 67 -47 75 -50 8
-3 29 -16 45 -28 28 -21 102 -63 190 -108 22 -11 44 -26 48 -33 4 -7 14 -13
22 -13 8 0 29 -13 46 -28 l31 -28 -70 -48 c-106 -72 -138 -141 -116 -253 4
-19 2 -33 -4 -33 -16 0 -62 40 -76 68 -8 15 -30 43 -48 62 -18 19 -42 49 -53
66 -67 104 -89 134 -95 134 -4 0 -15 17 -24 38 -9 20 -30 57 -46 82 -44 68
-70 117 -70 135 0 9 -7 18 -15 21 -8 3 -17 16 -21 27 -3 12 -14 40 -25 62 -10
22 -22 56 -25 75 l-7 34 34 -28 c19 -15 59 -46 89 -68z m3420 -408 c309 -50
485 -160 503 -316 13 -118 -101 -264 -288 -366 -108 -59 -236 -118 -331 -153
-54 -20 -108 -41 -119 -47 -21 -12 -83 -29 -205 -56 -41 -10 -79 -20 -85 -23
-5 -4 -26 -10 -45 -13 -58 -11 -164 -37 -185 -46 -44 -18 -122 -42 -165 -51
-25 -5 -85 -25 -134 -44 -49 -19 -97 -35 -105 -35 -9 0 -28 -6 -42 -14 -14 -7
-39 -16 -55 -20 -28 -6 -134 -46 -236 -87 -26 -10 -62 -19 -82 -19 -52 0 -366
134 -366 156 0 11 38 27 130 55 25 8 67 28 94 46 26 18 51 33 55 33 5 0 47 37
96 83 79 74 122 129 210 266 17 26 40 60 53 75 12 16 22 33 22 38 0 21 147
197 227 271 51 47 170 122 236 148 26 10 71 29 100 40 75 31 173 56 347 88 62
11 279 6 370 -9z"/>
<path d="M3323 3209 c-53 -34 -55 -101 -4 -169 45 -61 65 -109 65 -161 1 -38
-4 -54 -18 -64 -30 -23 -13 -48 26 -39 44 9 71 31 105 84 43 67 58 159 39 234
-17 62 -26 78 -66 113 -33 29 -103 30 -147 2z m115 -112 c19 -52 16 -65 -13
-59 -22 4 -25 9 -25 48 0 54 20 59 38 11z"/>
<path d="M6695 3068 c-27 -22 -62 -44 -77 -50 -16 -5 -28 -14 -28 -19 0 -5 -5
-9 -11 -9 -12 0 -66 -22 -112 -46 -16 -8 -33 -14 -39 -14 -5 0 -24 -6 -41 -14
-18 -7 -57 -23 -87 -35 -145 -58 -175 -75 -175 -103 0 -23 0 -23 127 -20 118
4 130 2 165 -19 33 -19 68 -52 102 -95 15 -18 51 -102 51 -116 0 -8 5 -19 11
-25 17 -17 13 -231 -5 -275 -9 -21 -16 -48 -16 -62 0 -14 -4 -27 -9 -30 -5 -3
-12 -21 -15 -40 -4 -20 -13 -48 -21 -63 -8 -15 -15 -34 -15 -41 0 -7 -4 -20
-9 -30 -5 -9 -32 -62 -59 -117 -27 -55 -61 -120 -76 -145 -14 -25 -29 -51 -32
-59 -10 -19 -155 -235 -163 -241 -12 -10 -51 -69 -51 -79 0 -5 -4 -11 -9 -13
-5 -1 -25 -38 -45 -81 -58 -124 -59 -227 -3 -227 17 0 28 10 40 35 9 20 17 43
17 53 1 27 64 120 128 187 53 57 371 305 389 305 5 0 16 8 25 18 25 25 46 42
55 42 5 0 23 13 41 29 17 16 58 50 89 74 32 25 84 72 116 105 51 54 57 65 57
104 0 24 4 59 10 78 5 19 14 82 20 140 5 58 14 134 20 170 23 161 28 277 15
402 -7 69 -18 134 -23 144 -5 11 -20 41 -33 67 -47 94 -140 158 -227 156 -39
0 -55 -7 -97 -41z m190 -71 c49 -27 100 -122 115 -212 13 -78 13 -300 0 -379
-5 -33 -19 -133 -31 -221 -29 -222 -33 -235 -115 -326 -38 -43 -77 -80 -86
-84 -10 -3 -41 -25 -70 -49 -51 -41 -132 -100 -167 -121 -68 -42 -130 -85
-136 -94 -3 -6 -24 -20 -46 -31 -33 -17 -39 -18 -39 -5 0 8 4 15 9 15 5 0 25
30 44 68 19 37 64 126 102 197 129 250 201 488 192 640 -5 94 -10 118 -45 208
-22 58 -37 79 -99 137 -96 90 -96 100 5 145 42 19 84 39 92 44 8 6 33 20 55
31 21 12 50 30 63 41 34 27 106 25 157 -4z"/>
<path d="M6235 2647 c-25 -17 -200 -40 -327 -43 -123 -2 -130 -5 -126 -46 3
-31 5 -32 66 -43 93 -17 126 -49 194 -188 15 -31 10 -201 -8 -259 -58 -187
-179 -357 -358 -503 -27 -22 -68 -56 -92 -75 -23 -19 -72 -55 -108 -80 -36
-25 -75 -52 -85 -61 -11 -8 -36 -24 -55 -34 -20 -11 -36 -23 -36 -27 0 -5 -5
-8 -10 -8 -9 0 -65 -35 -80 -50 -3 -3 -13 -9 -22 -15 -84 -51 -273 -190 -337
-249 -82 -77 -151 -156 -151 -174 0 -5 -7 -15 -15 -22 -17 -14 -21 -95 -5
-105 19 -12 45 5 79 53 30 42 125 123 170 145 9 4 30 16 46 27 17 11 37 22 45
26 8 3 22 9 30 14 26 15 132 64 205 94 44 19 96 37 130 46 17 4 41 12 55 17
14 6 52 18 85 28 33 9 75 23 93 31 18 8 41 14 50 14 10 0 27 7 38 15 10 8 27
15 36 15 14 0 97 40 179 86 30 17 47 38 138 174 105 156 211 329 269 440 51
99 112 252 112 284 0 12 5 27 12 34 7 7 13 61 16 139 4 117 3 133 -18 178 -12
27 -28 54 -35 62 -7 7 -15 16 -17 20 -1 5 -17 18 -35 31 -37 25 -98 29 -128 9z
m112 -110 c35 -38 41 -52 47 -106 12 -107 -8 -231 -56 -351 -37 -91 -133 -277
-157 -305 -10 -11 -31 -42 -47 -70 -15 -27 -35 -62 -44 -76 -31 -54 -119 -185
-139 -209 -12 -14 -30 -37 -41 -51 -26 -35 -181 -109 -325 -154 -66 -21 -149
-48 -185 -61 -36 -13 -72 -24 -80 -24 -8 0 -46 -12 -85 -26 -38 -14 -79 -28
-90 -31 -28 -8 50 62 98 87 20 11 37 24 37 29 0 5 13 14 30 21 16 7 40 22 53
34 13 11 64 48 112 81 232 159 423 335 485 447 11 20 24 40 30 43 24 15 115
231 119 285 16 187 10 228 -50 341 -16 31 -29 63 -29 71 0 10 19 19 58 27 31
6 84 18 117 25 93 21 99 20 142 -27z"/>
<path d="M5367 2402 c-23 -25 -22 -27 16 -75 49 -62 96 -176 97 -234 0 -56
-40 -195 -70 -243 -6 -8 -14 -25 -20 -38 -17 -39 -182 -196 -255 -242 -97 -62
-104 -66 -155 -90 -25 -12 -52 -26 -60 -31 -8 -5 -22 -12 -30 -15 -24 -9 -83
-35 -113 -50 -16 -8 -36 -14 -46 -14 -9 0 -25 -6 -36 -13 -11 -7 -54 -24 -95
-36 -41 -13 -79 -28 -84 -32 -6 -5 -21 -9 -34 -9 -13 0 -38 -6 -55 -13 -51
-22 -133 -47 -152 -47 -9 0 -31 -6 -48 -14 -18 -8 -53 -17 -79 -21 -26 -3 -50
-10 -53 -16 -4 -5 -18 -9 -33 -9 -15 0 -47 -6 -72 -14 -58 -18 -125 -35 -175
-45 -22 -4 -50 -13 -62 -19 -12 -7 -31 -12 -43 -12 -12 0 -36 -6 -53 -14 -18
-7 -61 -23 -97 -34 -106 -34 -140 -48 -152 -60 -7 -7 -18 -12 -26 -12 -12 0
-47 -16 -92 -41 -8 -5 -26 -14 -39 -19 -40 -17 -109 -71 -113 -89 -15 -55 24
-53 148 8 148 72 258 111 320 112 22 0 73 6 114 13 49 9 173 14 360 16 157 0
314 5 350 11 36 5 97 13 135 18 39 5 84 15 100 23 28 12 114 72 125 87 3 4
160 110 350 236 190 125 374 251 410 279 152 118 254 238 336 393 46 87 47 89
47 183 0 82 -3 102 -25 145 -15 28 -40 60 -57 73 -29 21 -35 22 -101 11 -50
-7 -90 -7 -139 0 -39 6 -105 11 -149 11 -64 0 -82 -4 -95 -18z m391 -78 c79
-8 103 -42 104 -150 1 -60 -12 -97 -80 -220 -36 -66 -210 -250 -283 -299 -24
-16 -53 -38 -64 -48 -11 -11 -47 -33 -80 -49 -33 -17 -66 -39 -73 -49 -7 -11
-22 -19 -33 -19 -10 0 -29 -11 -41 -25 -12 -14 -26 -25 -31 -25 -5 0 -34 -20
-65 -44 -32 -25 -84 -62 -118 -83 -118 -74 -219 -142 -239 -161 -85 -80 -251
-120 -540 -127 -104 -2 -206 -1 -225 4 -19 5 -29 9 -21 10 8 1 22 7 30 14 9 8
45 22 81 31 36 10 90 27 120 38 30 11 66 22 80 24 54 7 107 22 145 41 22 10
60 25 85 33 25 7 94 30 155 51 60 22 114 39 119 39 6 0 52 20 103 45 50 25 99
45 107 45 17 0 139 71 171 100 11 10 29 21 40 24 22 7 161 140 211 202 44 55
99 187 112 269 11 73 4 177 -18 250 -22 76 -21 79 35 86 49 5 106 4 213 -7z"/>
</g>
</svg>
