<?xml version="1.0" standalone="no"?>
<!DOCTYPE svg PUBLIC "-//W3C//DTD SVG 20010904//EN"
 "http://www.w3.org/TR/2001/REC-SVG-20010904/DTD/svg10.dtd">
<svg version="1.0" xmlns="http://www.w3.org/2000/svg"
 width="300.000000pt" height="300.000000pt" viewBox="0 0 300.000000 300.000000"
 preserveAspectRatio="xMidYMid meet">
<metadata>
Created by potrace 1.10, written by Peter Selinger 2001-2011
</metadata>
<g transform="translate(0.000000,300.000000) scale(0.050000,-0.050000)"
fill="#000000" stroke="none">
<path d="M2830 5979 c-447 -47 -818 -310 -1037 -734 -109 -212 -101 -232 25
-69 587 756 1821 753 2372 -4 93 -129 124 -143 75 -37 -284 622 -779 914
-1435 844z"/>
<path d="M2994 5170 c-19 -350 -41 -542 -86 -752 l-32 -152 -133 -24 c-461
-84 -873 -489 -981 -965 -30 -132 -38 -146 -92 -161 -181 -49 -440 -80 -755
-90 -454 -15 -454 -37 0 -52 315 -10 574 -41 755 -90 54 -15 62 -29 92 -161
108 -475 517 -878 978 -965 72 -13 132 -25 134 -26 25 -17 93 -502 114 -809
25 -360 27 -375 30 -180 3 330 44 685 104 919 17 70 23 74 143 97 464 89 893
521 977 985 l25 134 131 30 c252 57 394 74 718 86 442 16 424 39 -41 51 -358
10 -477 23 -718 77 l-92 21 -24 123 c-88 459 -517 887 -975 975 -83 16 -128
35 -135 56 -54 177 -108 631 -117 993 -4 161 -6 148 -20 -120z m-258 -1254
c-161 -301 -366 -501 -670 -654 -165 -82 -170 -80 -126 49 128 370 378 621
745 748 145 50 148 40 51 -143z m426 -197 c206 -319 680 -698 873 -699 25 0
45 -9 45 -20 0 -11 -20 -20 -45 -20 -273 -1 -880 -581 -993 -948 l-37 -120
-32 109 c-108 374 -647 899 -975 952 -100 16 -100 38 0 54 328 53 867 578 975
952 l32 109 37 -120 c21 -66 75 -178 120 -249z m212 318 c333 -123 640 -464
699 -774 l13 -68 -188 97 c-236 121 -465 341 -592 568 -139 249 -138 253 68
177z m693 -1322 c-108 -368 -378 -645 -756 -775 -127 -43 -130 -37 -58 106
145 286 372 524 648 679 208 117 203 117 166 -10z m-2002 24 c301 -149 510
-354 673 -660 l88 -165 -78 12 c-331 53 -676 379 -808 763 -44 129 -39 131
125 50z"/>
<path d="M3083 3485 c-10 -19 -29 -69 -42 -110 -32 -100 -51 -95 -91 25 -45
135 -64 126 -54 -25 l8 -125 -94 90 c-99 95 -109 77 -36 -67 37 -72 25 -84
-47 -47 -144 73 -162 63 -67 -36 l90 -94 -125 8 c-151 10 -160 -9 -25 -54 125
-42 125 -58 0 -100 -146 -49 -141 -70 14 -57 l136 12 -90 -95 c-95 -100 -77
-109 67 -36 72 37 84 25 47 -47 -73 -144 -63 -162 36 -67 l94 90 -8 -125 c-10
-151 9 -160 54 -25 42 125 58 125 100 0 48 -144 67 -139 55 15 l-10 135 95
-90 c100 -95 109 -77 36 67 -37 72 -25 84 47 47 144 -73 162 -63 67 36 l-90
94 125 -8 c151 -10 160 9 25 54 -125 42 -125 58 0 100 146 49 141 70 -14 57
l-136 -12 90 95 c95 100 77 109 -67 36 -72 -37 -84 -25 -47 47 73 144 64 162
-36 67 l-95 -90 10 135 c11 142 8 157 -22 100z m59 -343 c45 -46 58 -77 58
-142 0 -182 -213 -270 -342 -142 -45 46 -58 77 -58 142 0 65 13 96 58 142 46
45 77 58 142 58 65 0 96 -13 142 -58z"/>
<path d="M792 4228 c-1040 -524 -1061 -1907 -37 -2435 212 -109 232 -101 69
25 -797 620 -754 1839 85 2434 79 56 17 43 -117 -24z"/>
<path d="M5061 4286 c1 -9 53 -56 115 -104 749 -581 761 -1750 24 -2352 -60
-50 -117 -90 -125 -90 -8 0 -15 -9 -15 -20 0 -24 109 25 274 123 923 548 874
1868 -89 2364 -102 52 -184 88 -184 79z"/>
<path d="M1735 865 c503 -1102 1928 -1166 2472 -110 109 212 101 232 -25 69
-589 -758 -1820 -756 -2372 4 -93 129 -124 143 -75 37z"/>
</g>
</svg>
