 <svg  version="1.0" xmlns="http://www.w3.org/2000/svg"  width="225.000000pt" height="225.000000pt" viewBox="0 0 225.000000 225.000000"  preserveAspectRatio="xMidYMid meet">  <g transform="translate(0.000000,225.000000) scale(0.100000,-0.100000)" fill="#232323" stroke="none"> <path d="M835 1943 c-60 -30 -112 -57 -114 -59 -3 -2 5 -14 17 -27 11 -12 44 -71 72 -132 l51 -109 -28 -21 c-15 -11 -47 -37 -69 -57 -23 -21 -44 -38 -48 -38 -4 0 -15 19 -24 41 l-18 42 -71 -89 c-39 -49 -70 -90 -68 -92 1 -1 15 2 30 8 25 9 32 8 52 -12 l22 -23 -23 -65 c-44 -122 -44 -119 37 -175 89 -62 87 -62 87 -33 0 14 7 49 16 78 l16 54 144 -149 144 -150 -116 188 c-114 185 -116 189 -98 209 22 23 103 73 109 66 3 -2 22 -42 44 -89 22 -46 40 -79 40 -73 1 5 -8 49 -18 97 l-19 86 44 7 c91 13 210 -18 282 -76 102 -80 147 -192 140 -349 -4 -105 -29 -177 -88 -250 -38 -49 -125 -109 -192 -133 l-53 -19 50 7 c116 14 249 86 331 177 263 293 160 738 -201 869 -72 26 -228 36 -305 19 -29 -6 -54 -10 -56 -8 -2 1 -14 56 -28 121 l-25 118 25 49 c13 27 23 49 22 48 -2 0 -52 -25 -113 -56z"/> <path d="M1172 1197 c-51 -54 -11 -141 65 -141 72 0 109 89 58 139 -33 34 -93 34 -123 2z"/> </g> </svg> 