<?xml version="1.0" standalone="no"?>
<!DOCTYPE svg PUBLIC "-//W3C//DTD SVG 20010904//EN"
 "http://www.w3.org/TR/2001/REC-SVG-20010904/DTD/svg10.dtd">
<svg version="1.0" xmlns="http://www.w3.org/2000/svg"
 width="300.000000pt" height="267.000000pt" viewBox="0 0 300.000000 267.000000"
 preserveAspectRatio="xMidYMid meet">
<metadata>
Created by potrace 1.10, written by Peter Selinger 2001-2011
</metadata>
<g transform="translate(0.000000,267.000000) scale(0.100000,-0.100000)"
fill="#000000" stroke="none">
<path d="M1015 2433 c-183 -15 -358 -60 -392 -102 -28 -33 -9 -115 37 -166 30
-33 58 -134 65 -230 8 -110 -13 -285 -54 -463 -108 -464 -94 -785 40 -896 l23
-19 -30 -26 c-16 -15 -38 -33 -49 -41 -11 -8 -35 -34 -52 -57 -87 -111 -1
-204 242 -262 173 -41 523 -54 730 -27 28 4 66 9 85 11 55 6 188 40 264 68 77
28 132 75 142 120 9 42 -28 116 -73 147 -19 13 -42 35 -50 47 -14 21 -14 25
-1 41 9 9 23 32 33 51 l17 33 22 -36 c30 -50 72 -76 124 -76 88 0 146 46 158
126 9 60 -13 94 -60 94 -44 0 -61 23 -60 78 1 48 17 66 46 51 20 -11 38 -4 38
13 0 6 31 43 69 83 145 152 249 321 312 505 27 78 33 114 37 205 7 193 -24
284 -148 435 -71 85 -100 148 -100 212 0 20 -7 32 -24 39 -43 20 -151 -54
-163 -112 -4 -24 -12 -28 -67 -39 -71 -13 -161 -52 -193 -82 -13 -12 -23 -18
-23 -14 0 15 39 82 59 100 30 27 27 70 -5 95 -49 38 -196 73 -379 91 -98 9
-516 11 -620 3z m670 -26 c11 -2 49 -7 85 -12 69 -8 177 -38 223 -61 56 -29
24 -88 -64 -117 -76 -26 -230 -49 -279 -43 -26 3 -39 2 -32 -3 8 -5 -8 -7 -40
-6 -29 1 -81 -1 -115 -5 -35 -3 -63 -3 -63 1 0 4 -70 6 -155 6 -85 -1 -155 2
-155 6 0 5 -26 6 -57 3 -43 -5 -53 -3 -38 4 15 8 6 9 -35 5 -41 -4 -51 -3 -40
5 11 9 3 10 -35 5 -37 -4 -46 -3 -35 5 11 8 5 9 -25 5 -24 -4 -35 -3 -28 2 8
6 1 9 -20 9 -18 0 -53 10 -77 22 -48 23 -66 23 -28 -2 32 -21 154 -53 273 -71
198 -30 635 -30 824 1 41 7 159 38 183 48 14 7 13 -2 -7 -69 -31 -100 -47
-207 -49 -329 l-1 -99 -53 -18 c-29 -10 -70 -21 -90 -24 -20 -3 -62 -10 -92
-16 -30 -6 -93 -14 -140 -19 l-85 -9 110 4 c99 3 281 40 345 69 13 5 19 -11
33 -96 10 -57 28 -150 42 -208 54 -230 68 -427 41 -593 -14 -86 -61 -202 -82
-202 -5 0 -47 -19 -94 -42 -110 -55 -215 -82 -373 -95 -340 -28 -719 69 -787
201 -63 125 -63 378 1 683 56 271 68 334 71 372 2 32 5 37 23 32 11 -3 63 -16
115 -29 88 -23 335 -55 345 -46 2 3 -60 13 -138 23 -78 10 -149 20 -157 23 -8
4 -24 8 -35 10 -32 7 -50 11 -55 13 -3 1 -9 3 -15 4 -5 1 -24 5 -41 9 l-31 8
-6 132 c-6 149 -19 200 -77 288 -45 69 -56 111 -32 131 47 40 153 68 332 87
77 9 667 7 715 -2z m728 -88 c10 -71 34 -115 110 -202 111 -128 148 -259 128
-446 -26 -241 -144 -461 -373 -695 -21 -21 -38 -43 -38 -48 0 -6 -11 -7 -25
-4 -38 10 -65 -23 -65 -80 0 -37 5 -51 30 -76 35 -35 37 -56 9 -92 -26 -33
-49 -33 -87 -1 -46 38 -48 74 -17 213 4 14 10 20 18 16 7 -4 9 -4 5 1 -4 4 4
18 18 30 17 15 24 27 19 36 -6 8 -4 11 6 7 8 -3 28 5 44 18 25 20 29 29 27 66
-3 41 -1 45 53 87 30 24 76 69 101 98 26 30 49 52 52 49 6 -6 -36 -55 -126
-149 -36 -37 -63 -70 -60 -72 7 -7 64 47 61 57 -2 4 3 8 10 8 7 0 17 8 24 19
6 10 32 44 58 75 25 31 43 61 40 66 -4 6 3 23 14 39 12 16 37 62 56 103 109
231 80 457 -72 557 -118 78 -244 79 -318 2 -41 -41 -63 -97 -46 -114 6 -6 11
-26 11 -44 0 -26 -6 -36 -30 -48 -33 -17 -77 -19 -114 -5 -22 8 -26 16 -26 50
0 45 1 46 35 24 45 -30 99 27 69 74 -20 30 -14 59 21 108 45 61 91 92 158 106
47 10 55 14 36 19 -13 3 -43 0 -66 -7 -36 -10 -43 -10 -43 2 0 8 -8 14 -17 13
-11 0 -13 -3 -5 -6 14 -5 17 -33 3 -33 -13 0 -71 -56 -71 -70 0 -6 -4 -8 -10
-5 -9 5 -14 -8 -7 -19 1 -3 -9 -17 -23 -32 -14 -15 -19 -24 -12 -20 10 6 11 1
6 -19 -5 -19 -2 -30 11 -39 36 -26 -6 -77 -46 -56 -28 15 -33 51 -20 137 13
84 21 98 91 143 37 24 176 70 210 70 4 0 15 -20 24 -45 20 -50 57 -85 92 -85
22 0 44 -13 85 -52 16 -15 19 -15 31 0 8 10 9 13 1 9 -6 -4 -14 -3 -17 2 -4 5
-2 12 3 15 18 11 131 -122 131 -153 0 -8 -13 5 -28 30 -33 50 -59 75 -70 65
-4 -4 0 -13 8 -20 17 -13 34 -38 53 -76 11 -23 45 -35 48 -17 4 23 -13 66 -38
93 -63 69 -83 94 -108 135 -22 33 -24 41 -10 35 15 -5 16 -4 5 9 -7 8 -16 13
-19 10 -4 -2 -8 1 -9 8 0 7 -10 39 -22 72 -17 49 -20 53 -16 23 5 -41 5 -41
-18 -32 -17 7 -22 44 -6 44 6 0 10 14 10 31 0 17 -4 28 -10 24 -5 -3 -10 -14
-10 -25 0 -10 -7 -21 -15 -24 -12 -4 -14 -14 -10 -38 4 -18 8 -44 10 -58 13
-73 19 -89 34 -93 11 -3 10 -5 -5 -6 -33 -2 -71 34 -87 84 -22 64 -6 107 61
155 28 21 34 22 42 10 8 -13 10 -12 10 3 0 41 25 7 33 -44z m-86 -41 c-3 -8
-6 -5 -6 6 -1 11 2 17 5 13 3 -3 4 -12 1 -19z m37 -38 c20 -7 26 -17 26 -38 0
-17 12 -45 30 -67 32 -41 36 -50 20 -60 -6 -4 -25 8 -42 27 -17 18 -36 32 -42
30 -6 -1 -3 4 7 11 19 15 24 32 6 21 -8 -4 -9 0 -4 15 5 17 3 20 -11 14 -12
-4 -15 -3 -10 5 4 6 2 21 -4 32 -12 23 -11 24 24 10z m-986 -87 c-10 -2 -26
-2 -35 0 -10 3 -2 5 17 5 19 0 27 -2 18 -5z m994 -140 c65 -29 114 -77 144
-141 40 -84 43 -211 8 -323 -43 -135 -101 -227 -215 -340 -64 -63 -89 -81
-148 -103 -43 -17 -80 -39 -95 -57 -14 -16 -26 -29 -28 -29 -2 0 -4 30 -5 68
-4 100 -41 316 -73 427 -10 34 -22 102 -22 125 0 8 -4 34 -9 57 -13 62 -7 68
60 68 76 0 111 28 111 87 0 21 -5 38 -11 38 -16 0 -2 47 23 83 47 65 161 83
260 40z m-170 -949 c-3 -23 -7 -32 -12 -23 -10 15 -48 -7 -97 -58 -41 -42 -44
-67 -3 -28 35 34 40 20 7 -19 -27 -31 -53 -156 -43 -208 17 -89 94 -119 149
-58 15 16 27 41 27 55 0 28 21 33 40 10 17 -20 7 -91 -17 -117 -24 -28 -74
-48 -117 -48 -25 0 -45 9 -70 30 -49 44 -67 86 -56 135 5 22 14 90 21 152 12
110 13 113 49 148 30 30 91 62 120 65 4 0 4 -16 2 -36z m13 -44 c-3 -5 -12
-10 -18 -10 -7 0 -6 4 3 10 19 12 23 12 15 0z m-306 -446 c-11 -14 -5 -24 52
-77 103 -97 113 -152 38 -207 -117 -84 -396 -140 -704 -140 -404 0 -705 90
-705 210 0 36 25 59 33 31 3 -11 27 -34 53 -51 139 -88 484 -135 807 -111 203
15 328 40 423 85 90 43 114 77 89 127 -9 17 -19 28 -23 25 -3 -4 0 -12 6 -18
7 -7 12 -25 12 -40 0 -23 -9 -34 -47 -59 -120 -75 -325 -109 -643 -104 -239 3
-250 4 -404 36 -114 24 -187 50 -232 84 -46 35 -49 62 -11 97 18 16 50 47 73
70 l41 40 34 -34 c81 -83 231 -125 475 -135 167 -6 314 7 404 37 105 35 98 34
76 16 -15 -12 -16 -18 -8 -29 10 -11 2 -17 -41 -31 -106 -35 -242 -48 -427
-43 -194 6 -222 9 -328 38 -130 34 -191 77 -193 133 0 26 -2 27 -8 11 -27 -68
76 -135 274 -176 50 -10 107 -19 127 -19 20 0 44 -7 52 -16 9 -8 16 -11 16 -6
0 5 64 12 143 15 300 13 507 85 507 175 0 17 -4 34 -10 37 -6 4 -8 -5 -4 -22
6 -33 -30 -88 -52 -79 -7 3 -18 -3 -23 -12 -7 -13 -13 -14 -21 -5 -9 8 -6 15
14 28 15 10 24 20 22 23 -8 8 42 64 82 94 39 28 54 29 31 2z m-794 -113 c269
-28 505 -7 663 61 60 25 49 2 -16 -34 -84 -48 -217 -70 -422 -72 -216 -1 -348
23 -477 87 -71 34 -48 35 55 1 59 -20 136 -37 197 -43z"/>
<path d="M1178 2403 c18 -2 45 -2 60 0 15 2 0 4 -33 4 -33 0 -45 -2 -27 -4z"/>
<path d="M1145 2389 c-292 -16 -443 -40 -492 -79 l-24 -19 38 -19 c103 -52
371 -83 717 -83 355 0 604 40 624 100 3 9 -4 6 -17 -6 -25 -24 -110 -49 -191
-58 -211 -23 -539 -32 -623 -18 -28 4 -37 10 -32 20 4 12 -5 14 -52 9 -140
-15 -178 -17 -162 -6 52 32 574 38 762 9 87 -14 98 -5 15 11 -38 8 -178 14
-348 17 -240 3 -298 1 -365 -13 -103 -21 -154 -21 -243 0 -88 22 -106 38 -63
60 70 36 297 58 611 58 341 0 628 -29 673 -69 10 -10 17 -11 17 -5 0 22 -111
62 -172 62 -16 0 -28 5 -28 10 0 6 -5 10 -11 10 -5 0 -8 -4 -5 -9 3 -4 -13 -5
-37 0 -23 4 -125 10 -227 14 -102 3 -194 7 -205 9 -11 1 -83 -1 -160 -5z m-20
-169 c4 -7 -12 -10 -45 -9 -31 2 -46 5 -38 10 18 12 76 11 83 -1z"/>
<path d="M1340 2350 l-45 -7 37 -1 c31 -2 36 -5 31 -19 -4 -12 1 -9 15 7 21
24 23 24 36 7 12 -16 14 -16 20 -1 3 8 6 18 6 20 0 5 -44 3 -100 -6z"/>
<path d="M1031 2346 c2 -3 37 -6 77 -7 72 -2 72 -2 52 -21 -11 -10 -20 -24
-20 -30 0 -7 10 -1 21 11 17 18 29 22 56 18 21 -4 31 -2 27 4 -4 6 2 9 12 7
11 -1 20 2 22 7 1 6 -48 11 -125 13 -70 1 -125 1 -122 -2z"/>
<path d="M1500 2335 c0 -8 7 -15 15 -15 9 0 12 6 9 15 -4 8 -10 15 -15 15 -5
0 -9 -7 -9 -15z"/>
<path d="M1395 2330 c3 -5 8 -10 11 -10 2 0 4 5 4 10 0 6 -5 10 -11 10 -5 0
-7 -4 -4 -10z"/>
<path d="M1444 2329 c-3 -6 -1 -16 5 -22 8 -8 11 -5 11 11 0 24 -5 28 -16 11z"/>
<path d="M1650 2330 c13 -9 13 -11 0 -20 -39 -24 -44 -29 -39 -35 8 -7 71 36
77 53 2 8 -6 12 -25 12 -22 0 -25 -2 -13 -10z"/>
<path d="M1787 2316 c-4 -9 -18 -18 -32 -22 -14 -3 -25 -11 -25 -16 0 -6 16
-1 36 11 38 22 76 26 136 12 21 -5 36 -5 33 -1 -3 5 -29 11 -58 15 -28 3 -59
9 -68 11 -9 3 -19 -2 -22 -10z"/>
<path d="M1292 2308 c2 -6 10 -14 16 -16 7 -2 10 2 6 12 -7 18 -28 22 -22 4z"/>
<path d="M1595 2310 c-3 -5 -12 -7 -20 -3 -8 3 -15 3 -15 0 0 -13 28 -13 45
-1 10 8 14 14 8 14 -7 0 -14 -4 -18 -10z"/>
<path d="M1385 2300 c-2 -4 1 -7 8 -7 7 0 23 -3 36 -7 15 -5 21 -4 17 2 -7 12
-55 22 -61 12z"/>
<path d="M1490 2300 c0 -8 60 -23 67 -17 1 2 -13 8 -32 14 -19 6 -35 8 -35 3z"/>
<path d="M1283 2243 c-24 -2 -43 -8 -43 -12 0 -9 68 -6 78 3 3 3 13 -1 23 -10
16 -15 17 -14 12 5 -3 12 -10 20 -17 19 -6 -1 -30 -3 -53 -5z"/>
<path d="M1198 2233 c6 -2 18 -2 25 0 6 3 1 5 -13 5 -14 0 -19 -2 -12 -5z"/>
<path d="M1425 2230 c-3 -5 -1 -10 4 -10 6 0 11 5 11 10 0 6 -2 10 -4 10 -3 0
-8 -4 -11 -10z"/>
<path d="M940 2146 c0 -3 9 -10 20 -16 11 -6 20 -8 20 -6 0 3 -9 10 -20 16
-11 6 -20 8 -20 6z"/>
<path d="M995 2120 c-3 -6 1 -7 9 -4 18 7 21 14 7 14 -6 0 -13 -4 -16 -10z"/>
<path d="M1045 2121 c-16 -7 -13 -9 18 -13 21 -2 40 0 43 4 3 4 1 8 -5 8 -5 0
-15 2 -23 4 -7 3 -22 1 -33 -3z"/>
<path d="M890 2040 c8 -5 24 -10 35 -10 17 0 17 2 5 10 -8 5 -24 10 -35 10
-17 0 -17 -2 -5 -10z"/>
<path d="M980 2040 c-27 -4 -31 -7 -17 -13 10 -4 27 -3 37 3 13 7 21 6 30 -5
6 -7 18 -11 26 -8 8 3 21 0 29 -7 8 -7 24 -10 35 -7 11 3 35 1 55 -3 20 -4 35
-4 35 1 0 9 -3 10 -70 14 -61 4 -67 6 -45 15 14 7 9 8 -18 4 -20 -4 -43 -2
-50 3 -6 5 -28 6 -47 3z"/>
<path d="M821 2036 c2 -2 18 -6 34 -10 22 -5 26 -4 15 4 -14 9 -59 15 -49 6z"/>
<path d="M803 2000 c0 -19 2 -27 4 -17 3 11 11 16 19 13 8 -3 14 -1 14 4 0 6
-6 10 -14 10 -8 0 -16 6 -19 13 -2 6 -4 -4 -4 -23z"/>
<path d="M1440 2003 c-35 -15 -164 -14 -202 2 -11 4 -18 3 -18 -5 0 -6 5 -8
10 -5 6 3 10 2 10 -4 0 -15 216 -9 231 6 20 20 7 23 -31 6z"/>
<path d="M1544 2006 c22 -18 14 -21 -15 -6 -10 6 -19 7 -19 2 0 -5 -10 -14
-22 -21 l-23 -11 24 6 c13 3 61 3 108 -1 76 -6 83 -9 78 -26 -4 -13 -2 -19 9
-19 20 0 21 24 2 40 -8 6 -35 13 -59 14 -24 2 -57 11 -73 21 -22 13 -25 13
-10 1z"/>
<path d="M1710 1980 c-12 -8 -11 -10 8 -10 12 0 22 5 22 10 0 13 -11 13 -30 0z"/>
<path d="M820 1976 c0 -2 7 -7 16 -10 8 -3 12 -2 9 4 -6 10 -25 14 -25 6z"/>
<path d="M967 1954 c4 -11 8 -12 13 -4 8 14 30 5 30 -11 0 -6 -4 -8 -9 -5 -5
4 -11 1 -13 -5 -3 -8 -10 -5 -21 6 -10 9 -20 15 -23 12 -7 -7 46 -47 62 -47 8
0 14 -5 14 -12 0 -6 3 -8 6 -5 8 8 44 -31 44 -47 0 -6 4 -4 9 3 11 17 -24 55
-58 66 -18 5 -19 9 -8 26 10 16 9 21 -3 29 -25 16 -50 12 -43 -6z"/>
<path d="M805 1950 c3 -5 11 -10 16 -10 6 0 7 5 4 10 -3 6 -11 10 -16 10 -6 0
-7 -4 -4 -10z"/>
<path d="M1750 1945 c0 -8 4 -15 10 -15 5 0 7 7 4 15 -4 8 -8 15 -10 15 -2 0
-4 -7 -4 -15z"/>
<path d="M819 1930 c-17 -10 -15 -55 2 -66 12 -7 6 39 -6 48 -5 4 0 8 13 8 12
0 22 5 22 10 0 12 -10 12 -31 0z"/>
<path d="M1786 1914 c-7 -18 -8 -120 -2 -113 5 5 15 129 11 129 -2 0 -6 -7 -9
-16z"/>
<path d="M1715 1900 c-3 -5 -1 -10 4 -10 6 0 11 5 11 10 0 6 -2 10 -4 10 -3 0
-8 -4 -11 -10z"/>
<path d="M972 1883 c-10 -19 12 -51 23 -34 3 5 -1 12 -7 14 -10 4 -10 8 1 15
9 6 10 12 3 16 -6 4 -15 -1 -20 -11z"/>
<path d="M1680 1865 c0 -8 2 -15 4 -15 2 0 6 7 10 15 3 8 1 15 -4 15 -6 0 -10
-7 -10 -15z"/>
<path d="M808 1824 c4 -36 14 -38 19 -5 1 11 -3 24 -10 29 -10 9 -12 3 -9 -24z"/>
<path d="M955 1840 c-11 -18 -14 -50 -5 -50 5 0 6 -7 3 -17 -4 -10 -2 -14 4
-10 6 4 10 25 10 47 0 42 -2 47 -12 30z"/>
<path d="M1035 1839 c-9 -14 -2 -20 14 -10 8 6 9 11 3 15 -6 3 -14 1 -17 -5z"/>
<path d="M1101 1825 c-1 -16 -4 -41 -7 -55 l-6 -25 21 25 c22 27 28 21 10 -12
-8 -14 -8 -23 0 -29 6 -5 9 -6 7 -3 -3 3 0 17 5 31 7 19 6 30 -5 42 -8 9 -16
25 -19 36 -3 14 -5 11 -6 -10z"/>
<path d="M990 1791 c-6 -16 -10 -38 -7 -48 3 -12 5 -10 6 9 0 15 8 33 16 42
17 17 19 26 6 26 -5 0 -14 -13 -21 -29z"/>
<path d="M1780 1785 c0 -5 5 -17 10 -25 5 -8 10 -10 10 -5 0 6 -5 17 -10 25
-5 8 -10 11 -10 5z"/>
<path d="M1050 1769 c0 -7 -11 -9 -27 -5 -16 3 -22 3 -15 0 10 -5 10 -9 0 -22
-11 -14 -10 -15 7 -8 11 5 28 11 38 13 18 6 24 33 7 33 -5 0 -10 -5 -10 -11z"/>
<path d="M1825 1744 c-62 -17 -231 -44 -308 -48 -32 -2 -61 -7 -65 -11 -7 -7
106 -1 199 11 63 8 208 42 227 54 23 13 7 11 -53 -6z"/>
<path d="M1085 1720 c-3 -5 -1 -10 4 -10 6 0 11 5 11 10 0 6 -2 10 -4 10 -3 0
-8 -4 -11 -10z"/>
<path d="M783 1702 c20 -10 34 -21 31 -25 -4 -3 19 -18 50 -33 l55 -28 -4 -53
c-2 -30 -11 -64 -20 -76 -8 -12 -15 -26 -15 -32 1 -5 7 1 14 13 11 22 14 22
28 8 9 -8 19 -12 23 -8 5 4 5 -2 0 -13 -4 -11 -10 -28 -12 -37 -3 -10 -8 -16
-12 -13 -4 2 -5 -9 -3 -26 7 -44 35 -39 30 6 -2 19 -1 35 3 35 3 0 9 19 13 41
9 55 23 79 45 79 10 0 25 8 34 18 20 22 23 39 4 23 -10 -8 -17 -7 -27 2 -12
10 -12 9 -1 -5 12 -16 10 -19 -15 -28 -34 -13 -44 -26 -44 -59 0 -13 -3 -21
-7 -17 -8 8 -10 21 -15 100 l-3 49 -60 28 c-70 32 -68 34 17 14 82 -19 260
-45 295 -44 23 1 20 3 -12 10 -22 4 -57 8 -77 8 -21 1 -38 6 -38 12 0 7 15 10
40 7 51 -5 53 8 3 15 -25 3 -42 0 -49 -9 -16 -20 -52 -17 -64 6 -6 11 -21 20
-34 20 -13 0 -43 7 -66 15 -24 8 -45 13 -47 11 -6 -6 99 -41 114 -38 6 1 14
-2 18 -8 3 -5 0 -10 -7 -10 -12 0 -156 38 -203 54 -11 3 -3 -2 18 -12z m157
-193 c0 -6 -4 -7 -10 -4 -5 3 -10 11 -10 16 0 6 5 7 10 4 6 -3 10 -11 10 -16z"/>
<path d="M790 1643 c0 -18 -4 -43 -10 -57 -6 -16 -6 -34 0 -48 9 -23 10 -23 8
2 -1 14 4 44 11 68 11 32 12 45 3 54 -9 9 -12 5 -12 -19z"/>
<path d="M1154 1662 c5 -8 66 -4 66 4 0 2 -16 4 -36 4 -19 0 -33 -4 -30 -8z"/>
<path d="M1446 1661 c-6 -9 113 -5 122 4 3 3 -22 5 -56 5 -33 0 -63 -4 -66 -9z"/>
<path d="M1792 1644 c-12 -21 21 -114 44 -127 18 -10 18 -9 2 10 -10 11 -18
31 -18 46 0 14 -5 29 -11 33 -6 3 -8 17 -5 30 7 27 1 31 -12 8z"/>
<path d="M960 1600 c1 -21 2 -23 13 -10 7 8 26 17 42 18 44 6 42 9 -9 14 -43
3 -46 2 -46 -22z"/>
<path d="M1578 1613 c7 -3 16 -2 19 1 4 3 -2 6 -13 5 -11 0 -14 -3 -6 -6z"/>
<path d="M1839 1603 c-13 -16 -12 -17 4 -4 9 8 21 11 24 7 4 -4 1 -12 -7 -17
-13 -9 -13 -10 0 -6 17 4 20 29 4 34 -6 2 -17 -4 -25 -14z"/>
<path d="M1073 1595 c0 -8 4 -12 9 -9 4 3 8 9 8 15 0 5 -4 9 -8 9 -5 0 -9 -7
-9 -15z"/>
<path d="M1096 1585 c-12 -18 -13 -25 -4 -25 7 0 4 -9 -8 -21 -18 -18 -20 -27
-13 -72 5 -28 5 -54 1 -57 -4 -3 -8 -13 -10 -22 -3 -21 35 -63 41 -45 2 7 -3
17 -11 23 -12 9 -11 15 8 45 22 34 22 34 17 6 -3 -19 -1 -25 5 -19 16 16 4 47
-15 44 -15 -3 -17 4 -15 40 2 48 26 86 41 65 5 -8 6 -5 3 8 -8 30 5 43 49 48
33 3 31 4 -16 5 -50 2 -59 -1 -73 -23z m24 -10 c-7 -9 -15 -13 -17 -11 -7 7 7
26 19 26 6 0 6 -6 -2 -15z"/>
<path d="M1483 1603 c9 -2 25 -2 35 0 9 3 1 5 -18 5 -19 0 -27 -2 -17 -5z"/>
<path d="M1158 1553 c5 -21 7 -23 10 -9 2 10 0 22 -6 28 -6 6 -7 0 -4 -19z"/>
<path d="M1719 1533 c-13 -16 -12 -17 4 -4 9 7 17 15 17 17 0 8 -8 3 -21 -13z"/>
<path d="M1041 1524 c0 -11 3 -14 6 -6 3 7 2 16 -1 19 -3 4 -6 -2 -5 -13z"/>
<path d="M1003 1502 c0 -18 3 -29 6 -24 3 5 13 12 21 15 12 4 12 6 -2 6 -9 1
-18 9 -21 19 -2 9 -4 2 -4 -16z"/>
<path d="M1646 1495 c-22 -13 -41 -31 -42 -39 -1 -9 -40 -57 -85 -107 -67 -73
-87 -89 -103 -84 -12 4 -31 9 -44 12 -13 3 -21 10 -19 16 2 6 58 45 125 86 68
40 121 76 118 78 -2 2 -66 -34 -142 -81 -129 -79 -140 -84 -156 -69 -11 10
-18 12 -18 5 0 -7 5 -12 11 -12 6 0 9 -6 6 -13 -4 -10 5 -14 31 -15 72 -3 141
-40 110 -59 -8 -4 -24 -21 -36 -37 -42 -55 -194 -216 -204 -216 -5 0 -15 15
-23 33 -8 17 -14 25 -15 17 0 -8 9 -30 20 -48 l21 -34 29 37 c15 19 114 131
218 248 206 230 246 277 239 277 -4 0 -149 -162 -214 -239 -15 -17 -22 -21
-23 -11 0 8 17 33 38 55 75 81 204 225 200 225 -1 0 -21 -11 -42 -25z"/>
<path d="M1719 1503 c-13 -16 -12 -17 4 -4 9 7 17 15 17 17 0 8 -8 3 -21 -13z"/>
<path d="M1810 1495 c0 -8 5 -15 10 -15 6 0 10 7 10 15 0 8 -4 15 -10 15 -5 0
-10 -7 -10 -15z"/>
<path d="M742 1461 c-7 -19 -10 -36 -7 -39 6 -7 26 49 22 62 -2 6 -9 -5 -15
-23z"/>
<path d="M1696 1445 c-15 -20 -31 -33 -35 -30 -5 2 -17 -5 -27 -18 -19 -22
-19 -22 1 -5 15 12 23 13 31 4 8 -8 -4 -50 -46 -154 l-57 -143 -25 48 -25 48
75 93 c40 52 72 96 69 98 -2 3 -17 -12 -32 -31 -15 -20 -30 -34 -33 -31 -3 3
3 16 14 28 10 12 14 19 8 15 -5 -3 -32 -34 -58 -69 -44 -58 -45 -59 -7 -18 54
60 52 42 -4 -29 l-45 -58 27 -48 27 -49 -17 -80 c-18 -86 -46 -132 -108 -175
-29 -19 -30 -22 -9 -16 37 11 12 -10 -29 -24 -19 -6 -48 -10 -65 -10 l-31 2
35 7 35 8 -42 -1 c-23 0 -40 -4 -37 -9 8 -13 -25 -9 -55 7 -16 8 -31 11 -35 8
-3 -4 -6 -1 -6 6 0 8 8 10 23 6 17 -5 19 -4 7 4 -23 16 -25 15 -71 -46 -23
-32 -33 -49 -21 -39 12 11 22 15 22 9 0 -5 -9 -18 -20 -28 -11 -10 -20 -14
-20 -10 0 5 -10 -1 -22 -12 -13 -12 -32 -23 -43 -26 -18 -4 -18 -5 2 -6 12 0
32 9 44 22 18 18 21 19 15 3 -4 -13 -2 -17 8 -13 8 3 59 9 113 13 54 3 105 11
113 16 10 6 0 7 -30 4 -25 -3 -76 -8 -113 -12 -77 -7 -78 -5 -20 64 26 30 31
32 56 23 41 -16 132 -13 174 4 20 8 37 14 39 12 2 -1 -6 -21 -16 -44 -14 -32
-25 -42 -47 -46 -25 -4 -24 -4 7 -5 34 -2 35 -1 61 68 17 46 22 66 13 59 -8
-7 -17 -9 -20 -7 -3 3 9 16 26 28 36 26 67 82 76 141 4 23 47 141 95 261 48
120 86 218 84 218 -1 0 -15 -16 -29 -35z m-521 -665 c-10 -11 -20 -18 -23 -15
-3 3 3 14 13 25 10 11 20 18 23 15 3 -3 -3 -14 -13 -25z"/>
<path d="M1000 1456 c0 -2 7 -7 16 -10 8 -3 12 -2 9 4 -6 10 -25 14 -25 6z"/>
<path d="M1833 1433 c-9 -3 -13 -27 -13 -70 0 -79 10 -80 11 -2 1 30 6 60 11
67 11 13 10 13 -9 5z"/>
<path d="M732 1345 c-14 -75 -14 -103 -1 -60 11 33 23 125 17 125 -2 0 -9 -29
-16 -65z"/>
<path d="M886 1383 c16 -32 10 -140 -9 -161 -19 -20 -23 -37 -7 -27 6 4 20 25
31 47 16 31 19 51 14 84 -3 24 -10 46 -16 49 -5 4 -7 11 -4 16 4 5 1 9 -5 9
-8 0 -9 -6 -4 -17z"/>
<path d="M1299 1383 c-13 -15 -12 -15 11 -3 34 17 36 20 18 20 -9 0 -22 -7
-29 -17z"/>
<path d="M1350 1392 c0 -7 -16 -20 -35 -29 -19 -9 -35 -21 -35 -27 0 -5 3 -6
7 -3 3 4 16 -1 27 -10 21 -18 21 -18 2 4 -18 22 -18 22 7 28 24 6 43 32 32 43
-3 3 -5 0 -5 -6z"/>
<path d="M1007 1381 c8 -9 9 -21 3 -37 -11 -29 -9 -30 12 -5 15 18 15 21 -5
37 -12 10 -17 12 -10 5z"/>
<path d="M1102 1316 c-25 -43 -28 -93 -8 -122 13 -17 14 -14 12 36 -2 35 2 63
11 78 8 13 13 28 11 34 -2 6 -14 -5 -26 -26z"/>
<path d="M1746 1331 c-4 -7 -5 -15 -2 -18 9 -9 19 4 14 18 -4 11 -6 11 -12 0z"/>
<path d="M1807 1283 c-14 -13 -7 -43 10 -43 13 0 14 3 6 11 -6 6 -9 18 -6 25
5 15 1 18 -10 7z"/>
<path d="M747 1260 c-3 -11 -1 -20 4 -20 5 0 9 9 9 20 0 11 -2 20 -4 20 -2 0
-6 -9 -9 -20z"/>
<path d="M1117 1249 c4 -13 8 -18 11 -10 2 7 -1 18 -6 23 -8 8 -9 4 -5 -13z"/>
<path d="M1245 1253 c-35 -7 -98 -57 -119 -93 -19 -34 -18 -34 18 8 42 47 76
68 133 81 38 9 9 13 -32 4z"/>
<path d="M706 1219 c-8 -39 -6 -136 2 -167 4 -13 7 27 7 87 0 61 -1 111 -1
111 -1 0 -4 -14 -8 -31z"/>
<path d="M916 1241 c16 -15 108 -61 122 -61 9 0 11 -7 7 -22 -6 -22 -6 -22 14
2 11 14 16 27 11 28 -6 2 -10 12 -10 23 0 20 -15 26 -24 10 -4 -5 0 -12 6 -14
9 -4 8 -6 -2 -6 -8 -1 -36 10 -62 24 -47 25 -81 34 -62 16z"/>
<path d="M1288 1233 c7 -3 16 -2 19 1 4 3 -2 6 -13 5 -11 0 -14 -3 -6 -6z"/>
<path d="M1488 1213 c-48 -58 -89 -115 -70 -99 12 11 22 16 22 11 0 -12 -62
-86 -68 -81 -3 3 3 15 13 26 10 11 16 20 12 20 -3 0 -20 -19 -38 -42 -20 -26
-24 -35 -11 -24 12 11 22 15 22 9 0 -13 -35 -45 -42 -38 -2 3 -24 -17 -47 -44
-39 -47 -40 -51 -22 -61 11 -5 26 -10 33 -9 7 0 3 4 -10 9 -19 8 -21 13 -12
29 11 22 30 37 30 24 0 -5 -5 -14 -12 -21 -18 -18 -3 -25 53 -23 71 1 121 34
144 95 28 72 5 175 -31 145 -25 -21 -14 2 22 47 20 24 34 44 32 44 -3 0 -12
-8 -20 -17z m-2 -141 c6 -51 -24 -115 -66 -140 -30 -19 -120 -29 -120 -15 0 4
10 20 23 35 12 14 49 61 81 103 34 43 63 72 68 67 5 -5 11 -27 14 -50z m-166
-107 c-7 -9 -15 -13 -18 -10 -3 2 1 11 8 20 7 9 15 13 18 10 3 -2 -1 -11 -8
-20z"/>
<path d="M1820 1216 c0 -7 -3 -35 -6 -62 -4 -27 -3 -46 1 -42 9 9 19 118 11
118 -4 0 -6 -6 -6 -14z"/>
<path d="M903 1209 c-6 -6 -9 -18 -6 -27 4 -8 2 -13 -3 -10 -9 6 -12 -10 -12
-77 -1 -89 3 -155 10 -155 3 0 4 -8 1 -19 -3 -10 2 -32 11 -49 8 -16 13 -42
11 -58 -5 -28 -4 -28 10 -10 19 25 19 29 -5 76 -11 22 -16 40 -10 40 9 0 7 21
-5 86 -4 17 3 23 34 32 21 7 40 12 43 12 3 0 8 -41 11 -90 7 -96 0 -120 -47
-163 -10 -9 -16 -20 -13 -23 8 -8 57 45 57 62 0 8 4 14 9 14 6 0 11 -19 13
-43 l3 -43 52 57 53 57 -26 57 c-22 48 -26 67 -21 117 3 32 12 70 21 83 9 14
14 25 11 25 -7 0 -119 -72 -125 -80 -10 -15 -71 -41 -80 -35 -11 7 -11 64 0
80 7 9 21 95 16 95 -1 0 -7 -5 -13 -11z m160 -119 c-3 -11 -9 -20 -14 -20 -5
0 -9 -10 -8 -22 0 -22 1 -22 9 -3 7 15 9 9 10 -25 0 -25 9 -65 20 -89 11 -24
20 -45 20 -46 0 -2 -18 -23 -41 -47 l-41 -43 6 55 c4 37 2 50 -4 40 -7 -11
-10 -2 -11 33 -1 26 -2 53 -3 59 -2 20 32 21 37 1 3 -10 4 -7 4 8 -1 24 -4 26
-24 18 -21 -8 -23 -6 -23 22 0 17 6 32 15 35 8 3 17 14 20 25 9 26 35 25 28
-1z"/>
<path d="M1030 944 c0 -8 5 -12 10 -9 6 4 8 11 5 16 -9 14 -15 11 -15 -7z"/>
<path d="M1249 1197 c-36 -24 -79 -96 -79 -134 0 -13 7 -40 15 -59 l15 -35
103 118 c113 128 114 131 26 132 -32 1 -56 -6 -80 -22z m131 5 c0 -11 -171
-202 -181 -202 -14 0 -20 75 -9 105 13 35 57 84 85 95 26 11 105 12 105 2z"/>
<path d="M1203 1188 c-25 -28 -43 -62 -43 -80 1 -7 8 3 16 22 8 19 25 45 36
57 12 13 19 23 16 23 -2 0 -14 -10 -25 -22z"/>
<path d="M1092 1070 c0 -14 2 -19 5 -12 2 6 2 18 0 25 -3 6 -5 1 -5 -13z"/>
<path d="M1152 1065 c0 -16 2 -22 5 -12 2 9 2 23 0 30 -3 6 -5 -1 -5 -18z"/>
<path d="M1801 1073 c0 -10 4 -36 8 -58 8 -38 9 -38 10 -8 0 17 4 40 7 50 5
15 4 15 -5 3 -6 -8 -11 -10 -11 -4 0 5 5 15 12 22 9 9 8 12 -5 12 -10 0 -17
-7 -16 -17z"/>
<path d="M693 990 c0 -30 2 -43 4 -27 2 15 2 39 0 55 -2 15 -4 2 -4 -28z"/>
<path d="M1092 1000 c0 -19 2 -27 5 -17 2 9 2 25 0 35 -3 9 -5 1 -5 -18z"/>
<path d="M1505 1001 c-14 -63 -69 -106 -154 -121 -42 -7 -43 -8 -11 -9 47 -1
110 29 143 68 27 32 44 77 34 87 -3 3 -8 -8 -12 -25z"/>
<path d="M1670 990 c0 -5 5 -10 10 -10 6 0 10 5 10 10 0 6 -4 10 -10 10 -5 0
-10 -4 -10 -10z"/>
<path d="M1791 964 c0 -11 3 -14 6 -6 3 7 2 16 -1 19 -3 4 -6 -2 -5 -13z"/>
<path d="M1100 955 c0 -5 9 -25 20 -43 l20 -32 -41 -45 c-23 -25 -38 -45 -33
-44 5 0 26 20 47 44 l37 42 -25 44 c-14 24 -25 40 -25 34z"/>
<path d="M1770 934 c0 -10 5 -26 10 -34 7 -11 8 -8 6 13 -3 32 -16 49 -16 21z"/>
<path d="M696 915 c-3 -8 -1 -15 4 -15 6 0 10 7 10 15 0 8 -2 15 -4 15 -2 0
-6 -7 -10 -15z"/>
<path d="M1657 916 c-7 -16 1 -26 20 -26 7 0 13 9 13 20 0 23 -25 27 -33 6z"/>
<path d="M1725 909 c-6 -9 20 -30 28 -22 12 12 7 30 -8 30 -9 0 -18 -4 -20 -8z"/>
<path d="M728 860 c11 -20 18 -25 20 -15 2 8 -3 22 -12 30 -23 24 -27 18 -8
-15z"/>
<path d="M1710 876 c0 -9 5 -16 10 -16 6 0 10 4 10 9 0 6 -4 13 -10 16 -5 3
-10 -1 -10 -9z"/>
<path d="M946 867 c3 -10 9 -15 12 -12 3 3 0 11 -7 18 -10 9 -11 8 -5 -6z"/>
<path d="M1590 860 c0 -5 4 -10 9 -10 6 0 13 5 16 10 3 6 -1 10 -9 10 -9 0
-16 -4 -16 -10z"/>
<path d="M1703 819 c-18 -16 -33 -32 -33 -35 0 -9 58 40 64 54 8 17 5 16 -31
-19z"/>
<path d="M1646 800 c-24 -62 -18 -71 9 -15 28 57 28 55 16 55 -5 0 -16 -18
-25 -40z"/>
<path d="M769 788 c4 -28 6 -29 9 -9 2 13 0 27 -5 32 -6 6 -7 -3 -4 -23z"/>
<path d="M1248 813 c7 -3 16 -2 19 1 4 3 -2 6 -13 5 -11 0 -14 -3 -6 -6z"/>
<path d="M1600 791 c0 -6 5 -13 10 -16 6 -3 10 1 10 9 0 9 -4 16 -10 16 -5 0
-10 -4 -10 -9z"/>
<path d="M1036 764 c-5 -14 -4 -15 9 -4 17 14 19 20 6 20 -5 0 -12 -7 -15 -16z"/>
<path d="M796 753 c-5 -5 103 -60 161 -83 17 -6 36 -9 42 -6 5 4 14 0 18 -9 6
-10 29 -16 68 -19 l60 -4 -60 12 c-50 10 -61 15 -63 34 -4 25 -22 31 -22 7 0
-22 -13 -19 -110 29 -49 24 -92 41 -94 39z"/>
<path d="M997 729 c6 -23 9 -24 16 -5 3 8 0 17 -7 19 -10 4 -12 -1 -9 -14z"/>
<path d="M1597 736 c-4 -10 -1 -13 8 -9 8 3 12 9 9 14 -7 12 -11 11 -17 -5z"/>
<path d="M1497 724 c-3 -3 -3 -12 -1 -19 4 -8 -6 -16 -24 -20 -17 -3 -32 -14
-35 -25 -3 -13 0 -17 9 -13 8 3 11 9 8 14 -3 5 0 10 5 10 21 3 26 5 49 19 24
16 30 40 9 40 -8 0 -16 -3 -20 -6z"/>
<path d="M1356 685 c7 -17 20 -20 28 -6 3 5 -1 12 -10 15 -22 9 -24 8 -18 -9z"/>
<path d="M1319 647 c-9 -7 -47 -14 -85 -15 -95 -5 -96 -13 -1 -11 60 1 80 6
93 20 20 22 16 24 -7 6z"/>
<path d="M1364 650 c-12 -5 -25 -13 -28 -19 -4 -6 8 -4 26 3 18 7 39 11 47 8
8 -3 11 0 7 7 -8 13 -22 13 -52 1z"/>
<path d="M2178 2193 c7 -3 16 -2 19 1 4 3 -2 6 -13 5 -11 0 -14 -3 -6 -6z"/>
<path d="M2138 2183 c7 -3 16 -2 19 1 4 3 -2 6 -13 5 -11 0 -14 -3 -6 -6z"/>
<path d="M2010 2127 c-45 -41 -68 -83 -53 -98 8 -8 16 -8 30 1 16 10 16 11 -4
7 -14 -3 -23 0 -23 6 0 14 49 73 59 70 3 0 14 10 24 23 25 34 8 30 -33 -9z"/>
<path d="M2457 2025 c-4 -8 -2 -17 3 -20 6 -4 10 -4 10 -1 0 2 3 11 6 20 3 9
2 16 -4 16 -5 0 -12 -7 -15 -15z"/>
<path d="M1941 1992 c0 -12 5 -38 13 -57 11 -25 11 -35 3 -39 -7 -2 -4 -5 6
-5 21 -1 21 -1 3 46 -8 21 -17 47 -19 58 -4 18 -5 17 -6 -3z"/>
<path d="M2568 1873 c7 -3 16 -2 19 1 4 3 -2 6 -13 5 -11 0 -14 -3 -6 -6z"/>
<path d="M2570 1840 c0 -5 5 -10 10 -10 6 0 10 5 10 10 0 6 -4 10 -10 10 -5 0
-10 -4 -10 -10z"/>
<path d="M2589 1763 c2 -34 6 -50 10 -40 8 21 2 97 -8 97 -3 0 -4 -26 -2 -57z"/>
<path d="M2575 1580 c-4 -12 -5 -24 -2 -27 3 -2 8 5 12 17 4 12 5 24 2 27 -3
2 -8 -5 -12 -17z"/>
<path d="M2605 1568 c-9 -45 -66 -168 -77 -168 -5 0 -6 -5 -3 -11 4 -6 0 -16
-8 -22 -9 -7 -25 -31 -37 -54 -12 -23 -28 -47 -36 -54 -8 -6 -14 -18 -14 -25
0 -8 -4 -14 -8 -14 -5 0 -15 -12 -23 -27 -8 -16 -22 -34 -32 -41 -11 -9 -16
-21 -12 -33 5 -14 2 -19 -11 -19 -21 0 -74 -48 -74 -67 0 -8 -4 -12 -8 -9 -5
3 -15 -3 -23 -12 -8 -9 -26 -26 -40 -37 -14 -11 -39 -40 -57 -64 -27 -37 -31
-51 -30 -98 1 -30 6 -57 11 -60 6 -4 7 -1 2 7 -5 8 -3 11 6 8 8 -3 15 -14 17
-26 2 -13 8 -19 17 -16 11 5 8 12 -10 32 -54 58 -41 118 40 187 57 49 85 76
106 101 9 10 26 26 37 34 12 9 47 54 78 100 32 47 61 87 66 88 4 2 8 10 8 18
0 7 20 46 44 86 42 68 95 212 83 224 -3 3 -8 -10 -12 -28z"/>
<path d="M2556 1524 c-4 -9 -4 -19 -1 -22 2 -3 7 3 11 12 4 9 4 19 1 22 -2 3
-7 -3 -11 -12z"/>
<path d="M2523 1453 c-3 -10 -8 -22 -10 -28 -3 -5 3 -1 11 9 16 20 21 36 11
36 -3 0 -8 -8 -12 -17z"/>
<path d="M2091 874 c0 -11 3 -14 6 -6 3 7 2 16 -1 19 -3 4 -6 -2 -5 -13z"/>
<path d="M2098 1030 c-18 -16 -28 -30 -21 -30 6 0 18 8 25 18 7 10 22 24 33
30 11 6 14 12 8 12 -7 0 -27 -13 -45 -30z"/>
<path d="M2250 691 c0 -11 -6 -22 -12 -24 -8 -3 -6 -6 5 -6 12 -1 17 7 17 24
0 14 -2 25 -5 25 -3 0 -5 -9 -5 -19z"/>
<path d="M1901 505 c-1 -11 -8 -29 -16 -39 -8 -11 -15 -25 -15 -30 0 -6 10 3
21 21 11 18 18 40 16 50 -4 16 -5 15 -6 -2z"/>
<path d="M696 464 c-20 -19 -21 -31 -2 -15 11 9 15 9 19 -1 3 -7 4 -3 4 10 -1
26 -1 26 -21 6z"/>
<path d="M821 477 c2 -1 13 -9 24 -17 19 -14 19 -14 6 3 -7 9 -18 17 -24 17
-6 0 -8 -1 -6 -3z"/>
<path d="M680 414 c0 -10 5 -26 10 -34 7 -11 8 -8 6 13 -3 32 -16 49 -16 21z"/>
<path d="M911 415 c15 -8 46 -17 70 -20 l44 -5 -35 11 c-19 6 -39 15 -44 20
-6 5 -21 9 -35 9 l-26 -1 26 -14z"/>
<path d="M1816 409 c-16 -10 -34 -15 -39 -12 -6 3 -7 1 -3 -5 10 -17 27 -15
59 7 38 24 21 34 -17 10z"/>
<path d="M897 371 c23 -11 63 -22 90 -25 l48 -5 -40 10 c-22 5 -56 15 -75 21
-61 19 -66 19 -23 -1z"/>
<path d="M761 371 c-1 -9 -9 -11 -28 -7 l-28 5 25 -10 c14 -6 34 -15 45 -20
20 -8 92 -28 128 -35 10 -2 26 -6 35 -8 9 -3 44 -8 78 -10 59 -4 96 5 81 21
-5 4 -11 2 -15 -4 -5 -8 -23 -9 -52 -5 l-45 7 40 6 c38 6 38 6 -15 8 -38 1
-75 10 -119 31 -35 17 -66 28 -69 25 -3 -3 0 -5 7 -5 7 0 9 -4 6 -10 -3 -5 0
-10 8 -10 8 0 34 -9 58 -20 43 -21 44 -21 9 -15 -80 15 -139 37 -143 53 -3 10
-5 11 -6 3z"/>
<path d="M1992 335 c-11 -14 -25 -25 -31 -25 -6 0 -11 -5 -11 -11 0 -16 39 11
58 39 20 30 8 28 -16 -3z"/>
<path d="M1058 333 c7 -3 16 -2 19 1 4 3 -2 6 -13 5 -11 0 -14 -3 -6 -6z"/>
<path d="M1470 319 c-22 -6 -20 -7 13 -8 20 -1 37 3 37 7 0 10 -17 11 -50 1z"/>
<path d="M1319 309 c14 -5 28 -6 32 -2 4 4 -6 9 -24 10 -30 1 -31 1 -8 -8z"/>
<path d="M1370 289 c0 -21 3 -21 86 -16 50 3 90 10 97 17 10 10 8 11 -8 5 -27
-10 -145 -16 -159 -8 -6 4 0 10 14 14 l25 7 -27 1 c-22 1 -28 -3 -28 -20z"/>
<path d="M1110 286 c0 -2 7 -7 16 -10 8 -3 12 -2 9 4 -6 10 -25 14 -25 6z"/>
<path d="M1888 269 c-39 -20 -51 -33 -20 -22 26 10 78 43 67 43 -5 -1 -27 -10
-47 -21z"/>
<path d="M704 265 c15 -8 33 -15 40 -15 16 1 -36 29 -54 30 -8 0 -2 -7 14 -15z"/>
<path d="M1208 273 c28 -2 76 -2 105 0 28 2 5 3 -53 3 -58 0 -81 -1 -52 -3z"/>
<path d="M760 248 c3 -3 21 -10 40 -17 19 -6 30 -7 25 -2 -6 5 -23 13 -40 17
-16 4 -28 5 -25 2z"/>
<path d="M870 234 l25 -15 -30 6 c-19 4 -26 3 -20 -3 12 -12 188 -42 236 -41
21 0 0 8 -55 19 -48 10 -106 26 -127 34 -49 20 -62 20 -29 0z"/>
<path d="M1318 198 c5 -5 16 -8 23 -6 8 3 3 7 -10 11 -17 4 -21 3 -13 -5z"/>
<path d="M1638 193 c7 -3 16 -2 19 1 4 3 -2 6 -13 5 -11 0 -14 -3 -6 -6z"/>
<path d="M1260 180 l-105 -6 144 -2 c79 -1 142 0 140 2 -10 9 -83 11 -179 6z"/>
<path d="M1475 180 c-16 -7 -17 -9 -3 -9 9 -1 20 4 23 9 7 11 7 11 -20 0z"/>
<path d="M1558 183 c6 -2 18 -2 25 0 6 3 1 5 -13 5 -14 0 -19 -2 -12 -5z"/>
</g>
</svg>
