<?xml version="1.0" standalone="no"?>
<!DOCTYPE svg PUBLIC "-//W3C//DTD SVG 20010904//EN"
 "http://www.w3.org/TR/2001/REC-SVG-20010904/DTD/svg10.dtd">
<svg version="1.0" xmlns="http://www.w3.org/2000/svg"
 width="675.000000pt" height="675.000000pt" viewBox="0 0 675.000000 675.000000"
 preserveAspectRatio="xMidYMid meet">
<metadata>
Created by potrace 1.10, written by Peter Selinger 2001-2011
</metadata>
<g transform="translate(0.000000,675.000000) scale(0.100000,-0.100000)"
fill="#000000" stroke="none">
<path d="M2855 6690 c-11 -5 -43 -9 -71 -9 -28 -1 -71 -8 -94 -16 -23 -8 -59
-15 -79 -15 -20 -1 -47 -7 -61 -15 -14 -8 -38 -15 -55 -15 -16 0 -41 -7 -55
-15 -14 -8 -39 -14 -56 -15 -16 0 -39 -7 -50 -15 -10 -8 -31 -15 -45 -15 -14
0 -34 -7 -45 -15 -10 -8 -28 -15 -40 -15 -11 0 -29 -7 -40 -15 -10 -8 -29 -15
-40 -15 -12 0 -27 -7 -34 -15 -7 -8 -23 -15 -35 -15 -12 0 -28 -7 -35 -15 -7
-8 -19 -15 -27 -15 -13 0 -48 -15 -93 -41 -8 -5 -22 -12 -30 -15 -8 -3 -22
-10 -30 -15 -8 -5 -22 -12 -30 -15 -8 -3 -22 -9 -30 -14 -8 -5 -39 -21 -67
-35 -29 -14 -53 -30 -53 -35 0 -6 -7 -10 -16 -10 -9 0 -33 -13 -54 -30 -21
-16 -40 -30 -44 -30 -3 0 -40 -24 -81 -52 -42 -29 -85 -58 -97 -65 -11 -6 -23
-15 -27 -20 -3 -5 -35 -31 -71 -58 -88 -66 -133 -108 -280 -255 -136 -137
-250 -262 -250 -277 0 -5 -8 -16 -18 -24 -23 -21 -65 -70 -77 -91 -5 -9 -34
-51 -63 -93 -28 -41 -52 -78 -52 -81 0 -4 -13 -23 -30 -44 -16 -21 -30 -45
-30 -54 0 -9 -4 -16 -10 -16 -5 0 -21 -24 -35 -52 -14 -29 -31 -62 -37 -73
-19 -34 -27 -49 -47 -90 -61 -126 -81 -172 -81 -186 0 -9 -7 -22 -15 -29 -8
-7 -15 -22 -15 -34 0 -11 -7 -30 -15 -40 -8 -11 -15 -30 -15 -42 0 -12 -6 -35
-14 -51 -18 -37 -36 -90 -45 -133 -4 -19 -13 -45 -19 -57 -7 -12 -12 -34 -12
-50 -1 -15 -7 -39 -15 -53 -8 -14 -14 -44 -15 -68 0 -24 -5 -53 -12 -65 -16
-31 -29 -139 -35 -301 -5 -145 2 -229 17 -191 4 11 10 56 14 100 8 90 42 311
51 325 3 4 12 47 20 94 8 47 24 114 34 148 11 35 27 88 36 118 52 181 193 515
256 608 16 23 29 47 29 52 0 5 14 29 30 53 17 25 30 48 30 52 0 4 14 24 30 45
17 21 30 41 30 44 0 8 170 235 225 301 72 86 309 325 374 378 143 116 331 255
409 302 10 6 36 22 60 38 24 15 48 27 54 27 6 0 19 6 27 14 32 27 319 166 343
166 8 0 18 4 24 9 11 12 63 31 209 77 171 54 195 61 275 78 241 52 310 65 430
76 130 13 162 19 154 31 -7 11 -312 11 -339 -1z"/>
<path d="M3536 6691 c-9 -14 14 -19 144 -30 123 -11 194 -22 300 -46 36 -8 99
-21 140 -30 41 -9 95 -23 120 -31 25 -7 77 -23 115 -34 140 -41 277 -95 407
-161 32 -16 64 -29 70 -29 7 0 24 -9 38 -20 14 -11 33 -20 42 -20 9 0 29 -11
44 -25 15 -14 33 -25 39 -25 12 0 101 -55 132 -80 7 -6 30 -20 50 -32 21 -13
44 -28 52 -36 8 -7 26 -21 40 -30 40 -24 210 -153 255 -192 66 -58 299 -292
338 -340 20 -25 52 -65 72 -90 19 -25 41 -52 48 -60 34 -39 108 -141 108 -148
0 -4 13 -23 30 -42 16 -19 29 -39 30 -44 0 -4 14 -25 30 -46 17 -21 30 -45 30
-53 0 -8 7 -21 17 -28 14 -12 80 -143 187 -372 35 -75 111 -300 137 -402 10
-44 26 -102 34 -130 7 -27 21 -88 29 -135 43 -243 55 -320 61 -372 4 -32 11
-61 17 -64 6 -4 8 51 4 167 -6 200 -16 305 -34 336 -7 12 -12 38 -12 58 0 19
-7 52 -15 72 -8 19 -15 50 -15 67 0 18 -7 41 -15 52 -8 10 -15 31 -15 45 0 14
-7 34 -15 45 -8 10 -15 31 -15 45 0 14 -7 34 -15 45 -8 10 -15 31 -15 45 0 14
-7 34 -15 45 -8 10 -15 27 -15 36 0 14 -16 52 -42 98 -4 8 -11 22 -14 30 -10
27 -36 85 -45 100 -5 8 -12 22 -15 30 -3 8 -10 22 -15 30 -5 8 -12 22 -15 30
-3 8 -10 22 -15 30 -5 8 -14 26 -20 40 -6 14 -21 39 -35 57 -13 17 -24 39 -24
48 0 8 -7 18 -15 21 -8 4 -15 11 -15 17 0 19 -189 291 -224 322 -6 6 -20 24
-30 40 -56 88 -384 409 -536 525 -25 19 -47 37 -50 40 -13 14 -199 140 -206
140 -3 0 -23 14 -44 30 -21 17 -45 30 -53 30 -9 0 -20 6 -24 13 -4 7 -28 23
-53 36 -53 26 -68 34 -95 49 -11 7 -26 14 -32 17 -7 3 -19 7 -25 10 -7 3 -20
9 -28 14 -45 26 -80 41 -93 41 -8 0 -20 7 -27 15 -7 8 -21 15 -30 15 -10 0
-33 8 -52 17 -18 9 -45 22 -60 30 -14 7 -34 13 -45 13 -10 0 -27 7 -37 15 -11
8 -31 15 -45 15 -14 0 -35 7 -45 15 -11 8 -34 15 -50 15 -17 1 -42 7 -56 15
-14 8 -38 15 -55 15 -16 0 -41 7 -55 15 -14 8 -42 14 -63 15 -21 0 -48 5 -60
12 -32 17 -150 29 -344 34 -107 3 -173 2 -177 -5z"/>
<path d="M3075 6608 c-27 -5 -93 -13 -145 -17 -52 -4 -108 -13 -123 -19 -16
-7 -47 -12 -70 -12 -23 0 -55 -7 -71 -15 -15 -8 -47 -15 -71 -15 -26 0 -47 -6
-55 -15 -7 -8 -29 -15 -49 -15 -21 0 -46 -7 -57 -15 -10 -8 -35 -15 -55 -15
-20 0 -42 -7 -49 -15 -7 -8 -25 -15 -40 -15 -15 0 -33 -7 -40 -15 -7 -8 -25
-15 -40 -15 -15 0 -33 -7 -40 -15 -7 -8 -23 -15 -36 -15 -12 0 -29 -7 -38 -15
-8 -8 -23 -15 -33 -15 -11 0 -28 -7 -39 -15 -10 -8 -27 -15 -37 -15 -10 0 -20
-7 -23 -15 -4 -8 -17 -15 -29 -15 -13 0 -30 -7 -39 -15 -8 -8 -19 -15 -24 -15
-5 0 -15 -7 -22 -15 -7 -8 -23 -15 -35 -15 -13 0 -25 -7 -29 -15 -3 -8 -14
-15 -25 -15 -11 0 -23 -5 -26 -11 -4 -5 -17 -15 -28 -20 -12 -5 -35 -18 -52
-29 -16 -11 -40 -24 -52 -30 -13 -5 -23 -14 -23 -19 0 -5 -8 -12 -17 -15 -35
-13 -73 -37 -73 -47 0 -5 -4 -9 -10 -9 -5 0 -18 -7 -27 -16 -10 -8 -46 -37
-79 -63 -34 -27 -68 -53 -75 -60 -8 -6 -32 -26 -54 -43 -53 -43 -145 -130
-209 -197 -28 -29 -74 -76 -101 -105 -28 -28 -66 -72 -84 -98 -19 -27 -38 -48
-43 -48 -4 0 -8 -4 -8 -9 0 -6 -14 -25 -30 -43 -17 -18 -30 -38 -30 -46 0 -7
-7 -15 -15 -18 -8 -4 -15 -12 -15 -20 0 -8 -5 -14 -10 -14 -6 0 -15 -10 -20
-22 -15 -34 -33 -62 -47 -71 -7 -4 -13 -17 -13 -27 0 -11 -5 -20 -10 -20 -6 0
-15 -10 -21 -22 -15 -34 -35 -68 -48 -81 -6 -6 -11 -19 -11 -28 0 -9 -7 -19
-15 -23 -8 -3 -15 -16 -15 -30 0 -13 -7 -26 -15 -30 -8 -3 -15 -13 -15 -21 0
-9 -7 -23 -15 -31 -8 -9 -15 -24 -15 -33 0 -10 -7 -24 -15 -31 -8 -7 -15 -20
-15 -30 0 -10 -7 -23 -15 -30 -8 -7 -15 -23 -15 -35 0 -12 -7 -28 -15 -35 -8
-7 -15 -25 -15 -40 0 -15 -7 -33 -15 -40 -8 -7 -15 -25 -15 -40 0 -15 -7 -33
-15 -40 -8 -7 -15 -27 -15 -45 0 -18 -7 -38 -15 -45 -8 -7 -15 -27 -15 -44 0
-17 -7 -40 -15 -50 -8 -11 -15 -36 -15 -57 0 -20 -7 -42 -15 -49 -9 -8 -15
-30 -15 -59 -1 -25 -7 -57 -15 -71 -8 -14 -14 -48 -15 -75 0 -28 -6 -57 -12
-63 -8 -8 -16 -56 -20 -120 -3 -59 -11 -129 -17 -157 -13 -63 -13 -472 0 -545
5 -30 13 -102 17 -160 5 -58 13 -115 20 -127 7 -12 12 -43 12 -70 1 -26 7 -59
15 -73 8 -14 14 -46 15 -72 0 -28 6 -53 15 -62 8 -8 15 -30 15 -49 0 -19 7
-40 15 -47 8 -7 15 -29 15 -49 0 -21 7 -46 15 -57 8 -10 15 -31 15 -45 0 -15
7 -32 15 -39 8 -7 15 -25 15 -40 0 -15 7 -33 15 -40 8 -7 15 -23 15 -36 0 -12
7 -29 15 -38 8 -8 15 -23 15 -34 0 -11 7 -25 15 -32 8 -7 15 -23 15 -37 0 -13
7 -26 15 -29 8 -4 15 -16 15 -29 0 -12 7 -28 15 -35 8 -7 15 -18 15 -25 0 -7
7 -18 15 -25 8 -7 15 -23 15 -35 0 -13 7 -25 15 -29 8 -3 15 -14 15 -25 0 -11
5 -23 11 -26 5 -4 15 -17 20 -28 13 -30 30 -56 59 -97 25 -35 44 -64 56 -88 4
-8 20 -28 35 -45 16 -17 32 -40 35 -49 3 -10 10 -18 15 -18 5 0 9 -7 9 -15 0
-9 7 -18 15 -21 8 -4 15 -12 15 -20 0 -8 4 -14 8 -14 4 0 24 -21 44 -48 20
-26 57 -69 82 -96 25 -26 46 -50 46 -52 0 -10 200 -199 285 -269 27 -22 57
-48 67 -57 10 -10 20 -18 22 -18 3 0 20 -13 38 -30 18 -16 38 -30 45 -30 6 0
16 -6 20 -13 9 -14 40 -35 65 -43 9 -3 19 -12 22 -20 3 -8 12 -14 21 -14 8 0
15 -5 15 -10 0 -6 10 -15 23 -20 12 -6 36 -19 52 -30 17 -11 40 -24 52 -30 13
-5 23 -14 23 -20 0 -5 11 -10 24 -10 13 0 29 -7 36 -15 7 -8 18 -15 25 -15 7
0 18 -7 25 -15 7 -8 23 -15 35 -15 13 0 25 -7 29 -15 3 -8 14 -15 24 -15 11 0
25 -7 32 -15 7 -8 23 -15 35 -15 13 0 25 -7 29 -15 3 -8 16 -15 28 -15 13 0
32 -7 42 -15 11 -8 28 -15 39 -15 10 0 25 -7 33 -15 9 -8 27 -15 42 -15 15 0
36 -7 46 -15 11 -8 33 -15 49 -15 15 0 35 -7 43 -15 9 -8 27 -15 42 -15 15 0
36 -7 46 -15 11 -8 34 -15 52 -15 17 0 45 -7 60 -15 16 -8 43 -15 60 -15 18 0
45 -7 60 -15 16 -8 53 -15 82 -15 29 0 63 -5 75 -12 12 -7 67 -15 122 -20 55
-4 125 -12 155 -17 72 -13 471 -13 535 0 28 6 93 13 145 18 52 4 105 12 117
19 12 7 46 12 75 12 29 1 64 7 78 15 14 8 46 14 71 15 25 0 54 7 65 15 10 8
35 15 55 15 19 0 44 7 55 15 10 8 31 15 45 15 14 0 34 7 45 15 10 8 31 15 45
15 14 0 34 7 45 15 10 8 31 15 45 15 15 0 32 7 39 15 7 8 23 15 36 15 12 0 29
7 38 15 8 8 23 15 34 15 11 0 25 7 32 15 7 8 20 15 30 15 10 0 23 7 30 15 7 8
23 15 35 15 13 0 25 7 29 15 3 8 17 15 31 15 14 0 28 7 31 15 4 8 12 15 19 15
7 0 18 7 25 15 7 8 23 15 37 15 13 0 26 6 29 14 3 8 16 17 30 20 13 4 24 11
24 16 0 6 9 10 20 10 11 0 20 5 20 10 0 6 10 15 23 20 33 15 61 33 70 48 4 6
12 12 18 12 10 0 205 144 224 165 6 6 30 27 55 46 60 45 317 302 360 359 18
25 39 50 45 55 21 19 165 214 165 224 0 6 6 14 13 18 14 9 32 37 47 71 5 12
13 22 17 22 5 0 17 19 28 43 11 23 25 46 32 50 7 4 13 19 13 31 0 13 7 26 15
30 8 3 15 12 15 19 0 8 7 20 15 27 8 7 15 23 15 35 0 13 7 25 15 29 8 3 15 16
15 30 0 13 7 26 15 30 8 3 15 16 15 29 0 14 7 30 15 37 8 7 15 20 15 29 0 9 7
25 15 35 8 11 15 30 15 42 0 12 7 27 15 34 8 7 15 24 15 39 0 14 7 35 15 45 8
11 15 31 15 45 0 14 7 35 15 45 8 11 15 31 15 45 0 14 7 35 15 45 8 11 15 37
15 59 0 21 7 45 15 53 8 9 15 33 15 54 0 21 7 51 15 66 8 16 15 53 15 82 0 29
5 63 12 75 7 12 15 65 19 117 4 52 12 115 18 140 13 57 13 486 0 560 -6 30
-14 98 -18 150 -4 52 -12 105 -19 117 -7 12 -12 46 -12 75 0 29 -7 66 -15 82
-8 15 -15 45 -15 65 0 21 -7 46 -15 57 -8 10 -15 35 -15 55 0 19 -7 44 -15 55
-8 10 -15 33 -15 50 0 17 -7 37 -15 44 -8 7 -15 25 -15 39 0 15 -7 36 -15 47
-8 10 -15 31 -15 45 0 15 -7 32 -15 39 -8 7 -15 23 -15 35 0 12 -7 28 -15 35
-8 7 -15 20 -15 30 0 10 -7 23 -15 30 -8 7 -15 23 -15 35 0 12 -7 28 -15 35
-8 7 -15 20 -15 30 0 10 -7 23 -15 30 -8 7 -15 21 -15 31 0 9 -7 24 -15 33 -8
8 -15 22 -15 31 0 8 -7 18 -15 21 -8 4 -15 17 -15 30 0 13 -5 24 -10 24 -6 0
-15 10 -20 23 -6 12 -19 36 -30 52 -11 17 -24 39 -30 50 -18 36 -35 60 -47 68
-7 4 -13 13 -13 18 0 11 -115 168 -136 185 -8 6 -14 16 -14 23 0 6 -4 11 -8
11 -5 0 -23 20 -41 45 -41 57 -311 330 -371 375 -25 18 -49 38 -55 45 -14 15
-132 105 -139 105 -2 0 -20 14 -38 30 -18 17 -36 30 -41 30 -5 0 -26 14 -47
30 -21 17 -43 30 -49 30 -7 0 -14 7 -17 15 -4 8 -14 15 -24 15 -10 0 -20 7
-24 15 -3 8 -14 15 -24 15 -11 0 -25 7 -32 15 -7 8 -18 15 -25 15 -7 0 -18 7
-25 15 -7 8 -23 15 -35 15 -13 0 -25 7 -29 15 -3 8 -14 15 -25 15 -10 0 -21 7
-25 15 -3 8 -17 15 -31 15 -14 0 -28 7 -31 15 -4 8 -16 15 -29 15 -12 0 -28 7
-35 15 -7 8 -23 15 -35 15 -12 0 -28 7 -35 15 -7 8 -22 15 -34 15 -11 0 -30 7
-40 15 -11 8 -29 15 -40 15 -12 0 -30 7 -40 15 -11 8 -32 15 -47 15 -14 0 -32
7 -39 15 -7 8 -29 15 -50 15 -21 0 -43 7 -50 15 -7 8 -27 15 -44 15 -17 0 -40
7 -50 15 -11 8 -40 15 -65 15 -25 1 -57 7 -71 15 -14 8 -48 14 -76 15 -27 0
-55 5 -62 12 -7 7 -58 15 -120 19 -59 4 -127 12 -152 18 -55 12 -506 12 -575
-1z m509 -34 c9 -3 16 -11 16 -18 0 -8 36 -11 123 -10 73 0 140 -5 167 -13 25
-7 64 -13 87 -13 44 0 65 -16 42 -32 -9 -6 5 -7 42 -3 38 4 69 1 100 -9 24 -9
57 -16 72 -16 19 0 30 -7 36 -22 7 -18 16 -22 57 -24 74 -2 114 -14 206 -61
14 -7 32 -13 39 -13 6 0 41 -13 76 -30 34 -16 70 -30 78 -30 7 0 18 -7 23 -17
5 -9 20 -17 33 -18 12 -1 25 -8 27 -15 3 -9 -2 -11 -17 -7 -26 6 -28 -14 -4
-38 11 -11 24 -15 42 -10 65 16 87 17 100 1 8 -9 19 -16 26 -16 7 0 18 -7 25
-15 7 -8 21 -15 30 -15 10 0 20 -3 22 -7 4 -9 65 -53 73 -53 3 0 68 -47 145
-105 77 -58 141 -105 144 -105 2 0 17 -12 33 -27 16 -16 44 -39 61 -53 18 -14
35 -33 38 -42 3 -9 15 -20 26 -24 26 -8 150 -135 263 -269 22 -26 47 -55 56
-64 8 -9 26 -33 38 -53 12 -21 27 -38 32 -38 5 0 9 -7 9 -15 0 -9 7 -18 15
-21 8 -4 15 -11 15 -18 0 -6 14 -26 30 -44 17 -18 30 -37 30 -41 0 -4 13 -26
29 -48 16 -22 32 -49 35 -61 4 -12 12 -22 17 -22 5 0 9 -6 9 -14 0 -7 7 -20
16 -27 13 -11 15 -24 10 -67 -7 -57 5 -92 30 -92 12 0 15 6 10 26 -5 19 -3 25
6 22 7 -3 12 -14 10 -26 -2 -13 5 -25 17 -32 12 -6 21 -17 21 -26 0 -8 13 -42
29 -77 16 -34 32 -69 35 -77 3 -8 10 -22 14 -30 22 -37 42 -90 58 -153 10 -38
23 -71 31 -74 7 -3 13 -21 13 -42 1 -20 7 -47 15 -61 19 -33 19 -75 -1 -95
-10 -10 -14 -24 -10 -40 8 -32 22 -32 30 0 9 37 26 21 26 -24 0 -21 6 -56 14
-78 9 -25 13 -69 11 -123 -2 -47 0 -78 5 -71 17 28 30 -2 30 -67 0 -37 7 -107
15 -157 17 -104 19 -362 4 -475 -5 -41 -13 -111 -16 -155 -3 -44 -12 -93 -21
-110 -8 -16 -16 -57 -17 -90 -2 -33 -10 -94 -19 -135 -8 -41 -15 -76 -16 -78
0 -2 -4 0 -10 3 -5 3 -10 32 -10 63 0 32 -4 52 -9 47 -12 -14 -22 -125 -10
-125 17 0 20 -47 5 -91 -9 -24 -16 -56 -16 -70 0 -15 -6 -32 -14 -38 -7 -6
-21 -41 -31 -78 -9 -38 -30 -96 -46 -131 -16 -34 -29 -67 -29 -72 0 -6 -13
-34 -30 -63 -16 -30 -30 -63 -30 -74 0 -13 -8 -23 -21 -26 -16 -4 -20 -11 -16
-26 6 -24 -11 -40 -23 -21 -4 7 -15 10 -24 7 -17 -7 -22 -42 -6 -52 16 -10 -1
-68 -32 -106 -15 -20 -28 -44 -28 -53 0 -9 -5 -16 -10 -16 -6 0 -15 -10 -20
-23 -13 -30 -30 -54 -62 -91 -16 -17 -28 -36 -28 -42 0 -7 -18 -31 -40 -54
-22 -23 -40 -46 -40 -50 0 -5 -10 -20 -23 -34 -13 -13 -41 -46 -62 -72 -112
-132 -169 -191 -280 -289 -73 -65 -106 -93 -145 -128 -14 -12 -38 -31 -55 -41
-16 -11 -43 -32 -59 -48 -17 -15 -35 -28 -41 -28 -6 0 -25 -13 -43 -30 -18
-16 -37 -30 -41 -30 -4 0 -27 -13 -49 -30 -23 -16 -45 -30 -48 -30 -3 0 -23
-13 -43 -28 -38 -31 -96 -48 -106 -32 -10 17 -44 11 -54 -9 -8 -15 -7 -20 5
-25 20 -8 8 -26 -17 -26 -11 0 -22 -7 -25 -15 -4 -8 -17 -15 -31 -15 -14 0
-45 -13 -70 -30 -24 -16 -51 -30 -58 -30 -8 0 -43 -13 -77 -29 -57 -25 -89
-36 -168 -57 -14 -3 -32 -12 -40 -19 -15 -13 -46 -20 -139 -34 -33 -4 -57 -14
-63 -24 -6 -12 -22 -17 -53 -17 -24 0 -56 -5 -72 -11 -15 -7 -59 -13 -97 -15
-44 -2 -74 -8 -85 -18 -13 -12 -40 -16 -102 -16 -46 -1 -111 -7 -144 -15 -70
-17 -400 -20 -480 -4 -27 5 -99 13 -158 17 -76 5 -110 11 -116 21 -7 10 -28
14 -73 13 -34 0 -83 5 -108 13 -25 8 -58 15 -74 17 -31 3 -50 28 -22 28 9 0
16 5 16 10 0 6 -7 10 -15 10 -8 0 -15 -4 -15 -10 0 -15 -63 -12 -103 5 -20 8
-52 15 -72 15 -21 0 -35 5 -35 13 0 12 -68 34 -137 44 -18 3 -38 11 -44 19 -6
8 -19 14 -28 14 -10 0 -26 7 -37 15 -10 8 -25 15 -33 15 -19 0 -99 39 -107 51
-3 5 -16 9 -29 9 -14 0 -29 8 -35 19 -6 13 -17 17 -30 14 -13 -3 -22 1 -26 11
-7 18 -54 46 -79 46 -8 0 -34 13 -57 30 -22 16 -47 30 -55 30 -7 0 -13 4 -13
9 0 5 -13 14 -30 20 -16 5 -30 15 -30 20 0 6 -7 11 -15 11 -9 0 -18 7 -21 15
-4 8 -11 15 -16 15 -10 0 -84 53 -103 74 -5 6 -23 20 -40 30 -16 11 -41 30
-55 42 -14 12 -38 34 -55 49 -16 15 -41 33 -55 40 -14 8 -40 32 -59 54 -19 23
-40 41 -47 41 -8 0 -14 3 -14 8 0 4 -25 33 -55 65 -30 32 -55 62 -55 67 0 6
-6 10 -14 10 -7 0 -26 19 -42 42 -16 24 -38 52 -49 63 -30 30 -81 98 -88 117
-4 10 -11 18 -17 18 -5 0 -10 7 -10 15 0 8 -6 15 -14 15 -7 0 -17 8 -20 18
-13 34 -37 72 -47 72 -5 0 -9 7 -9 15 0 9 -7 18 -15 21 -8 4 -15 15 -15 25 0
11 -6 22 -14 25 -8 3 -17 13 -20 22 -3 9 -10 25 -16 35 -23 40 -31 53 -39 74
-6 11 -15 24 -20 28 -6 3 -11 19 -11 36 0 16 -4 29 -10 29 -5 0 -10 8 -9 18 0
10 3 12 6 5 10 -25 23 -12 23 22 0 38 -22 48 -38 19 -11 -20 -32 -10 -32 15 0
10 -7 24 -15 31 -8 7 -15 20 -15 29 0 10 -7 26 -15 37 -8 10 -15 26 -15 35 0
9 -7 22 -15 29 -8 7 -15 21 -15 31 0 10 -7 35 -16 56 -34 79 -42 99 -59 151
-18 56 -15 82 10 82 27 0 16 17 -15 24 -17 3 -32 11 -34 18 -38 142 -45 205
-24 226 16 16 2 28 -16 13 -17 -15 -26 5 -26 59 0 20 -7 57 -15 80 -10 28 -15
80 -15 150 0 76 -4 116 -15 136 -22 43 -22 460 1 485 12 13 15 42 16 125 0 70
5 121 14 143 8 18 14 58 14 87 0 41 4 54 15 54 8 0 15 -6 15 -12 0 -8 4 -7 10
3 6 10 5 27 -2 47 -10 25 -9 41 1 74 7 24 15 62 18 85 4 30 10 44 24 48 15 5
19 15 18 43 -2 20 3 47 9 59 7 12 12 31 12 42 0 10 6 32 14 48 28 56 46 104
46 122 0 10 6 24 13 30 8 6 22 38 33 72 10 34 25 64 32 66 6 3 12 16 12 28 0
31 17 41 25 15 8 -27 21 -25 41 5 17 27 12 45 -14 45 -12 0 -13 3 -4 12 7 7
12 24 12 39 0 15 7 32 15 39 8 7 15 18 15 25 0 7 7 15 15 19 8 3 15 14 15 24
0 11 7 25 15 32 8 7 15 18 15 25 0 7 7 15 15 19 8 3 15 14 15 25 0 10 7 21 15
25 8 3 15 12 15 20 0 8 3 16 8 18 4 2 20 22 36 46 16 23 33 42 37 42 5 0 9 5
9 11 0 11 82 122 115 154 11 11 32 37 45 58 14 20 33 40 43 43 9 3 17 10 17
15 0 9 136 146 217 217 26 23 70 62 98 87 27 25 56 45 63 45 7 0 15 7 18 15 4
8 12 15 20 15 8 0 14 5 14 10 0 6 7 13 16 17 9 3 30 19 47 34 17 16 37 29 45
29 7 0 15 7 18 15 4 8 13 15 20 15 8 0 17 7 20 15 4 8 14 15 25 15 10 0 22 6
26 13 9 13 37 32 70 46 11 6 24 15 28 20 3 6 15 11 26 11 11 0 22 7 25 15 4 8
17 15 31 15 13 0 33 5 44 10 15 8 19 7 19 -5 0 -21 49 -20 57 1 4 10 -1 20
-11 26 -20 11 -12 28 15 28 11 0 22 7 25 15 4 8 17 15 29 15 13 0 26 4 30 9 3
5 18 12 34 16 16 3 35 13 42 21 6 8 20 14 30 14 10 0 35 7 56 16 123 52 160
64 201 64 20 0 39 8 49 20 11 13 30 20 51 20 18 0 41 4 50 9 9 4 38 11 64 14
41 6 48 4 53 -13 8 -24 18 -25 40 -4 11 12 13 20 6 27 -21 21 -11 27 42 27 28
0 68 5 87 11 45 14 261 20 277 7 9 -7 15 -3 23 16 l10 26 209 0 c115 0 216 -3
225 -6z"/>
<path d="M3075 6469 c-22 -5 -86 -10 -142 -13 -76 -3 -107 -8 -118 -20 -9 -9
-33 -16 -53 -16 -20 0 -59 -7 -86 -15 -27 -8 -66 -15 -86 -15 -20 0 -40 -4
-46 -9 -5 -5 -35 -19 -68 -30 -45 -16 -72 -19 -117 -14 -39 4 -59 2 -59 -5 0
-6 7 -12 16 -14 10 -2 2 -10 -21 -22 -29 -16 -40 -18 -55 -9 -13 9 -22 9 -35
-1 -13 -9 -15 -15 -6 -20 17 -11 3 -26 -24 -26 -25 0 -101 -35 -111 -51 -3 -5
-13 -9 -23 -9 -10 0 -38 -11 -62 -25 -57 -31 -129 -65 -140 -65 -5 0 -9 -6 -9
-14 0 -8 -11 -17 -25 -20 -14 -4 -25 -11 -25 -16 0 -6 -7 -10 -16 -10 -9 0
-33 -12 -53 -27 -41 -32 -69 -50 -91 -60 -8 -3 -19 -12 -23 -20 -4 -7 -14 -13
-20 -13 -7 0 -27 -13 -45 -30 -35 -31 -60 -38 -79 -19 -12 12 -53 -4 -53 -20
0 -18 15 -20 32 -4 15 14 18 14 18 1 0 -15 -30 -48 -44 -48 -4 0 -26 -20 -48
-45 -23 -25 -44 -45 -48 -45 -4 0 -25 -17 -47 -37 -21 -21 -63 -61 -93 -90
-66 -62 -140 -148 -140 -162 0 -6 -3 -11 -7 -11 -12 0 -83 -68 -83 -79 0 -6
-14 -20 -30 -33 -16 -12 -30 -30 -30 -39 0 -10 -14 -33 -30 -51 -17 -18 -30
-36 -30 -41 0 -5 -13 -26 -30 -47 -16 -21 -30 -43 -30 -48 0 -6 -6 -15 -12
-19 -14 -9 -33 -37 -47 -70 -6 -11 -15 -24 -20 -28 -6 -3 -11 -14 -11 -25 0
-10 -6 -20 -13 -23 -6 -3 -20 -22 -31 -43 -10 -22 -22 -46 -27 -54 -4 -8 -18
-35 -30 -60 -11 -25 -34 -71 -50 -102 -16 -32 -29 -69 -29 -82 0 -27 -15 -42
-25 -26 -11 18 -21 11 -38 -25 -9 -20 -17 -38 -17 -40 0 -11 29 -4 33 8 3 7 6
4 6 -7 1 -10 -10 -27 -24 -38 -20 -15 -25 -28 -25 -62 0 -45 -33 -163 -50
-180 -6 -6 -10 -29 -10 -53 0 -24 -7 -60 -15 -80 -8 -19 -15 -55 -15 -79 0
-24 -6 -49 -15 -58 -10 -10 -15 -35 -15 -83 0 -37 -7 -103 -15 -146 -17 -92
-20 -539 -4 -622 6 -27 13 -93 16 -145 3 -55 11 -103 19 -115 8 -11 14 -33 14
-50 0 -16 7 -52 15 -79 8 -27 15 -68 15 -92 0 -28 5 -44 15 -48 8 -3 15 -16
15 -28 1 -13 7 -34 15 -48 8 -14 14 -44 15 -67 0 -23 5 -45 10 -48 6 -3 10
-18 9 -33 l0 -27 -11 25 c-6 16 -12 20 -15 12 -3 -7 2 -21 11 -31 9 -10 16
-24 16 -33 0 -17 26 -42 53 -51 9 -4 17 -16 17 -27 0 -25 35 -106 50 -115 5
-3 10 -14 10 -24 0 -10 11 -38 24 -62 14 -24 35 -64 47 -89 12 -25 29 -49 36
-53 7 -4 13 -16 13 -26 0 -10 7 -24 15 -31 8 -7 15 -20 15 -30 0 -10 7 -20 15
-24 8 -3 15 -12 15 -21 0 -8 5 -15 10 -15 6 0 13 -8 17 -17 3 -10 19 -34 35
-54 15 -20 28 -40 28 -44 0 -3 16 -27 35 -52 37 -48 43 -71 23 -91 -19 -19 5
-37 30 -21 17 11 23 8 50 -22 145 -165 247 -269 336 -344 52 -44 95 -83 95
-87 1 -13 40 -48 54 -48 7 0 26 -12 43 -27 17 -16 46 -36 65 -47 19 -10 39
-24 44 -30 13 -14 43 -33 73 -46 12 -5 22 -13 22 -18 0 -4 20 -16 45 -27 25
-11 45 -23 45 -28 0 -4 10 -12 23 -17 12 -6 30 -14 40 -20 9 -5 25 -15 35 -20
9 -6 27 -14 39 -19 11 -6 24 -15 28 -20 3 -6 15 -11 25 -11 10 0 38 -13 62
-29 24 -16 56 -31 72 -33 39 -4 47 -28 9 -29 -23 -1 -21 -3 12 -9 22 -5 48 -7
57 -4 12 4 15 0 11 -14 -7 -28 12 -35 88 -38 66 -2 159 -28 159 -45 0 -5 18
-9 40 -9 22 0 57 -7 77 -15 19 -8 50 -15 68 -15 18 0 38 -7 45 -15 8 -9 30
-15 59 -15 25 0 68 -7 95 -15 27 -8 79 -15 115 -15 47 0 74 -5 91 -17 23 -16
55 -18 320 -18 255 1 301 3 338 18 24 10 69 17 106 17 35 0 83 7 106 15 23 8
63 15 89 15 25 0 55 7 65 15 11 8 34 15 52 15 17 0 48 7 67 15 20 8 52 15 70
15 19 0 40 7 47 15 7 8 21 15 32 15 10 0 30 7 43 16 19 12 38 14 91 9 64 -7
66 -7 60 13 -7 22 -9 21 73 38 18 4 21 8 12 14 -17 10 -5 30 17 30 24 0 319
150 331 168 3 5 13 12 21 16 17 8 38 21 97 59 24 15 45 27 48 27 3 0 14 8 24
18 33 29 50 42 56 42 4 0 19 12 35 26 15 15 44 32 63 39 33 11 36 10 41 -9 4
-16 8 -18 17 -9 10 10 10 18 0 37 -12 21 -11 26 8 45 12 12 23 21 25 21 4 0
134 118 186 170 19 19 62 66 95 104 33 38 81 89 108 114 26 26 47 54 47 63 0
10 14 29 30 42 17 14 30 32 30 41 0 8 4 16 8 18 4 2 28 33 52 71 24 37 48 67
52 67 4 0 8 9 8 20 0 11 4 20 8 20 5 0 14 11 20 25 17 37 35 31 30 -10 -4 -39
1 -43 25 -17 21 23 22 52 2 52 -20 0 -19 37 3 76 9 17 36 69 60 117 24 48 48
89 53 93 5 3 9 18 9 34 0 19 7 33 20 40 12 6 20 21 20 35 0 14 5 25 10 25 6 0
22 11 36 25 21 21 23 28 13 46 -18 34 11 150 42 169 7 5 14 28 15 52 1 57 26
164 42 180 7 7 12 33 12 58 0 26 7 69 15 96 8 27 15 75 15 106 0 32 9 84 20
115 17 53 19 82 16 338 -2 239 -5 284 -19 310 -11 19 -17 53 -17 96 0 36 -7
88 -15 115 -8 27 -15 70 -15 95 0 29 -6 51 -15 59 -8 7 -15 27 -15 45 0 18 -7
49 -15 68 -17 41 -20 103 -5 112 5 3 7 12 3 21 -4 11 -9 12 -19 3 -11 -9 -15
-7 -20 7 -3 11 -12 35 -19 54 -7 20 -10 60 -8 95 5 57 3 61 -26 88 -17 15 -31
31 -31 36 0 5 -8 8 -17 7 -11 -1 -19 9 -23 29 -4 17 -17 46 -28 65 -12 19 -25
42 -28 50 -15 37 -50 106 -74 148 -6 9 -14 27 -20 40 -5 12 -13 22 -17 22 -5
0 -17 20 -28 45 -11 25 -23 45 -27 45 -4 0 -15 14 -23 31 -9 16 -24 38 -33 48
-19 20 -52 78 -52 92 0 5 9 9 20 9 11 0 20 5 20 10 0 13 -27 13 -35 0 -10 -15
-35 -12 -35 5 0 8 -4 15 -9 15 -5 0 -19 20 -31 45 -12 25 -28 45 -36 45 -8 0
-14 3 -14 8 -1 15 -247 272 -339 352 -98 86 -108 95 -120 119 -7 12 -25 24
-40 27 -16 4 -43 19 -61 35 -17 16 -37 29 -43 29 -7 0 -27 14 -45 30 -18 17
-38 30 -44 30 -5 0 -27 14 -48 30 -21 17 -42 30 -48 30 -5 0 -15 7 -22 15 -7
8 -21 15 -31 15 -11 0 -19 4 -19 9 0 5 -21 20 -47 33 -27 12 -70 35 -96 50
-26 16 -56 28 -67 28 -10 0 -21 4 -24 9 -9 14 -84 51 -104 51 -9 0 -30 16 -45
35 -18 22 -36 35 -51 35 -13 0 -27 7 -30 16 -5 14 -17 16 -72 10 -50 -5 -70
-3 -87 9 -12 8 -31 15 -44 15 -12 0 -28 6 -36 14 -7 8 -40 16 -73 19 -84 8
-205 33 -213 45 -3 5 -49 12 -101 15 -52 3 -120 10 -150 16 -67 12 -529 12
-585 0z m505 -41 c25 -5 92 -12 150 -15 61 -2 118 -10 137 -19 17 -8 51 -14
75 -14 23 0 52 -7 62 -15 11 -8 40 -15 65 -15 25 -1 57 -7 71 -15 14 -8 41
-14 61 -15 20 0 42 -7 49 -15 7 -9 29 -15 55 -15 26 0 48 -6 55 -15 7 -8 20
-15 30 -15 10 0 23 -7 30 -15 7 -8 28 -15 47 -15 21 0 36 -6 39 -15 4 -8 18
-15 34 -15 15 0 33 -7 40 -15 7 -8 23 -15 35 -15 13 0 25 -7 29 -15 3 -8 14
-15 24 -15 10 0 27 -7 38 -15 10 -8 26 -15 35 -15 9 0 19 -7 23 -15 3 -8 16
-15 30 -15 13 0 26 -7 30 -15 3 -8 14 -15 25 -15 11 0 23 -5 26 -11 4 -5 17
-15 28 -20 12 -5 36 -18 52 -29 17 -11 40 -24 53 -30 12 -5 22 -14 22 -19 0
-5 8 -12 18 -15 34 -13 72 -37 72 -47 0 -5 5 -9 11 -9 6 0 28 -13 49 -30 21
-16 41 -30 44 -30 3 0 14 -8 24 -17 10 -10 40 -36 67 -58 27 -22 64 -55 82
-72 19 -18 36 -33 38 -33 9 0 105 -101 105 -110 0 -6 7 -10 15 -10 8 0 15 -4
15 -9 0 -4 26 -35 58 -67 32 -32 73 -79 92 -104 19 -25 40 -49 47 -53 7 -4 13
-12 13 -17 0 -5 14 -24 30 -42 17 -18 30 -38 30 -46 0 -7 7 -15 15 -18 8 -4
15 -12 15 -19 0 -7 7 -15 15 -19 8 -3 15 -14 15 -25 0 -10 7 -21 15 -25 8 -3
15 -12 15 -20 0 -7 7 -16 15 -20 8 -3 15 -14 15 -25 0 -10 7 -21 15 -25 8 -3
15 -12 15 -19 0 -8 7 -20 15 -27 8 -7 15 -20 15 -30 0 -10 7 -20 15 -24 8 -3
15 -14 15 -24 0 -11 7 -25 15 -32 8 -7 15 -20 15 -30 0 -10 7 -23 15 -30 8 -7
15 -21 15 -32 0 -10 7 -21 15 -24 8 -4 15 -16 15 -29 0 -12 7 -28 15 -35 8 -7
15 -23 15 -35 0 -13 7 -25 15 -29 9 -3 15 -18 15 -34 0 -16 7 -35 15 -42 8 -7
15 -20 15 -30 0 -10 7 -23 15 -30 8 -7 15 -28 15 -47 0 -19 7 -41 15 -49 8 -9
15 -28 15 -43 0 -15 7 -36 15 -47 8 -10 15 -38 15 -60 0 -24 6 -47 15 -54 9
-7 15 -30 15 -54 1 -22 7 -52 15 -66 8 -14 14 -51 15 -83 0 -32 6 -68 12 -80
7 -12 16 -69 20 -127 4 -58 12 -127 17 -155 13 -65 12 -364 0 -435 -6 -30 -14
-101 -17 -157 -4 -59 -13 -108 -20 -115 -7 -7 -12 -39 -12 -78 -1 -41 -6 -72
-15 -84 -8 -11 -15 -36 -15 -57 0 -20 -7 -42 -15 -49 -9 -7 -15 -30 -15 -54
-1 -22 -7 -52 -15 -66 -8 -14 -14 -37 -15 -51 0 -15 -7 -32 -15 -39 -9 -7 -15
-29 -15 -51 0 -21 -4 -40 -9 -43 -15 -10 -51 -90 -51 -114 0 -13 -7 -25 -15
-28 -8 -4 -15 -16 -15 -29 0 -12 -7 -28 -15 -35 -8 -7 -15 -23 -15 -35 0 -12
-7 -28 -15 -35 -8 -7 -15 -20 -15 -30 0 -10 -7 -20 -15 -24 -8 -3 -15 -16 -15
-30 0 -13 -7 -26 -15 -30 -8 -3 -15 -15 -15 -26 0 -11 -7 -23 -15 -26 -8 -4
-15 -17 -15 -30 0 -13 -5 -24 -10 -24 -6 0 -15 -11 -20 -25 -5 -14 -14 -25
-20 -25 -5 0 -10 -9 -10 -20 0 -10 -6 -23 -12 -27 -15 -9 -33 -37 -48 -70 -5
-13 -14 -23 -20 -23 -5 0 -10 -6 -10 -14 0 -8 -7 -16 -15 -20 -8 -3 -15 -11
-15 -18 0 -8 -13 -28 -30 -46 -17 -18 -30 -37 -30 -42 0 -5 -10 -17 -23 -27
-12 -10 -31 -31 -41 -48 -11 -16 -41 -51 -68 -78 -26 -26 -48 -50 -48 -53 0
-2 -30 -33 -66 -67 -36 -34 -90 -85 -119 -113 -29 -29 -65 -60 -81 -70 -16
-11 -37 -29 -47 -41 -10 -13 -22 -23 -27 -23 -5 0 -24 -13 -42 -30 -18 -16
-38 -30 -46 -30 -7 0 -15 -7 -18 -15 -4 -8 -12 -15 -20 -15 -8 0 -14 -5 -14
-10 0 -6 -10 -15 -22 -20 -34 -15 -62 -33 -71 -48 -4 -6 -17 -12 -28 -12 -11
0 -22 -7 -25 -15 -4 -8 -12 -15 -19 -15 -7 0 -18 -7 -25 -15 -7 -8 -20 -15
-30 -15 -10 0 -20 -7 -24 -15 -3 -8 -15 -15 -26 -15 -11 0 -23 -7 -26 -15 -4
-8 -17 -15 -30 -15 -14 0 -27 -7 -30 -15 -4 -8 -14 -15 -24 -15 -10 0 -23 -7
-30 -15 -7 -8 -23 -15 -35 -15 -12 0 -28 -7 -35 -15 -7 -8 -23 -15 -37 -15
-13 0 -26 -7 -29 -15 -4 -8 -18 -15 -33 -15 -15 0 -36 -7 -47 -15 -10 -8 -26
-15 -35 -15 -9 0 -22 -7 -29 -15 -7 -8 -27 -15 -45 -15 -18 0 -38 -7 -45 -15
-7 -8 -24 -15 -39 -15 -14 -1 -37 -7 -51 -15 -14 -8 -38 -15 -55 -15 -16 0
-41 -7 -55 -15 -14 -8 -39 -14 -56 -15 -17 0 -48 -7 -67 -15 -20 -8 -63 -15
-95 -15 -32 0 -63 -5 -70 -12 -6 -6 -58 -15 -114 -20 -57 -4 -125 -12 -153
-17 -81 -16 -389 -13 -470 4 -38 8 -101 15 -140 15 -42 1 -80 6 -95 15 -14 8
-53 15 -90 15 -41 0 -72 6 -84 15 -11 8 -36 15 -55 15 -20 1 -47 7 -61 15 -14
8 -41 15 -60 15 -19 0 -44 7 -54 15 -11 8 -32 15 -47 15 -14 0 -32 7 -39 15
-7 8 -29 15 -50 15 -21 0 -43 7 -50 15 -7 8 -20 15 -30 15 -10 0 -23 7 -30 15
-7 8 -26 15 -42 15 -16 0 -31 6 -34 15 -4 8 -16 15 -29 15 -12 0 -28 7 -35 15
-7 8 -23 15 -35 15 -12 0 -28 7 -35 15 -7 8 -20 15 -30 15 -10 0 -23 7 -30 15
-7 8 -21 15 -32 15 -10 0 -21 7 -24 15 -4 8 -15 15 -25 15 -11 0 -22 7 -25 15
-4 8 -14 15 -23 15 -9 0 -22 5 -28 11 -13 13 -47 33 -80 48 -13 6 -23 15 -23
21 0 5 -9 10 -20 10 -11 0 -20 5 -20 10 0 6 -11 15 -25 20 -14 5 -25 14 -25
19 0 5 -8 12 -17 15 -32 11 -62 32 -87 59 -14 15 -28 27 -32 27 -11 0 -95 70
-152 127 -29 29 -54 53 -57 53 -5 0 -165 160 -165 165 0 3 -15 19 -32 38 -18
18 -51 55 -73 82 -22 27 -48 57 -57 67 -10 10 -18 22 -18 28 0 5 -6 13 -13 17
-14 9 -35 41 -43 66 -4 9 -10 17 -15 17 -8 0 -33 40 -45 73 -3 9 -10 17 -15
17 -5 0 -14 10 -19 22 -6 13 -19 37 -30 53 -11 17 -24 40 -29 52 -5 11 -15 24
-20 28 -6 3 -11 15 -11 26 0 11 -7 22 -15 25 -8 4 -15 14 -15 24 0 10 -7 23
-15 30 -8 7 -15 20 -15 30 0 10 -7 23 -15 30 -8 7 -15 23 -15 37 0 13 -7 26
-15 29 -8 4 -15 16 -15 28 0 11 -7 30 -15 40 -8 11 -15 30 -15 42 0 12 -7 24
-15 28 -9 3 -15 18 -15 39 0 19 -7 40 -15 47 -8 7 -15 23 -15 35 0 12 -7 28
-15 35 -8 7 -15 29 -15 50 0 21 -7 43 -15 50 -8 7 -15 27 -15 44 -1 17 -7 42
-15 56 -8 14 -14 48 -15 76 0 33 -5 56 -15 64 -10 8 -15 31 -15 64 -1 28 -7
62 -15 76 -9 17 -15 57 -15 120 0 52 -7 124 -15 160 -17 78 -19 373 -3 440 6
25 13 97 17 160 3 63 12 125 19 137 6 12 12 44 12 70 0 28 6 58 15 69 8 10 15
39 15 64 0 25 7 56 15 70 8 14 14 39 15 56 0 17 7 37 15 44 9 7 15 29 15 55 0
26 6 48 15 55 8 7 15 20 15 30 0 10 7 23 15 30 8 7 15 28 15 47 0 21 6 36 15
39 8 4 15 16 15 28 0 12 7 31 15 42 8 10 15 29 15 42 0 12 7 25 15 28 8 4 15
16 15 29 0 12 7 28 15 35 8 7 15 21 15 31 0 10 4 20 9 24 6 3 21 30 35 60 14
29 31 57 36 60 6 3 10 15 10 26 0 10 5 19 10 19 6 0 15 10 21 23 22 48 41 77
50 77 5 0 9 9 9 20 0 11 7 23 15 26 8 4 15 13 15 20 0 8 7 17 15 20 8 4 15 11
15 16 0 10 86 126 106 143 6 6 13 15 15 21 14 42 404 434 452 454 12 5 54 39
89 73 10 9 24 17 32 17 8 0 16 7 20 15 3 8 12 15 20 15 7 0 16 7 20 15 3 8 12
15 20 15 7 0 16 7 20 15 3 8 15 15 26 15 11 0 20 5 20 10 0 6 10 15 23 21 23
11 53 28 102 59 17 11 54 31 82 45 29 15 55 30 58 36 4 5 14 9 24 9 10 0 24 7
31 15 7 8 23 15 37 15 13 0 26 7 29 15 4 8 16 15 29 15 12 0 28 7 35 15 7 8
25 15 40 15 16 0 30 7 34 15 3 9 18 15 39 15 19 0 40 7 47 15 7 8 23 15 35 15
13 0 25 7 29 15 4 11 20 15 55 15 34 0 51 4 55 15 3 9 18 15 40 15 18 0 47 7
62 15 16 8 47 15 70 15 22 0 49 7 60 15 10 8 40 15 66 15 26 0 65 6 85 14 23
9 87 16 158 18 66 2 129 9 140 16 26 15 352 15 415 0z"/>
<path d="M3185 6393 c-96 -7 -447 -54 -464 -62 -9 -5 -61 -19 -116 -31 -116
-25 -178 -44 -255 -75 -30 -13 -82 -33 -115 -45 -93 -35 -300 -137 -407 -202
-54 -32 -100 -58 -103 -58 -3 0 -11 -5 -18 -10 -7 -6 -52 -40 -102 -75 -49
-36 -102 -75 -116 -87 -15 -13 -55 -45 -90 -73 -82 -65 -281 -263 -344 -344
-27 -35 -60 -75 -73 -90 -12 -14 -51 -66 -87 -116 -36 -49 -69 -95 -75 -102
-5 -7 -10 -15 -10 -18 0 -4 -13 -26 -30 -50 -35 -51 -173 -324 -211 -416 -14
-35 -36 -89 -49 -119 -12 -30 -26 -67 -31 -83 -5 -15 -14 -42 -20 -60 -6 -17
-21 -75 -33 -128 -13 -52 -28 -111 -34 -130 -28 -84 -72 -477 -72 -639 0 -227
39 -534 95 -750 57 -224 63 -242 144 -439 169 -414 485 -847 822 -1127 53 -44
102 -86 110 -92 159 -133 552 -359 714 -412 22 -7 53 -21 70 -31 16 -11 38
-19 48 -19 11 0 33 -6 50 -14 104 -45 474 -128 656 -146 218 -21 647 -11 791
20 25 5 97 19 160 31 63 11 144 30 180 41 36 11 103 31 150 45 47 14 105 36
130 48 25 13 56 26 70 30 121 34 455 221 633 353 413 306 711 664 939 1124 37
76 68 142 68 149 0 6 13 38 29 72 16 34 40 100 54 147 14 47 35 114 46 150 29
98 79 361 92 485 13 137 13 506 -1 640 -26 257 -108 594 -191 786 -16 36 -29
68 -29 71 0 13 -101 217 -110 223 -6 3 -10 12 -10 20 0 28 -193 334 -278 440
-19 24 -209 243 -242 279 -53 58 -307 275 -362 308 -26 16 -48 34 -48 39 0 5
-4 9 -9 9 -9 0 -99 56 -165 102 -45 32 -342 180 -426 212 -41 16 -99 40 -129
53 -29 12 -62 23 -73 23 -11 0 -34 6 -51 14 -40 17 -318 82 -412 96 -228 33
-472 46 -660 33z m565 -61 c47 -7 105 -18 130 -24 25 -6 68 -13 95 -16 28 -2
55 -8 62 -14 7 -5 36 -13 65 -18 29 -4 69 -13 88 -20 84 -29 97 -33 125 -38
17 -2 39 -11 50 -18 11 -8 29 -14 41 -14 12 0 27 -7 34 -15 7 -8 22 -15 34
-15 11 0 30 -7 40 -15 11 -8 27 -15 37 -15 9 0 22 -7 29 -15 7 -8 23 -15 35
-15 12 0 28 -7 35 -15 7 -8 21 -15 31 -15 10 0 21 -4 24 -10 3 -5 31 -22 60
-36 30 -14 57 -29 60 -35 4 -5 15 -9 26 -9 10 0 19 -3 19 -7 0 -5 21 -20 48
-36 73 -42 84 -50 123 -79 20 -16 42 -28 48 -28 6 0 11 -4 11 -9 0 -5 8 -12
18 -15 10 -4 32 -19 48 -34 16 -16 58 -50 94 -77 95 -72 349 -330 430 -435 19
-25 45 -56 58 -71 13 -14 29 -35 35 -46 7 -12 34 -55 62 -95 53 -78 68 -101
85 -133 6 -11 19 -33 30 -50 11 -16 22 -36 25 -42 3 -7 7 -19 10 -25 3 -7 16
-33 30 -57 14 -24 25 -50 25 -56 0 -7 7 -18 15 -25 8 -7 15 -20 15 -30 0 -10
7 -23 15 -30 8 -7 15 -23 15 -35 0 -12 7 -28 15 -35 8 -7 15 -23 15 -35 0 -12
7 -28 15 -35 8 -7 15 -22 15 -34 0 -11 7 -34 15 -50 8 -15 15 -38 15 -50 0
-12 7 -31 15 -42 8 -10 15 -33 15 -50 0 -16 7 -39 15 -50 8 -10 15 -34 15 -52
0 -18 7 -49 15 -69 8 -19 15 -51 15 -70 0 -18 7 -50 15 -70 8 -19 15 -56 15
-82 0 -25 7 -84 15 -131 18 -101 21 -582 5 -626 -6 -14 -13 -67 -17 -118 -3
-50 -12 -103 -19 -118 -8 -15 -14 -45 -14 -66 0 -22 -7 -56 -15 -75 -8 -20
-15 -51 -15 -69 0 -18 -7 -42 -15 -52 -8 -11 -15 -34 -15 -50 0 -17 -7 -40
-15 -50 -8 -11 -15 -31 -15 -45 0 -14 -7 -35 -15 -45 -8 -11 -15 -29 -15 -40
0 -12 -7 -30 -15 -40 -8 -11 -15 -30 -15 -42 0 -12 -7 -27 -15 -34 -8 -7 -15
-23 -15 -35 0 -12 -7 -28 -15 -35 -8 -7 -15 -20 -15 -29 0 -9 -7 -25 -15 -35
-8 -11 -15 -28 -15 -38 0 -10 -4 -18 -9 -18 -5 0 -14 -12 -20 -27 -6 -16 -15
-35 -20 -43 -5 -8 -12 -22 -15 -30 -4 -8 -15 -28 -26 -45 -11 -16 -24 -39 -30
-50 -35 -66 -222 -332 -250 -355 -3 -3 -24 -27 -45 -55 -52 -64 -266 -278
-330 -330 -28 -21 -52 -42 -55 -45 -18 -21 -276 -207 -310 -223 -8 -4 -28 -16
-45 -27 -16 -11 -40 -24 -52 -29 -11 -5 -24 -15 -28 -20 -3 -6 -14 -11 -24
-11 -10 0 -24 -7 -31 -15 -7 -8 -20 -15 -30 -15 -10 0 -23 -7 -30 -15 -7 -8
-20 -15 -30 -15 -10 0 -23 -7 -30 -15 -7 -8 -20 -15 -30 -15 -10 0 -23 -7 -30
-15 -7 -8 -22 -15 -34 -15 -12 0 -31 -7 -42 -15 -10 -8 -29 -15 -40 -15 -12 0
-27 -7 -34 -15 -7 -8 -22 -15 -34 -15 -12 0 -31 -7 -42 -15 -10 -8 -30 -15
-44 -15 -14 0 -36 -7 -50 -15 -14 -8 -36 -14 -50 -15 -14 0 -38 -7 -54 -15
-15 -8 -38 -15 -51 -15 -12 0 -42 -7 -65 -15 -23 -8 -58 -15 -77 -15 -18 0
-50 -7 -70 -15 -19 -8 -57 -15 -83 -15 -27 0 -84 -7 -127 -15 -108 -21 -562
-21 -648 0 -33 8 -87 15 -120 15 -33 0 -71 7 -85 15 -14 8 -44 14 -66 15 -23
0 -58 7 -77 15 -20 8 -51 15 -69 15 -18 0 -42 7 -52 15 -11 8 -34 15 -50 15
-17 0 -40 7 -50 15 -11 8 -32 15 -47 15 -15 0 -30 4 -33 9 -3 5 -18 12 -33 15
-27 6 -63 21 -126 52 -16 8 -37 14 -47 14 -9 0 -23 7 -30 15 -7 8 -20 15 -29
15 -9 0 -25 7 -35 15 -11 8 -28 15 -38 15 -10 0 -18 4 -18 9 0 5 -12 14 -28
20 -15 6 -34 15 -42 20 -8 5 -22 12 -30 15 -8 4 -28 15 -45 26 -16 11 -37 23
-45 27 -8 3 -33 18 -55 32 -22 14 -48 30 -57 36 -47 29 -162 110 -176 125 -10
9 -46 38 -82 65 -92 70 -353 334 -430 435 -35 47 -69 90 -75 95 -6 6 -29 37
-50 70 -22 33 -43 62 -47 63 -5 2 -8 8 -8 12 0 5 -12 26 -26 47 -14 21 -30 47
-35 58 -5 11 -18 34 -28 50 -18 27 -110 209 -125 245 -3 8 -10 22 -14 30 -27
47 -42 84 -42 99 0 9 -7 26 -15 37 -8 10 -15 28 -15 39 0 11 -7 29 -15 39 -8
11 -15 32 -15 46 0 14 -7 35 -15 46 -8 10 -15 30 -15 44 0 14 -7 36 -15 50 -8
14 -14 41 -15 60 0 19 -7 48 -15 64 -8 15 -15 46 -15 67 0 22 -7 56 -15 76 -8
19 -15 61 -15 92 0 31 -7 81 -15 111 -21 80 -21 594 0 677 8 31 15 80 15 109
0 28 7 71 15 94 8 23 15 59 15 79 1 20 7 47 15 61 8 14 15 41 15 60 0 19 7 46
15 60 8 14 14 37 15 51 0 14 7 34 15 45 8 10 15 31 15 46 0 14 8 41 17 60 9
18 22 45 30 60 7 14 13 33 13 41 0 9 7 28 14 44 8 15 17 35 20 43 3 8 10 22
15 30 5 8 26 49 46 90 20 41 40 82 45 90 5 8 11 22 14 30 4 8 15 29 26 45 11
17 24 39 29 50 5 11 21 37 35 58 14 21 26 40 26 43 0 3 20 32 45 64 25 32 45
62 45 66 0 3 15 23 32 43 18 20 44 51 58 70 54 71 90 111 226 246 77 78 169
163 205 190 35 27 77 62 93 77 17 15 34 28 38 28 8 0 73 45 113 78 6 4 17 11
25 15 8 4 29 16 45 27 17 11 39 24 50 30 11 6 34 19 50 30 17 11 37 22 45 26
8 3 22 9 30 14 8 5 49 25 90 45 41 20 82 41 90 46 8 5 26 14 40 19 14 6 33 15
42 20 10 6 25 10 34 10 9 0 28 6 42 13 54 28 98 45 122 50 23 5 39 10 123 38
17 6 52 14 77 18 25 4 55 13 67 19 12 7 37 12 55 12 18 0 55 7 82 15 27 8 70
15 95 15 25 0 69 7 96 14 65 19 608 17 735 -2z"/>
<path d="M3269 6182 c-64 -77 -82 -168 -55 -286 33 -147 37 -183 25 -253 -10
-61 -25 -107 -50 -153 -4 -8 -18 -35 -29 -60 -12 -25 -26 -52 -31 -60 -5 -8
-12 -22 -15 -30 -3 -8 -11 -28 -19 -45 -7 -16 -16 -46 -19 -65 -3 -19 -10 -57
-16 -85 -10 -46 -9 -84 6 -217 2 -27 1 -48 -5 -48 -17 0 -71 100 -84 153 -15
64 -12 234 5 264 14 28 4 41 -20 27 -30 -19 -42 -54 -76 -214 -21 -96 -21
-258 -1 -307 8 -19 15 -49 15 -65 0 -16 7 -45 15 -65 8 -19 15 -45 15 -57 0
-12 7 -31 15 -42 8 -10 15 -31 15 -45 0 -15 7 -32 15 -39 8 -7 15 -21 15 -31
0 -18 18 -66 46 -122 8 -16 14 -36 14 -45 0 -9 7 -26 15 -36 8 -11 15 -27 15
-37 0 -9 7 -22 15 -29 15 -12 21 -51 9 -62 -3 -4 -29 16 -57 44 -58 57 -161
138 -175 138 -5 0 -15 7 -22 15 -7 8 -20 15 -30 15 -10 0 -23 7 -30 15 -7 8
-20 15 -30 15 -10 0 -23 7 -30 15 -7 8 -22 15 -34 15 -11 0 -30 7 -40 15 -11
8 -28 15 -39 15 -17 0 -18 -6 -14 -52 5 -61 24 -159 39 -203 24 -71 37 -130
30 -137 -4 -4 -32 13 -62 38 -30 25 -64 50 -75 55 -20 9 -33 16 -70 37 -11 7
-27 15 -35 18 -8 3 -28 12 -45 19 -66 31 -105 44 -105 35 0 -5 27 -37 60 -71
58 -59 76 -99 45 -99 -8 0 -29 12 -45 27 -36 31 -157 93 -185 93 -11 1 -31 7
-45 15 -14 8 -45 15 -70 15 -25 0 -70 7 -100 15 -64 17 -344 20 -425 4 -27 -5
-95 -13 -150 -18 -55 -4 -113 -13 -128 -20 -16 -6 -45 -11 -66 -11 -20 0 -46
-7 -57 -15 -10 -8 -34 -15 -52 -15 -18 0 -43 -7 -55 -15 -32 -20 -152 -30
-205 -16 -27 8 -60 29 -89 56 -26 25 -50 45 -54 45 -19 0 -18 -22 3 -52 81
-118 148 -152 323 -167 50 -4 106 -14 125 -21 46 -16 104 -43 110 -51 3 -3 12
-10 22 -15 9 -5 56 -47 105 -94 104 -101 179 -159 248 -190 28 -12 57 -26 65
-30 9 -4 31 -11 50 -15 19 -4 40 -11 45 -15 6 -4 23 -10 38 -14 20 -5 27 -12
25 -24 -3 -15 -17 -17 -107 -15 -109 1 -130 7 -244 64 -62 31 -77 35 -77 20 0
-22 115 -115 175 -142 11 -5 27 -13 35 -18 48 -27 80 -41 97 -41 10 0 27 -7
37 -15 11 -8 34 -15 50 -15 17 0 53 -7 80 -15 69 -21 409 -20 578 1 122 15
173 14 152 -5 -5 -5 -40 -25 -79 -46 -98 -52 -166 -104 -273 -213 -105 -106
-115 -135 -52 -140 19 -1 72 -9 118 -18 53 -9 104 -12 142 -8 51 6 61 4 66
-11 4 -10 1 -20 -7 -25 -59 -36 -279 -246 -279 -267 0 -20 15 -16 87 22 90 48
133 46 81 -3 -91 -83 -158 -152 -158 -161 0 -6 -5 -11 -10 -11 -6 0 -15 -10
-20 -22 -6 -13 -19 -36 -30 -53 -11 -16 -22 -37 -26 -45 -3 -8 -10 -22 -15
-30 -5 -8 -12 -22 -15 -30 -3 -8 -12 -28 -20 -43 -7 -16 -14 -36 -14 -45 0 -9
-7 -26 -15 -36 -8 -11 -15 -32 -15 -47 0 -14 -7 -32 -15 -39 -8 -7 -15 -29
-15 -49 0 -20 -7 -45 -15 -55 -8 -11 -15 -36 -15 -55 -1 -20 -7 -47 -15 -61
-8 -14 -14 -41 -15 -61 0 -20 -7 -56 -15 -79 -8 -23 -15 -63 -15 -89 0 -25 -5
-66 -11 -90 -5 -25 -12 -107 -14 -184 -3 -101 -8 -144 -18 -155 -8 -10 -17
-25 -20 -34 -7 -19 -83 -78 -101 -78 -18 -1 -48 -48 -35 -56 6 -3 16 -1 22 5
6 6 23 11 39 11 36 0 125 62 166 116 17 24 32 47 32 52 0 5 7 15 15 22 8 7 15
20 15 30 0 10 7 23 15 30 8 7 15 23 15 35 0 12 7 28 15 35 8 7 15 18 15 25 0
16 109 128 142 146 15 8 64 33 110 57 46 24 94 50 108 57 51 29 171 148 215
216 36 54 52 69 71 69 20 0 24 -5 24 -29 0 -16 -7 -34 -15 -41 -8 -7 -17 -27
-21 -46 -3 -18 -12 -38 -20 -45 -8 -6 -14 -17 -14 -23 0 -6 -32 -48 -70 -93
-72 -83 -82 -103 -54 -103 44 0 304 245 304 286 0 7 6 17 13 21 7 4 28 40 46
78 19 39 40 82 47 97 8 14 14 37 14 51 0 13 7 30 15 37 8 7 15 24 15 39 1 14
7 37 15 51 8 14 15 41 15 60 0 19 7 44 15 54 8 11 15 33 15 48 0 16 7 45 15
65 8 19 15 50 15 67 0 34 30 98 48 104 8 2 12 -13 12 -47 0 -29 7 -68 15 -88
8 -19 15 -44 15 -54 0 -20 15 -57 68 -164 45 -92 57 -114 71 -128 6 -6 11 -19
11 -29 0 -10 4 -18 9 -18 26 0 44 17 67 64 14 28 29 58 33 66 31 56 41 80 41
94 0 9 4 24 9 34 6 9 12 30 16 45 9 42 35 30 53 -23 16 -50 39 -107 53 -130 5
-8 12 -22 15 -30 3 -8 9 -22 14 -30 5 -8 19 -33 30 -56 19 -35 56 -71 65 -62
1 2 -4 36 -12 76 -8 40 -12 79 -9 87 8 23 34 18 41 -7 19 -70 56 -138 116
-218 62 -83 138 -159 214 -216 28 -21 52 -40 55 -43 5 -7 75 -55 118 -84 15
-9 35 -20 45 -23 9 -4 17 -10 17 -14 0 -5 10 -12 22 -16 12 -3 39 -19 61 -35
22 -16 46 -29 54 -29 7 0 13 -4 13 -10 0 -5 11 -12 25 -16 13 -3 29 -12 36
-20 6 -8 19 -14 29 -14 10 0 23 -7 30 -15 7 -8 23 -15 35 -15 12 0 28 -7 35
-15 7 -8 20 -15 29 -15 10 0 26 -7 37 -15 10 -8 31 -15 45 -15 14 0 34 -7 45
-15 10 -8 31 -15 45 -15 15 0 32 -7 39 -15 7 -8 18 -15 24 -15 17 0 80 -69 94
-103 7 -15 12 -40 12 -55 1 -73 34 -100 46 -36 10 52 -2 129 -27 181 -12 24
-59 81 -106 126 -99 97 -173 188 -173 214 0 11 -7 28 -15 39 -8 10 -15 38 -15
61 0 23 -5 54 -11 70 -6 15 -15 55 -19 88 -9 69 -39 162 -71 215 -5 8 -12 22
-16 30 -3 8 -21 34 -40 57 -18 23 -33 46 -33 51 0 5 -7 12 -15 16 -8 3 -15 12
-15 21 0 8 -7 15 -15 15 -8 0 -15 5 -15 10 0 6 -8 18 -18 28 -37 37 -52 67
-52 103 0 28 -6 43 -25 57 -24 19 -34 42 -17 42 17 -1 70 -41 128 -98 43 -42
44 -45 35 -79 -12 -41 -7 -53 17 -53 10 0 25 -8 33 -17 9 -10 33 -34 54 -53
45 -41 125 -147 125 -165 0 -7 7 -15 15 -19 8 -3 15 -12 15 -20 0 -23 18 -28
29 -8 7 13 6 27 -5 46 -8 16 -14 33 -14 39 0 11 -29 75 -66 147 -13 25 -29 57
-35 73 -6 15 -15 27 -20 27 -5 0 -9 6 -9 14 0 8 -4 16 -9 18 -5 1 -27 27 -50
55 -23 29 -65 71 -94 94 -28 22 -63 50 -77 63 -14 12 -51 40 -83 62 -118 79
-202 134 -217 141 -8 4 -33 19 -54 35 -21 15 -44 28 -50 28 -17 0 -58 48 -47
54 5 4 22 1 38 -5 15 -6 87 -13 158 -16 103 -5 142 -2 187 11 31 9 69 16 84
16 37 0 114 30 114 44 0 17 -176 183 -220 207 -41 23 -58 47 -37 54 6 2 46 6
87 9 131 11 285 35 308 50 21 13 2 26 -37 26 -21 0 -54 6 -72 14 -19 7 -42 16
-53 20 -14 5 -16 9 -7 20 8 9 42 16 94 20 119 8 165 16 178 32 6 8 20 14 31
14 17 0 40 9 98 41 8 4 39 20 68 34 28 14 52 29 52 34 0 5 8 11 18 15 27 9
143 90 202 142 14 12 63 55 110 95 121 106 201 190 287 304 42 55 85 108 97
118 41 35 100 56 144 51 23 -2 61 -6 84 -8 23 -3 37 -2 32 2 -6 4 -13 14 -16
22 -8 22 -119 53 -170 47 -61 -6 -149 -41 -223 -87 -91 -57 -191 -85 -270 -77
-28 3 -90 11 -140 18 -160 22 -346 11 -396 -25 -13 -9 -36 -16 -51 -16 -16 0
-28 -4 -28 -10 0 -24 -122 -53 -270 -63 -42 -3 -29 24 30 60 47 29 62 34 104
30 31 -3 52 -10 58 -21 12 -22 28 -20 28 2 0 18 29 52 44 52 4 0 17 9 28 20
35 32 148 80 208 87 67 8 80 13 80 32 0 22 -22 33 -53 27 -12 -3 -76 -10 -142
-17 -66 -7 -129 -18 -140 -26 -11 -7 -31 -13 -45 -13 -15 0 -35 -7 -46 -15
-10 -8 -29 -15 -41 -15 -12 0 -25 -5 -28 -11 -4 -5 -17 -15 -28 -20 -12 -5
-35 -18 -52 -29 -16 -11 -37 -23 -45 -27 -29 -13 -305 -227 -335 -259 -27 -28
-124 -104 -134 -104 -6 0 -11 7 -11 15 0 8 3 15 8 15 6 0 26 40 67 135 49 113
93 393 65 410 -8 5 -121 -46 -196 -88 -37 -22 -116 -81 -145 -109 -15 -16 -32
-28 -38 -28 -15 0 -14 27 2 37 35 21 84 158 90 253 3 41 11 96 18 122 23 86
-14 68 -61 -29 -19 -38 -66 -81 -76 -70 -3 3 2 29 11 58 41 137 48 192 35 274
-6 33 -14 93 -19 133 -5 41 -14 79 -20 85 -6 6 -11 25 -11 42 -1 16 -7 41 -15
55 -8 14 -15 36 -15 50 0 14 -7 34 -15 44 -8 11 -15 28 -15 37 0 10 -6 30 -14
46 -7 15 -21 45 -30 66 -8 20 -22 52 -29 70 -17 38 -118 241 -132 265 -32 52
-72 110 -92 130 -29 32 -60 97 -68 148 -7 44 8 119 29 144 7 8 16 23 19 33 12
32 -30 19 -64 -21z m123 -519 c31 -45 41 -66 90 -188 35 -90 35 -91 -26 -41
-31 25 -67 46 -79 46 -13 0 -38 -13 -57 -30 -19 -16 -38 -29 -42 -30 -13 0 -9
39 7 71 9 16 20 55 26 87 16 87 29 132 39 132 5 0 24 -21 42 -47z m14 -252 c3
-9 12 -32 21 -51 8 -19 22 -51 30 -70 8 -19 21 -48 29 -63 8 -16 14 -36 14
-46 0 -9 7 -26 15 -37 8 -10 15 -28 15 -39 0 -11 7 -33 15 -49 8 -15 15 -40
15 -55 1 -14 7 -37 15 -51 8 -14 14 -44 15 -67 0 -24 6 -60 14 -80 8 -21 20
-106 27 -190 10 -123 9 -185 -1 -325 l-14 -173 -38 -56 c-22 -32 -38 -68 -38
-85 0 -15 -14 -57 -31 -93 -18 -36 -36 -76 -42 -89 -6 -12 -15 -21 -21 -19
-15 5 -8 66 10 94 8 12 14 29 14 36 0 8 7 20 15 27 21 18 21 313 0 350 -8 14
-14 44 -15 66 0 23 -7 59 -16 80 -13 31 -15 60 -11 138 3 54 10 103 16 109 16
16 14 57 -4 57 -8 0 -15 -8 -15 -19 0 -10 -7 -24 -15 -31 -8 -7 -15 -27 -15
-44 0 -35 -15 -64 -27 -52 -15 15 -8 278 8 316 50 114 65 243 34 284 -8 11
-15 28 -15 38 0 23 -30 24 -31 1 0 -10 0 -46 1 -79 1 -48 -5 -75 -28 -125 -71
-156 -67 -138 -66 -339 2 -145 5 -194 18 -224 9 -21 16 -62 16 -91 0 -28 7
-74 15 -101 15 -50 19 -96 9 -106 -3 -3 -14 -4 -24 -1 -12 3 -26 27 -41 74
-13 38 -28 68 -33 66 -15 -5 -20 -65 -8 -80 6 -7 13 -34 17 -62 4 -27 14 -59
21 -70 8 -11 14 -31 14 -46 0 -15 7 -32 15 -39 8 -7 15 -26 15 -42 0 -42 28
-134 45 -148 8 -7 15 -19 15 -27 0 -7 7 -16 15 -19 8 -4 15 -14 15 -24 0 -10
3 -26 6 -35 6 -14 8 -14 25 1 11 9 19 27 19 39 0 13 7 25 15 29 8 3 15 12 15
20 0 7 7 16 15 20 8 3 15 12 15 20 0 8 6 19 13 23 8 4 31 33 52 63 21 30 41
57 45 60 3 3 27 32 52 65 25 33 59 72 74 86 28 25 128 89 140 89 3 0 26 16 51
35 44 34 76 44 87 27 2 -4 -2 -30 -10 -57 -9 -28 -22 -75 -31 -105 -15 -52
-24 -76 -57 -152 -8 -18 -17 -40 -20 -48 -4 -8 -12 -24 -19 -35 -7 -11 -28
-47 -46 -80 -40 -68 -184 -215 -236 -239 -42 -20 -37 -36 12 -36 44 0 132 67
271 207 51 51 101 93 111 93 10 0 24 7 31 15 7 8 20 15 30 15 10 0 23 7 30 15
7 8 18 15 25 15 8 0 27 7 44 15 17 8 45 22 62 30 17 8 38 15 48 15 9 0 26 7
37 15 10 8 33 15 49 15 17 0 41 7 55 15 14 8 41 14 60 15 19 0 55 6 80 14 73
24 366 40 489 27 57 -6 138 -11 182 -11 70 0 80 -2 90 -22 10 -18 8 -24 -7
-35 -25 -17 -59 -46 -120 -103 -29 -26 -74 -64 -100 -84 -27 -20 -62 -46 -78
-58 -29 -22 -52 -37 -91 -58 -11 -6 -33 -19 -50 -30 -16 -11 -42 -25 -57 -31
-16 -6 -28 -15 -28 -20 0 -5 -8 -9 -19 -9 -10 0 -24 -7 -31 -15 -7 -8 -18 -15
-25 -15 -8 0 -28 -8 -47 -17 -18 -9 -45 -22 -60 -30 -14 -7 -35 -13 -46 -13
-11 0 -25 -7 -32 -15 -7 -8 -25 -15 -39 -15 -15 0 -36 -7 -47 -15 -10 -8 -32
-15 -47 -15 -15 0 -44 -7 -64 -15 -19 -8 -47 -15 -62 -15 -14 -1 -37 -7 -51
-15 -29 -16 -126 -20 -135 -5 -3 6 -45 10 -93 11 -48 0 -114 4 -147 8 -63 8
-89 5 -79 -10 3 -5 25 -9 48 -9 25 0 48 -6 55 -14 7 -8 27 -17 46 -20 19 -4
47 -13 62 -21 15 -8 33 -15 40 -15 7 0 29 -7 50 -16 56 -24 75 -32 101 -39 12
-4 22 -10 22 -15 0 -4 10 -10 23 -14 12 -3 49 -30 82 -60 33 -30 77 -65 98
-78 29 -18 37 -29 35 -48 l-3 -25 -180 1 c-165 0 -286 12 -340 35 -11 4 -31
11 -45 14 -38 10 -160 69 -160 78 0 4 -5 7 -11 7 -6 0 -28 14 -49 30 -43 34
-50 36 -50 14 0 -27 39 -82 63 -90 12 -4 24 -10 27 -14 3 -4 27 -20 53 -36 27
-16 65 -39 85 -51 21 -12 45 -22 55 -23 32 0 91 -46 177 -137 47 -49 97 -105
113 -124 40 -49 147 -209 147 -219 0 -5 6 -15 13 -22 6 -7 20 -31 31 -53 10
-22 22 -47 27 -55 19 -33 49 -103 49 -114 0 -7 7 -21 15 -32 8 -10 15 -28 15
-40 0 -11 7 -29 15 -40 8 -10 15 -30 15 -44 0 -14 7 -36 15 -50 8 -14 15 -38
15 -55 0 -16 7 -41 15 -55 8 -14 15 -43 15 -65 0 -22 9 -58 20 -80 43 -89 9
-112 -78 -52 -26 18 -65 41 -87 52 -41 21 -149 94 -176 120 -9 8 -21 15 -27
15 -7 0 -12 4 -12 8 0 5 -20 23 -44 40 -57 41 -242 223 -292 287 -22 27 -47
59 -58 72 -10 12 -24 31 -30 42 -6 11 -27 44 -47 73 -20 29 -47 72 -60 96 -38
69 -44 79 -56 93 -5 8 -13 49 -16 92 -3 43 -11 85 -18 93 -7 8 -18 47 -25 87
-15 86 -17 117 -6 117 17 0 52 -88 52 -132 0 -28 6 -50 15 -58 8 -7 15 -19 15
-26 0 -8 5 -14 10 -14 6 0 15 -10 20 -22 22 -51 68 -107 149 -183 142 -133
200 -195 222 -241 13 -27 28 -52 32 -55 4 -3 11 -19 16 -35 4 -16 12 -28 17
-27 14 3 17 33 5 57 -12 25 -41 97 -41 103 0 22 109 -82 110 -104 0 -7 4 -13
10 -13 5 0 12 -11 16 -25 3 -13 12 -29 20 -36 8 -6 14 -22 14 -34 0 -12 7 -28
15 -35 8 -7 15 -23 15 -35 0 -37 53 -140 98 -189 46 -51 80 -72 94 -58 9 9 2
21 -25 49 -21 20 -40 48 -44 62 -3 15 -10 32 -15 38 -6 7 -14 39 -18 70 -12
87 -45 172 -92 234 -16 20 -28 42 -28 48 0 6 -4 11 -8 11 -5 0 -22 19 -39 43
-17 23 -97 107 -177 187 -80 80 -146 147 -146 150 0 3 4 11 9 18 11 18 52 -2
102 -51 57 -56 71 -21 17 40 -31 34 -181 153 -192 153 -3 0 -14 8 -24 18 -75
72 -116 102 -143 102 -18 0 -32 6 -36 15 -3 9 -13 15 -22 13 -20 -3 -71 41
-107 94 -15 21 -31 35 -35 31 -4 -4 -9 -33 -11 -63 -3 -51 -5 -55 -28 -55 -22
0 -25 5 -28 43 -2 23 -7 42 -13 42 -5 0 -12 1 -16 3 -11 3 -23 -96 -29 -235
-5 -111 -5 -118 13 -118 30 0 43 -20 43 -65 0 -22 6 -49 14 -60 7 -11 16 -38
20 -60 3 -22 9 -59 12 -83 4 -28 2 -52 -6 -68 -20 -36 -4 -41 26 -9 26 28 27
33 26 140 -1 79 -6 120 -17 141 -17 33 -22 194 -5 194 5 0 16 -12 23 -26 13
-25 14 -21 21 62 7 95 17 119 36 85 8 -15 9 -94 6 -269 -5 -265 -7 -271 -67
-400 -16 -34 -29 -70 -29 -79 0 -20 -28 -53 -45 -53 -7 0 -15 10 -18 23 -3 12
-15 47 -27 77 -12 30 -25 69 -30 85 -5 17 -13 44 -18 60 -37 108 -60 340 -42
420 5 22 14 62 19 88 6 26 17 55 26 63 17 18 20 54 4 54 -21 0 -79 -75 -79
-103 0 -16 -5 -37 -11 -48 -13 -26 -27 -99 -39 -213 -6 -54 -16 -96 -25 -106
-8 -9 -15 -23 -15 -31 0 -8 -5 -20 -11 -26 -12 -12 -26 -36 -60 -103 -12 -25
-35 -61 -51 -81 -15 -20 -28 -42 -28 -48 0 -6 -4 -11 -8 -11 -5 0 -29 -28 -54
-62 -56 -77 -170 -196 -258 -269 -35 -30 -76 -64 -90 -77 -14 -12 -33 -25 -42
-28 -10 -3 -18 -10 -18 -15 0 -5 -7 -9 -15 -9 -7 0 -18 -6 -22 -13 -4 -8 -15
-17 -23 -20 -8 -4 -28 -16 -45 -27 -16 -11 -39 -24 -50 -30 -11 -6 -33 -19
-50 -30 -16 -11 -39 -24 -50 -29 -12 -5 -27 -16 -34 -25 -7 -9 -24 -16 -37
-16 -29 0 -32 29 -8 75 8 16 17 50 20 75 3 25 12 62 20 83 8 20 14 50 14 66 0
16 7 42 15 57 8 16 15 36 15 44 0 8 7 24 15 34 8 11 15 29 15 41 0 12 7 30 15
41 8 10 15 29 15 40 0 12 7 27 15 34 8 7 15 18 15 25 0 6 11 32 25 56 14 24
27 50 30 57 3 6 7 18 10 25 3 6 14 26 25 42 11 17 23 37 27 45 3 8 19 31 35
51 15 20 28 40 28 44 0 7 56 82 75 100 6 6 27 30 47 55 77 97 132 147 169 154
21 4 42 13 49 21 7 8 18 15 26 15 7 0 18 9 24 20 12 23 167 103 182 94 11 -7
-40 -64 -58 -64 -6 0 -17 -7 -24 -15 -7 -8 -20 -15 -29 -16 -9 0 -26 -12 -39
-27 -81 -96 -115 -139 -123 -157 -16 -34 -36 -66 -48 -78 -6 -6 -11 -21 -11
-33 0 -12 -7 -27 -15 -34 -8 -7 -15 -20 -15 -30 0 -10 -7 -23 -15 -30 -8 -7
-15 -19 -15 -26 0 -45 -116 -199 -162 -217 -26 -9 -22 -27 5 -27 12 0 37 13
55 29 39 36 72 49 72 28 0 -8 -7 -20 -15 -27 -8 -7 -15 -17 -15 -22 0 -15 -65
-95 -111 -138 -98 -88 -125 -110 -135 -110 -7 0 -18 -10 -27 -22 -8 -13 -24
-32 -35 -44 -11 -11 -23 -30 -26 -42 -4 -12 -11 -22 -16 -22 -11 0 -21 -45
-14 -64 10 -25 31 -19 42 12 11 31 51 79 81 96 11 6 41 22 67 36 77 41 146
103 217 197 26 34 47 66 47 71 0 5 7 15 15 22 8 7 15 21 15 32 0 10 7 21 15
24 8 4 15 16 15 29 0 12 7 28 15 35 8 7 15 20 15 30 0 10 7 23 15 30 8 7 15
21 15 31 0 10 5 21 11 24 5 4 14 17 20 28 5 12 13 29 18 37 5 8 17 32 27 53
25 50 44 48 44 -4 0 -26 -10 -57 -26 -85 -24 -42 -25 -44 -6 -44 25 0 92 100
92 138 0 10 7 27 15 38 8 10 15 33 15 49 0 17 7 39 15 49 8 11 15 32 15 48 0
15 4 28 9 28 5 0 13 10 17 23 3 12 13 30 22 40 13 14 13 21 2 41 -7 15 -9 32
-5 43 4 10 9 32 10 49 2 40 26 93 45 99 18 6 54 54 47 61 -3 3 -26 -2 -51 -10
-59 -20 -106 -21 -106 -2 0 17 27 46 43 46 12 0 63 49 56 53 -49 28 -70 37
-82 37 -8 0 -20 7 -27 15 -10 12 -36 15 -113 15 -93 0 -144 -8 -260 -42 -29
-9 -46 -9 -71 0 -18 7 -48 12 -68 12 -19 0 -57 7 -84 15 -27 8 -63 15 -80 15
-16 0 -39 7 -50 15 -10 8 -32 15 -49 15 -16 0 -39 7 -49 15 -11 8 -30 15 -42
15 -12 0 -27 7 -34 15 -7 8 -22 15 -34 15 -11 0 -30 7 -40 15 -11 8 -28 15
-38 15 -10 0 -18 4 -18 9 0 5 -12 14 -27 20 -16 6 -35 15 -43 20 -8 5 -22 12
-30 15 -8 4 -28 15 -45 26 -16 11 -38 23 -47 26 -10 4 -18 10 -18 15 0 6 -8
13 -17 16 -23 9 -244 175 -263 198 -8 10 -39 36 -68 57 -40 30 -52 45 -50 61
3 20 9 22 73 23 39 1 83 6 98 13 43 17 377 14 452 -4 33 -8 85 -15 115 -15 30
0 66 -7 80 -15 14 -8 41 -14 61 -15 19 0 44 -7 55 -15 10 -8 33 -15 49 -15 17
0 39 -7 49 -15 11 -8 29 -15 40 -15 12 0 30 -7 40 -15 11 -8 28 -15 37 -15 10
0 32 -8 51 -17 18 -9 45 -22 60 -30 14 -7 32 -13 40 -13 18 -1 49 -29 78 -72
14 -21 30 -38 37 -38 7 0 16 -6 20 -14 4 -7 25 -21 46 -31 20 -9 45 -30 54
-46 10 -16 20 -29 23 -29 4 0 16 -13 28 -30 39 -52 -6 -37 -73 25 -33 30 -68
55 -77 55 -10 0 -18 4 -18 9 0 5 -15 13 -32 16 -18 4 -42 14 -53 21 -11 8 -33
14 -50 14 -17 0 -40 7 -51 15 -11 8 -43 15 -79 15 -33 1 -82 6 -110 11 -27 5
-77 13 -110 17 -33 4 -69 13 -80 19 -11 5 -42 21 -70 34 -27 13 -51 27 -53 32
-2 4 -10 7 -18 7 -40 0 9 -53 84 -92 58 -30 -11 -39 -93 -12 -68 23 -68 23
-87 34 -10 5 -26 15 -35 20 -10 6 -28 14 -40 20 -13 5 -23 14 -23 20 0 5 -5
10 -11 10 -6 0 -28 13 -48 28 -78 61 -181 87 -246 62 -35 -13 -22 -30 23 -30
50 0 106 -32 189 -108 62 -56 95 -77 188 -116 57 -24 133 -46 159 -46 15 0 43
-7 63 -15 19 -8 64 -15 100 -15 35 0 80 -7 100 -15 19 -8 59 -15 88 -15 39 0
56 -5 69 -19 28 -31 11 -41 -70 -41 -69 0 -90 -9 -62 -26 32 -20 174 -33 250
-23 56 8 87 8 109 0 46 -16 110 -14 123 4 8 11 35 16 93 19 70 3 85 1 99 -15
15 -16 64 -27 64 -14 0 10 -26 61 -37 73 -16 16 -17 72 -2 72 5 0 22 -13 37
-29 26 -28 72 -50 72 -35 0 20 -36 84 -47 84 -7 0 -13 9 -13 19 0 11 -7 26
-15 35 -8 8 -15 21 -15 29 0 8 -7 20 -15 27 -8 7 -15 16 -15 21 0 4 -13 28
-30 52 -16 25 -30 50 -30 56 0 6 -5 11 -11 11 -7 0 -18 8 -25 17 -7 10 -16 14
-21 10 -4 -5 0 -14 10 -21 15 -12 25 -66 12 -66 -3 0 -25 20 -49 45 -25 25
-47 45 -51 45 -22 0 -135 105 -135 125 0 7 -12 20 -26 30 -25 16 -26 16 -21
-2 3 -10 8 -30 11 -45 10 -44 63 -114 137 -181 63 -56 129 -137 129 -159 0 -4
-7 -8 -16 -8 -11 0 -14 -6 -9 -22 4 -13 12 -28 19 -33 15 -13 46 -70 46 -84 0
-35 -67 23 -124 107 -18 27 -38 56 -45 63 -50 61 -150 214 -167 259 -3 8 -10
23 -15 32 -5 10 -9 35 -9 55 0 21 -6 50 -14 65 -8 14 -17 49 -21 77 -9 68 7
74 74 27 28 -20 54 -36 57 -36 11 0 146 -112 205 -170 31 -30 76 -82 100 -115
50 -66 119 -203 119 -233 0 -27 27 -36 40 -12 14 25 13 47 -4 78 -8 15 -22 47
-31 72 -30 78 -59 140 -66 140 -4 0 -9 8 -13 18 -3 9 -17 35 -30 57 -18 28
-25 55 -26 90 0 28 -7 88 -15 135 -19 107 -19 295 0 380 8 36 14 86 15 111 0
26 7 63 15 82 8 20 15 50 15 66 0 17 6 45 14 63 17 42 35 94 46 133 5 17 14
46 21 65 6 19 14 40 15 45 2 6 8 17 13 25 9 15 31 65 49 110 31 79 30 79 52
73 12 -3 24 -13 26 -22z m-352 -557 c8 -29 -12 -184 -24 -198 -13 -13 -29 27
-46 114 -17 92 -11 110 36 110 22 0 29 -6 34 -26z m-1576 -723 c-8 -3 -34 -28
-57 -55 -40 -46 -42 -52 -36 -93 5 -38 4 -43 -13 -43 -10 0 -26 8 -35 18 -9 9
-54 37 -101 62 -47 25 -86 50 -86 55 0 14 63 35 175 59 30 6 171 3 153 -3z
m4112 -2 c0 -15 -165 -188 -202 -213 -37 -24 -47 -13 -25 25 22 40 22 49 -8
93 -14 20 -27 47 -31 60 -5 22 -3 24 43 25 26 0 82 5 123 9 41 5 81 10 88 11
6 0 12 -4 12 -10z m-2880 -134 c10 -12 10 -19 2 -27 -13 -13 -42 6 -42 28 0
19 24 18 40 -1z m-1250 -127 c0 -13 -23 -5 -28 10 -2 7 2 10 12 6 9 -3 16 -11
16 -16z m472 -337 c24 -10 63 -33 87 -51 54 -40 44 -56 -25 -39 -27 7 -76 13
-109 13 -70 1 -80 16 -44 66 27 35 33 36 91 11z m1186 -156 c11 -11 -9 -17
-85 -26 -43 -6 -82 -14 -87 -20 -6 -5 -28 -9 -51 -9 -22 0 -50 -6 -61 -14 -11
-8 -33 -16 -49 -18 -41 -4 -46 -29 -4 -26 41 4 50 -18 12 -33 -15 -6 -51 -28
-80 -50 -29 -21 -56 -39 -61 -39 -5 0 -15 -7 -22 -15 -7 -8 -19 -15 -28 -15
-27 0 -92 -33 -92 -47 0 -18 64 -17 125 3 69 23 67 22 100 44 17 11 40 24 52
29 11 5 24 15 28 20 3 6 17 11 29 11 13 0 29 7 36 15 7 8 27 15 45 15 20 0 35
-6 39 -15 7 -19 43 -19 81 1 17 8 40 12 53 9 l24 -6 -28 -29 c-18 -18 -40 -30
-56 -30 -14 0 -39 -6 -55 -14 -15 -8 -55 -22 -88 -31 -33 -9 -67 -20 -75 -24
-9 -5 -36 -12 -60 -16 -25 -4 -50 -12 -57 -17 -19 -15 -117 -20 -257 -11 -85
5 -131 12 -133 20 -6 16 38 59 132 129 101 74 102 75 205 124 112 55 115 56
185 75 33 10 65 19 70 21 14 5 207 -4 213 -11z m1212 -59 c0 -17 -58 -27 -83
-14 -28 14 -10 28 39 28 31 0 44 -4 44 -14z m-1727 -417 c-21 -21 -43 -19 -43
4 0 16 42 35 55 25 5 -5 1 -16 -12 -29z m980 -366 c2 -5 8 -26 12 -48 l7 -40
-21 19 c-12 11 -21 31 -21 48 0 26 13 38 23 21z m-687 -422 c-7 -51 -25 -96
-59 -144 -16 -23 -24 -27 -45 -22 -28 7 -51 32 -52 55 0 17 136 160 152 160 7
0 8 -17 4 -49z m-798 -366 c11 -14 24 -25 29 -25 4 0 13 -10 18 -22 9 -21 16
-23 68 -21 l59 3 -44 -35 c-24 -19 -59 -43 -78 -54 -19 -11 -46 -36 -59 -55
-13 -20 -32 -36 -41 -36 -15 0 -19 11 -22 58 -7 94 16 212 42 212 5 0 17 -11
28 -25z m2587 -42 c16 -32 32 -65 37 -73 60 -109 60 -110 11 -103 -48 7 -202
79 -209 98 -3 8 -21 19 -40 25 -19 6 -34 16 -34 21 0 14 33 10 54 -6 29 -22
52 -18 72 13 21 32 66 82 75 82 4 0 19 -26 34 -57z"/>
<path d="M3818 4120 c-25 -22 -56 -59 -68 -83 -11 -23 -25 -49 -29 -57 -30
-55 -41 -79 -41 -89 0 -6 -16 -33 -36 -61 -33 -46 -48 -55 -82 -51 -12 2 -62
-43 -62 -55 0 -3 -13 -16 -29 -30 -18 -15 -31 -38 -36 -61 -4 -21 -11 -43 -16
-50 -7 -7 -6 -13 0 -17 5 -4 31 14 56 39 50 48 85 59 85 26 0 -11 -5 -23 -11
-26 -19 -12 -30 -56 -18 -71 13 -16 36 -3 48 27 3 9 33 46 66 81 131 142 155
170 155 184 0 21 -16 17 -33 -8 -11 -17 -18 -20 -26 -12 -13 12 -1 57 18 69 6
3 11 19 11 34 0 16 7 34 15 41 8 7 15 24 15 38 0 29 33 86 72 125 61 59 15 65
-54 7z"/>
<path d="M5065 3927 c-43 -21 -57 -22 -241 -12 -91 6 -117 4 -142 -9 -17 -9
-44 -16 -59 -16 -15 0 -37 -7 -47 -15 -11 -8 -29 -15 -40 -15 -12 0 -30 -7
-40 -15 -11 -8 -27 -15 -37 -15 -9 0 -22 -7 -29 -15 -7 -8 -20 -15 -30 -15
-10 0 -23 -7 -30 -15 -7 -8 -21 -15 -32 -15 -10 0 -21 -7 -24 -15 -4 -8 -14
-15 -24 -15 -10 0 -23 -7 -30 -15 -7 -8 -21 -15 -31 -15 -9 0 -24 -7 -33 -15
-8 -8 -21 -15 -29 -15 -8 0 -20 -7 -27 -15 -13 -15 -42 -20 -53 -9 -12 12 17
53 51 71 45 23 87 61 78 70 -4 4 -16 2 -26 -5 -11 -7 -28 -12 -39 -12 -10 0
-29 -8 -42 -17 -39 -29 -63 -43 -81 -49 -10 -4 -18 -9 -18 -13 0 -9 -97 -81
-110 -81 -6 0 -13 -7 -16 -15 -4 -8 -14 -15 -24 -15 -10 0 -23 -6 -30 -14 -6
-8 -21 -16 -33 -18 -16 -2 -23 -11 -25 -30 -2 -16 -9 -28 -18 -28 -8 0 -14 -6
-14 -13 0 -31 -80 -77 -135 -77 -62 0 -58 -18 15 -64 33 -21 60 -42 60 -47 0
-5 -27 -9 -59 -9 -33 0 -63 -5 -66 -10 -10 -16 13 -39 34 -33 10 3 22 0 25 -6
4 -6 18 -11 32 -11 13 0 24 -4 24 -10 0 -5 12 -13 27 -16 15 -4 34 -13 41 -21
7 -7 24 -13 36 -13 13 0 29 -7 36 -15 7 -8 23 -15 35 -15 12 0 28 -7 35 -15
14 -17 56 -20 65 -5 4 6 -7 13 -24 16 -18 4 -31 13 -31 21 0 22 261 13 305 -9
17 -9 40 -19 52 -22 20 -6 21 -5 10 18 -7 14 -19 28 -27 31 -8 3 -35 16 -60
30 -25 13 -63 24 -85 25 -22 1 -60 5 -85 10 -25 4 -63 11 -85 15 -32 5 -82 24
-114 42 -2 2 2 10 9 19 12 13 11 17 -1 25 -8 5 -24 9 -36 9 -12 0 -34 12 -50
26 -22 21 -25 27 -13 34 8 6 21 10 28 10 6 0 12 7 12 15 0 24 46 29 137 15 75
-11 86 -10 102 4 10 9 35 16 57 16 21 0 48 7 58 15 11 8 30 15 42 15 12 0 27
7 34 15 7 8 21 15 31 15 10 0 21 5 24 11 4 5 17 14 28 20 12 5 30 13 40 19 9
5 25 15 35 20 9 6 27 14 39 19 11 6 24 15 28 20 3 6 14 11 24 11 10 0 24 7 31
15 7 8 24 15 39 15 15 0 31 4 37 10 5 5 38 13 72 16 83 9 76 28 -11 32 -51 2
-67 6 -67 17 0 9 9 15 21 15 11 0 33 6 47 14 64 32 105 40 237 46 140 6 196
18 244 48 34 21 71 55 71 65 0 13 -44 5 -85 -16z"/>
<path d="M4570 6280 c-11 -7 -6 -10 20 -10 26 0 31 3 20 10 -8 5 -17 10 -20
10 -3 0 -12 -5 -20 -10z"/>
<path d="M4646 6251 c-8 -13 23 -23 47 -15 16 5 17 8 6 15 -18 11 -46 11 -53
0z"/>
<path d="M1995 6240 c8 -13 45 -13 65 0 11 7 3 10 -28 10 -26 0 -41 -4 -37
-10z"/>
<path d="M1767 6112 c-24 -26 -21 -33 11 -26 51 12 72 44 29 44 -13 0 -31 -8
-40 -18z"/>
<path d="M4900 6122 c0 -15 24 -32 47 -32 25 0 29 10 11 28 -13 13 -58 16 -58
4z"/>
<path d="M1682 6058 c-31 -31 3 -39 39 -8 l24 19 -25 1 c-15 0 -31 -5 -38 -12z"/>
<path d="M5000 6050 c6 -11 21 -20 33 -20 28 0 41 -9 56 -37 14 -28 51 -31 51
-5 0 12 -15 25 -41 36 -22 10 -43 24 -46 32 -3 8 -18 14 -34 14 -27 0 -29 -2
-19 -20z"/>
<path d="M1594 6012 c-6 -4 -13 -15 -17 -24 -5 -13 -1 -18 13 -18 19 0 50 25
50 41 0 11 -30 12 -46 1z"/>
<path d="M1504 5936 c-10 -8 -16 -17 -12 -21 11 -11 48 5 48 21 0 18 -11 18
-36 0z"/>
<path d="M5182 5933 c2 -10 10 -18 18 -18 8 0 16 8 18 18 2 12 -3 17 -18 17
-15 0 -20 -5 -18 -17z"/>
<path d="M5300 5850 c0 -5 6 -10 14 -10 8 0 18 5 21 10 3 6 -3 10 -14 10 -12
0 -21 -4 -21 -10z"/>
<path d="M5370 5795 c0 -8 8 -15 19 -15 10 0 25 -10 33 -22 8 -13 19 -18 26
-14 9 5 3 16 -17 37 -32 31 -61 38 -61 14z"/>
<path d="M1237 5724 c-13 -13 -7 -24 14 -24 11 0 19 5 17 12 -5 14 -22 21 -31
12z"/>
<path d="M1160 5646 c-94 -92 -114 -125 -67 -110 12 3 24 11 26 17 2 6 21 29
42 52 22 23 39 45 39 49 0 11 -25 6 -40 -8z"/>
<path d="M5540 5640 c0 -6 10 -18 22 -28 12 -9 41 -35 65 -56 24 -21 46 -36
49 -33 10 9 -6 28 -32 37 -16 7 -24 17 -24 34 0 17 -9 28 -34 40 -40 19 -46
20 -46 6z"/>
<path d="M988 5468 c-16 -16 -28 -34 -28 -41 0 -6 9 -1 20 11 12 12 27 22 35
22 8 0 15 9 15 20 0 26 -9 24 -42 -12z"/>
<path d="M5710 5475 c0 -8 9 -19 19 -25 11 -5 23 -19 26 -30 8 -25 25 -26 25
-2 -1 19 -44 72 -60 72 -5 0 -10 -7 -10 -15z"/>
<path d="M5810 5355 c0 -8 5 -15 10 -15 6 0 10 7 10 15 0 8 -4 15 -10 15 -5 0
-10 -7 -10 -15z"/>
<path d="M870 5308 c-13 -14 -17 -24 -9 -27 16 -5 54 35 41 43 -6 4 -20 -4
-32 -16z"/>
<path d="M790 5221 c-5 -11 -10 -28 -10 -38 0 -13 6 -8 20 15 23 37 24 42 10
42 -5 0 -14 -9 -20 -19z"/>
<path d="M5955 5171 c-7 -13 12 -51 25 -51 6 0 10 8 10 19 0 23 -25 46 -35 32z"/>
<path d="M726 5144 c-9 -8 -16 -23 -16 -32 0 -9 -14 -35 -30 -56 -31 -41 -38
-66 -19 -66 5 0 19 19 29 43 10 23 30 53 44 67 25 23 35 60 17 60 -5 0 -17 -7
-25 -16z"/>
<path d="M6000 5089 c0 -13 9 -30 20 -37 17 -10 20 -10 20 6 0 11 -9 27 -20
37 -19 18 -20 17 -20 -6z"/>
<path d="M6056 4993 c13 -54 44 -72 44 -27 0 24 -23 53 -43 54 -4 0 -4 -12 -1
-27z"/>
<path d="M618 4969 c-12 -6 -18 -22 -18 -42 l1 -32 24 28 c38 42 33 70 -7 46z"/>
<path d="M6210 4744 c0 -19 4 -33 8 -30 8 5 4 66 -4 66 -2 0 -4 -16 -4 -36z"/>
<path d="M476 4682 c-4 -13 -5 -26 -2 -29 10 -11 18 4 14 29 l-4 23 -8 -23z"/>
<path d="M6360 4355 c0 -8 5 -15 10 -15 6 0 10 7 10 15 0 8 -4 15 -10 15 -5 0
-10 -7 -10 -15z"/>
<path d="M316 4253 c-12 -12 -6 -33 9 -33 8 0 15 6 15 14 0 17 -14 28 -24 19z"/>
<path d="M240 3941 c0 -23 4 -41 9 -41 5 0 9 16 9 35 0 19 -4 38 -9 41 -5 3
-9 -13 -9 -35z"/>
<path d="M452 2150 c0 -19 2 -27 5 -17 2 9 2 25 0 35 -3 9 -5 1 -5 -18z"/>
<path d="M471 2073 c1 -10 5 -31 9 -48 l8 -30 2 33 c2 17 3 37 4 44 1 6 -5 13
-11 16 -8 2 -12 -4 -12 -15z"/>
<path d="M6210 1988 c0 -25 3 -29 10 -18 13 20 13 50 0 50 -5 0 -10 -15 -10
-32z"/>
<path d="M600 1807 c0 -23 32 -62 42 -52 11 11 -4 52 -23 63 -17 11 -19 9 -19
-11z"/>
<path d="M660 1727 c0 -2 11 -27 25 -55 14 -29 25 -56 25 -62 0 -9 31 -30 44
-30 15 0 4 33 -19 55 -13 14 -32 41 -41 60 -9 19 -20 35 -25 35 -5 0 -9 -1 -9
-3z"/>
<path d="M6013 1672 c-6 -4 -15 -20 -18 -35 -4 -15 -11 -27 -16 -27 -11 0 -41
-71 -33 -79 7 -7 44 37 44 53 0 7 11 23 25 36 35 33 34 75 -2 52z"/>
<path d="M772 1538 c3 -7 13 -15 22 -16 12 -3 17 1 14 10 -3 7 -13 15 -22 16
-12 3 -17 -1 -14 -10z"/>
<path d="M5891 1486 c-8 -10 -9 -16 -1 -21 13 -8 30 3 30 21 0 18 -14 18 -29
0z"/>
<path d="M924 1338 c-4 -7 1 -18 14 -26 12 -8 22 -21 22 -28 0 -8 7 -14 15
-14 23 0 18 19 -14 51 -21 20 -32 26 -37 17z"/>
<path d="M5742 1313 c-24 -30 -29 -57 -10 -51 6 2 21 16 32 31 28 38 8 57 -22
20z"/>
<path d="M1020 1239 c0 -14 38 -44 46 -36 2 2 -7 14 -21 27 -17 16 -25 19 -25
9z"/>
<path d="M5676 1234 c-17 -17 -21 -34 -8 -34 10 0 42 33 42 43 0 12 -18 7 -34
-9z"/>
<path d="M1080 1170 c0 -13 49 -60 61 -60 16 0 9 21 -16 45 -25 26 -45 32 -45
15z"/>
<path d="M5600 1162 c-32 -10 -55 -62 -27 -62 19 0 49 36 45 53 -1 8 -10 12
-18 9z"/>
<path d="M1168 1094 c-12 -11 5 -44 23 -44 22 0 23 4 9 31 -11 19 -22 24 -32
13z"/>
<path d="M5490 1045 c0 -30 15 -33 30 -6 14 27 13 31 -10 31 -15 0 -20 -7 -20
-25z"/>
<path d="M1230 1007 c0 -8 11 -19 25 -25 14 -6 25 -16 25 -22 0 -5 9 -10 20
-10 29 0 25 14 -14 44 -38 29 -56 33 -56 13z"/>
<path d="M5410 985 c-21 -22 -21 -25 -6 -31 19 -7 69 33 60 47 -9 16 -30 10
-54 -16z"/>
<path d="M1440 842 c0 -13 46 -35 61 -30 8 3 -1 12 -20 21 -39 20 -41 20 -41
9z"/>
<path d="M5234 833 c-11 -12 -13 -18 -5 -21 19 -6 41 6 41 23 0 20 -14 19 -36
-2z"/>
<path d="M1551 773 c0 -21 95 -85 118 -81 18 4 6 17 -63 69 -45 33 -56 36 -55
12z"/>
<path d="M5113 757 c-28 -18 -56 -40 -62 -49 -17 -28 33 -23 56 5 10 12 30 30
46 40 25 16 37 38 20 36 -5 0 -31 -15 -60 -32z"/>
<path d="M4984 669 c-35 -10 -60 -34 -45 -43 13 -8 54 8 70 28 18 22 13 25
-25 15z"/>
<path d="M1710 662 c0 -17 25 -32 52 -32 26 0 28 2 18 20 -10 20 -70 30 -70
12z"/>
<path d="M1830 570 c0 -5 8 -10 17 -10 9 0 25 -7 35 -17 15 -13 18 -14 18 -2
0 8 -5 20 -12 27 -15 15 -58 16 -58 2z"/>
<path d="M1955 521 c-7 -12 31 -25 46 -15 8 4 7 9 -2 15 -18 11 -36 11 -44 0z"/>
<path d="M4728 513 c12 -2 32 -2 45 0 12 2 2 4 -23 4 -25 0 -35 -2 -22 -4z"/>
<path d="M4130 280 c0 -5 7 -10 15 -10 8 0 15 5 15 10 0 6 -7 10 -15 10 -8 0
-15 -4 -15 -10z"/>
<path d="M36 3189 c-9 -21 -1 -313 11 -409 5 -41 15 -85 21 -97 7 -12 12 -38
12 -58 0 -19 7 -52 15 -72 8 -19 15 -47 15 -62 1 -14 7 -37 15 -51 8 -14 14
-39 15 -56 0 -16 7 -39 15 -50 8 -10 15 -31 15 -45 0 -14 7 -34 15 -45 8 -10
15 -28 15 -40 0 -11 7 -29 15 -40 8 -10 15 -29 15 -40 0 -12 7 -27 15 -34 8
-7 15 -22 15 -34 0 -11 7 -30 15 -40 8 -11 15 -27 15 -37 0 -9 7 -22 15 -29 8
-7 15 -23 15 -36 0 -12 5 -26 11 -29 5 -4 14 -17 20 -28 9 -22 15 -33 37 -72
7 -11 17 -31 23 -45 6 -14 21 -39 35 -57 13 -17 24 -36 24 -42 0 -6 20 -40 45
-77 25 -36 45 -68 45 -70 0 -3 20 -32 45 -64 25 -32 45 -63 45 -69 0 -5 6 -14
13 -18 7 -4 35 -37 62 -73 67 -89 108 -134 260 -285 176 -175 201 -197 340
-301 178 -134 289 -206 420 -274 44 -23 87 -45 95 -50 53 -29 142 -70 154 -70
7 0 19 -7 26 -15 7 -8 23 -15 35 -15 12 0 28 -7 35 -15 7 -8 22 -15 34 -15 11
0 30 -7 40 -15 11 -8 32 -15 47 -15 14 0 32 -7 39 -15 7 -8 24 -15 39 -15 14
-1 37 -7 51 -15 14 -8 35 -14 46 -15 12 0 35 -7 50 -15 16 -8 41 -15 55 -15
15 0 43 -7 62 -15 20 -8 50 -15 67 -15 17 0 41 -5 52 -11 31 -17 169 -30 353
-35 178 -5 203 8 50 26 -50 5 -115 17 -145 25 -30 8 -68 15 -85 15 -85 1 -468
101 -635 165 -179 68 -476 210 -507 241 -8 8 -18 14 -23 14 -8 0 -125 77 -261
171 -42 29 -110 83 -201 160 -36 32 -72 61 -80 66 -16 10 -252 256 -292 303
-40 48 -146 185 -177 229 -70 99 -119 173 -119 180 0 4 -13 27 -30 49 -16 23
-30 48 -30 56 0 7 -6 19 -14 25 -20 17 -166 319 -166 344 0 7 -4 17 -9 22 -13
14 -90 230 -110 310 -6 22 -17 65 -26 95 -39 135 -89 408 -100 547 -9 99 -19
138 -29 112z"/>
<path d="M6688 3180 c-4 -8 -12 -55 -18 -105 -6 -49 -18 -117 -25 -150 -7 -33
-16 -85 -20 -115 -3 -30 -15 -91 -26 -135 -11 -44 -24 -100 -30 -125 -22 -104
-115 -377 -168 -495 -10 -22 -24 -56 -31 -75 -7 -19 -18 -41 -23 -48 -5 -7
-31 -56 -57 -110 -26 -53 -54 -103 -64 -111 -9 -7 -16 -19 -16 -26 0 -22 -242
-372 -284 -410 -6 -5 -29 -32 -51 -60 -52 -65 -296 -309 -360 -360 -27 -22
-52 -43 -55 -46 -20 -26 -340 -252 -425 -301 -35 -20 -305 -154 -385 -191 -62
-29 -183 -73 -250 -91 -25 -7 -55 -18 -65 -23 -19 -9 -79 -25 -222 -59 -38 -8
-86 -20 -108 -25 -22 -5 -69 -13 -105 -19 -36 -5 -96 -16 -135 -24 -38 -8
-100 -18 -138 -21 -37 -4 -70 -12 -73 -17 -7 -11 282 -4 401 9 44 5 90 15 102
21 12 7 36 12 53 12 17 0 47 7 67 15 19 8 50 15 67 15 18 0 41 7 52 15 10 8
31 15 45 15 14 0 34 7 45 15 10 8 33 15 50 15 16 0 39 7 50 15 10 8 27 15 37
15 11 0 31 6 45 13 15 8 42 21 60 30 19 9 42 17 52 17 9 0 23 7 30 15 7 8 18
15 25 15 7 0 85 37 174 82 215 110 211 108 211 119 0 5 6 9 13 9 8 0 33 14 55
30 23 17 44 30 47 30 5 0 106 73 150 108 6 4 39 30 75 57 36 27 85 67 110 90
53 47 288 283 346 346 85 93 314 411 314 437 0 7 4 12 9 12 5 0 16 12 24 28
37 71 69 128 78 137 5 5 9 17 9 26 0 9 7 22 15 29 8 7 15 20 15 30 0 10 7 23
15 30 8 7 15 20 15 30 0 10 7 23 15 30 8 7 15 23 15 35 0 12 7 28 15 35 8 7
15 23 15 35 0 12 7 28 15 35 8 7 15 22 15 34 0 11 7 30 15 40 8 11 15 29 15
40 0 12 7 30 15 40 8 11 15 31 15 45 1 14 7 37 15 51 8 14 15 36 15 50 0 14 7
34 15 44 8 11 15 34 15 52 0 17 7 48 15 67 8 20 15 49 15 64 0 15 7 46 15 68
8 22 14 61 15 86 0 25 5 59 10 75 11 33 9 359 -2 334z"/>
</g>
</svg>
