<?xml version="1.0" standalone="no"?>
<!DOCTYPE svg PUBLIC "-//W3C//DTD SVG 20010904//EN"
 "http://www.w3.org/TR/2001/REC-SVG-20010904/DTD/svg10.dtd">
<svg version="1.0" xmlns="http://www.w3.org/2000/svg"
 width="900.000000pt" height="903.000000pt" viewBox="0 0 900.000000 903.000000"
 preserveAspectRatio="xMidYMid meet">
<metadata>
Created by potrace 1.10, written by Peter Selinger 2001-2011
</metadata>
<g transform="translate(0.000000,903.000000) scale(0.100000,-0.100000)"
fill="#000000" stroke="none">
<path d="M3936 8971 c-22 -24 -17 -57 17 -98 41 -50 103 -156 137 -233 17 -41
39 -88 47 -105 8 -16 19 -52 23 -80 5 -27 16 -86 24 -130 17 -91 12 -239 -10
-294 -8 -18 -14 -42 -14 -53 0 -31 -49 -118 -89 -157 -34 -32 -64 -90 -101
-191 -22 -58 -24 -138 -6 -159 9 -10 26 -44 37 -76 25 -72 88 -190 144 -270
23 -33 48 -73 57 -90 8 -16 23 -43 32 -60 10 -19 16 -54 16 -95 0 -58 -4 -70
-35 -114 -48 -67 -140 -156 -163 -156 -29 0 -42 21 -42 69 0 90 -64 240 -135
319 -25 28 -45 54 -45 59 0 8 -51 58 -165 163 -16 15 -41 31 -55 35 -14 4 -38
18 -53 31 -22 19 -40 24 -80 24 -29 0 -74 8 -101 17 -94 34 -134 98 -160 259
-32 205 -43 232 -142 346 -177 205 -279 290 -444 369 -110 53 -264 71 -384 45
-39 -8 -88 -17 -109 -20 -47 -6 -67 -21 -67 -51 0 -28 43 -81 73 -91 22 -7
108 -63 202 -132 57 -42 134 -119 183 -184 18 -23 43 -56 55 -73 32 -41 77
-121 77 -135 0 -7 6 -26 14 -43 21 -47 49 -215 42 -253 -4 -17 -14 -47 -23
-64 -23 -47 -13 -240 17 -302 28 -61 257 -254 346 -292 37 -16 139 -94 175
-133 29 -31 59 -101 59 -137 0 -34 -33 -131 -69 -203 -40 -79 -60 -82 -92 -15
-13 26 -58 83 -104 129 -70 71 -96 89 -195 137 -62 31 -123 56 -134 56 -12 0
-26 4 -32 10 -10 10 -59 22 -173 41 -65 11 -91 7 -176 -25 -48 -18 -128 -20
-158 -5 -48 25 -109 84 -143 137 -42 65 -131 177 -165 208 -13 12 -44 29 -69
37 -25 9 -64 25 -87 36 -23 12 -47 21 -53 21 -6 0 -32 11 -58 25 -26 14 -53
25 -62 25 -8 0 -32 6 -55 14 -22 8 -84 22 -137 31 -81 15 -114 16 -190 7 -51
-5 -112 -15 -136 -21 -51 -14 -188 -84 -222 -116 -14 -12 -44 -34 -67 -49 -34
-21 -43 -32 -43 -55 0 -15 8 -36 19 -45 19 -18 23 -18 186 -37 160 -18 259
-46 400 -117 124 -61 217 -133 281 -219 71 -94 100 -155 107 -224 5 -55 50
-152 82 -179 8 -7 15 -18 15 -25 0 -7 18 -29 39 -48 29 -26 53 -38 88 -43 26
-4 68 -16 93 -26 49 -21 88 -28 309 -53 115 -13 152 -21 180 -40 88 -56 116
-117 128 -275 5 -70 3 -88 -10 -98 -13 -11 -23 -9 -59 12 -165 98 -239 119
-408 117 -125 -1 -251 -20 -357 -52 -73 -23 -97 -39 -119 -81 -14 -28 -127
-98 -158 -98 -32 0 -159 50 -209 82 -138 88 -207 107 -386 102 -287 -8 -484
-65 -636 -184 -112 -89 -230 -276 -223 -356 3 -37 5 -39 40 -42 20 -2 53 4 75
13 165 72 296 98 488 99 160 1 277 -19 334 -57 20 -14 62 -36 93 -51 56 -27
77 -46 121 -115 30 -47 162 -147 220 -167 29 -10 63 -14 85 -10 20 3 71 10
112 17 85 13 140 28 329 94 144 50 151 50 251 14 50 -18 60 -26 100 -90 25
-38 60 -92 78 -121 36 -55 38 -85 7 -80 -178 22 -184 22 -282 2 -54 -11 -119
-32 -147 -48 -28 -16 -67 -34 -86 -42 -42 -16 -251 -171 -284 -211 -13 -15
-29 -52 -36 -81 -16 -69 -50 -121 -102 -155 l-41 -28 -221 0 -221 0 -50 -32
c-28 -17 -84 -48 -125 -69 -41 -20 -93 -52 -115 -69 -22 -18 -49 -35 -60 -39
-19 -6 -106 -87 -187 -172 -47 -50 -102 -152 -129 -240 -17 -54 -22 -98 -23
-199 l-1 -129 26 -10 c43 -15 75 1 123 61 61 78 230 212 337 267 109 57 244
102 329 110 36 3 105 1 154 -4 72 -9 100 -17 140 -41 59 -37 123 -54 228 -63
80 -7 136 6 154 36 5 8 36 31 70 51 34 21 121 96 200 173 223 219 296 235 484
102 76 -53 77 -74 5 -101 -197 -74 -326 -202 -467 -461 -18 -34 -50 -130 -55
-168 -3 -20 0 -52 6 -71 9 -27 8 -49 -4 -104 -15 -68 -17 -71 -78 -115 -34
-25 -91 -55 -127 -67 -36 -12 -90 -38 -120 -56 -30 -19 -71 -43 -91 -54 -20
-11 -53 -44 -73 -73 -20 -29 -46 -66 -58 -83 -13 -16 -40 -53 -60 -81 -21 -28
-38 -54 -38 -58 0 -4 -18 -38 -40 -76 -21 -39 -43 -85 -49 -103 -52 -175 -63
-256 -47 -362 9 -59 46 -173 75 -232 12 -23 21 -49 21 -58 0 -14 36 -35 60
-35 5 0 22 12 39 26 21 18 31 35 31 55 0 15 6 43 14 61 8 18 31 74 52 123 96
225 239 397 402 485 125 67 151 74 272 76 128 2 196 20 281 75 44 28 53 42
128 192 45 89 81 169 81 178 0 21 43 137 75 199 29 57 101 116 151 126 33 6
85 3 201 -12 32 -4 59 -14 69 -26 17 -18 15 -21 -53 -89 -123 -123 -178 -259
-205 -517 -14 -130 3 -212 70 -350 45 -91 46 -94 34 -139 -17 -62 -58 -130
-110 -180 -87 -85 -161 -215 -185 -324 -46 -211 -50 -245 -44 -380 8 -185 46
-308 133 -429 45 -63 209 -210 234 -210 10 0 30 14 45 32 28 34 28 27 2 138
-6 25 -10 110 -10 190 0 147 22 293 59 378 8 18 14 41 14 52 0 10 5 22 10 25
6 4 20 25 31 48 21 40 77 112 143 182 17 17 57 42 89 54 88 32 189 116 240
198 24 38 27 53 33 195 5 119 3 173 -10 244 -48 280 -6 367 213 438 62 20 119
36 127 36 20 0 18 -29 -5 -66 -52 -86 -79 -331 -48 -432 9 -26 18 -65 21 -88
7 -49 30 -105 99 -241 47 -93 56 -105 97 -125 67 -34 139 -106 151 -152 13
-50 2 -150 -22 -197 -53 -105 -52 -359 1 -484 11 -26 20 -55 20 -66 0 -11 9
-37 20 -59 11 -22 20 -46 20 -55 0 -14 17 -47 57 -110 7 -11 22 -38 34 -59 12
-22 57 -75 101 -118 103 -102 202 -152 326 -165 34 -3 65 -10 68 -14 3 -5 18
-9 34 -9 59 0 63 62 10 129 -61 76 -163 282 -188 381 -49 194 -54 318 -17 447
32 113 59 168 96 196 45 33 112 182 125 277 6 42 3 56 -13 78 -10 15 -30 56
-43 92 -26 70 -98 205 -135 255 -59 78 -97 157 -102 213 -8 92 8 131 93 221
53 56 83 81 99 81 27 0 31 -8 45 -109 11 -75 49 -180 81 -216 9 -11 24 -35 33
-52 9 -18 27 -40 40 -48 13 -9 29 -28 35 -43 6 -15 27 -37 46 -50 19 -12 35
-26 35 -31 0 -12 116 -101 131 -101 6 0 24 -9 40 -21 16 -11 57 -24 91 -30 35
-5 79 -15 98 -21 76 -23 141 -119 154 -229 4 -30 13 -70 20 -89 12 -32 24 -80
41 -167 4 -22 40 -69 108 -145 111 -124 205 -218 218 -218 5 0 26 -16 48 -35
21 -19 56 -42 77 -51 22 -9 47 -23 56 -31 9 -8 48 -25 85 -36 92 -28 308 -35
352 -13 16 9 48 16 69 16 93 0 97 110 5 141 -37 12 -149 85 -183 119 -11 11
-24 20 -28 20 -18 0 -142 129 -194 200 -73 102 -82 117 -114 191 -52 124 -68
283 -34 357 21 45 21 109 2 228 -10 62 -36 124 -51 124 -4 0 -39 30 -77 66
-38 36 -91 81 -119 100 -27 18 -59 40 -70 47 -11 8 -52 33 -92 56 -88 52 -157
124 -174 181 -17 58 0 157 46 253 37 80 55 96 77 69 28 -35 58 -82 58 -90 0
-5 36 -43 79 -85 63 -60 99 -85 182 -125 218 -105 409 -140 509 -93 68 31 144
29 201 -8 51 -33 86 -70 119 -126 38 -64 91 -124 150 -169 70 -54 173 -114
208 -122 15 -4 41 -15 57 -24 17 -10 46 -21 65 -24 19 -4 51 -13 70 -20 141
-54 399 -51 515 7 17 8 56 28 88 43 33 16 61 34 64 41 2 6 29 26 59 45 58 35
73 62 55 97 -17 30 -41 40 -112 45 -149 11 -199 20 -294 48 -102 31 -264 109
-351 170 -100 70 -212 236 -221 328 -6 62 -45 147 -103 225 -45 61 -74 81
-134 95 -24 5 -69 18 -98 29 -30 10 -137 29 -243 41 -205 24 -238 34 -291 92
-48 51 -65 109 -71 236 -5 98 -4 112 10 112 9 0 19 -5 22 -10 3 -6 23 -19 43
-29 20 -10 66 -34 102 -53 80 -43 187 -60 340 -54 129 6 212 18 310 45 60 16
80 27 100 53 46 60 86 93 133 110 45 16 50 16 124 -3 48 -13 95 -33 123 -54
50 -36 149 -78 225 -95 111 -25 435 -6 503 29 9 4 34 11 54 15 84 15 230 97
302 170 86 86 193 276 182 321 -8 32 -46 46 -93 33 -21 -5 -43 -14 -49 -19
-20 -17 -187 -67 -265 -80 -174 -30 -432 -11 -526 38 -179 94 -182 96 -220
161 -27 46 -158 153 -218 178 -48 19 -94 19 -190 -1 -133 -27 -183 -42 -338
-94 -132 -46 -152 -50 -190 -41 -100 22 -135 48 -182 135 -15 28 -33 57 -40
65 -19 22 -45 77 -45 93 0 11 26 14 138 13 154 -1 248 16 310 56 20 13 57 32
82 42 40 16 180 116 252 180 36 32 68 86 68 114 0 28 30 89 59 119 50 53 73
58 271 58 l185 0 110 45 c61 24 127 55 147 67 21 13 42 23 47 23 5 0 29 15 53
33 24 18 60 43 80 55 20 13 78 67 128 120 68 72 100 116 126 171 44 92 74 218
73 302 0 35 2 75 5 89 9 36 -5 51 -52 57 -44 6 -51 1 -138 -97 -45 -52 -166
-149 -253 -202 -239 -148 -535 -191 -669 -97 -47 32 -91 44 -212 60 -93 12
-131 6 -173 -30 -17 -15 -57 -43 -87 -61 -30 -19 -71 -51 -91 -70 -19 -19 -51
-49 -70 -66 -18 -17 -60 -59 -92 -93 -70 -74 -156 -121 -222 -121 -55 0 -139
41 -204 99 -51 45 -50 63 6 87 157 67 211 106 306 220 114 138 170 245 193
367 8 44 12 92 9 108 -10 45 5 137 29 171 25 37 124 100 192 123 111 36 217
109 287 197 131 164 218 323 261 475 21 74 24 105 22 198 -3 119 -19 182 -67
277 -16 31 -29 65 -29 75 0 27 -20 43 -52 43 -38 0 -78 -43 -78 -82 0 -17 -6
-42 -14 -56 -8 -15 -26 -58 -42 -97 -72 -184 -201 -360 -337 -463 -122 -92
-283 -147 -362 -124 -16 5 -41 6 -55 1 -14 -4 -52 -15 -85 -24 -100 -30 -172
-72 -186 -110 -2 -5 -30 -57 -61 -115 -31 -58 -74 -157 -96 -220 -63 -183 -77
-208 -145 -269 -37 -33 -112 -44 -216 -29 -60 8 -91 18 -110 34 l-25 22 69 74
c76 82 134 184 160 283 8 32 20 118 27 190 16 182 2 278 -54 372 -55 90 -59
134 -22 208 16 32 57 87 92 122 34 36 62 71 62 79 0 7 11 21 25 30 38 25 95
133 95 181 0 22 8 80 19 129 59 279 20 541 -104 708 -61 82 -205 216 -232 216
-29 0 -61 -27 -68 -58 -3 -15 2 -59 11 -97 19 -80 23 -352 5 -397 -5 -14 -15
-55 -21 -90 -12 -69 -11 -66 -70 -191 -33 -70 -57 -104 -123 -171 -58 -59 -94
-87 -122 -96 -55 -17 -101 -46 -159 -100 -84 -78 -99 -109 -113 -240 -12 -114
-8 -200 17 -355 17 -103 12 -175 -14 -231 -28 -61 -70 -95 -157 -130 -132 -52
-198 -41 -166 28 56 120 74 299 42 418 -9 36 -21 83 -26 106 -9 47 -24 83 -87
209 -52 106 -83 141 -134 157 -50 15 -111 87 -119 142 -8 50 5 182 19 199 17
21 49 187 47 247 -3 66 -29 186 -50 226 -8 16 -15 40 -15 54 0 49 -67 193
-143 308 -100 149 -231 239 -407 278 -123 27 -133 28 -154 5z m239 -131 c33
-16 90 -58 127 -92 65 -61 158 -185 158 -211 0 -7 4 -17 9 -22 17 -17 81 -185
81 -211 0 -14 6 -37 14 -53 25 -48 39 -183 25 -254 -7 -34 -16 -70 -21 -81
-13 -25 -48 -171 -48 -201 0 -46 32 -147 60 -188 30 -45 86 -94 136 -120 34
-18 57 -48 92 -122 64 -136 102 -287 102 -403 0 -76 -30 -201 -64 -266 -14
-27 -26 -55 -26 -62 0 -7 25 -29 55 -50 65 -42 144 -54 235 -35 65 14 200 88
215 117 6 11 18 29 28 38 10 10 28 37 40 60 19 36 21 57 22 171 0 72 -6 174
-14 227 -12 77 -13 115 -4 191 16 135 37 177 114 227 35 22 75 43 89 47 25 6
132 80 139 96 2 5 28 37 59 70 30 34 61 78 70 97 8 19 22 46 31 60 25 37 57
123 83 225 20 78 23 114 23 275 0 168 2 185 18 188 10 2 20 -4 24 -15 3 -10
18 -31 31 -48 33 -40 83 -149 93 -205 17 -87 26 -246 18 -305 -5 -33 -13 -94
-18 -136 -19 -153 -66 -249 -175 -364 -67 -70 -70 -74 -102 -130 -25 -45 -28
-60 -28 -150 -1 -89 2 -106 26 -155 15 -30 36 -63 48 -73 21 -18 22 -24 18
-180 -4 -143 -7 -172 -32 -247 -55 -168 -90 -222 -228 -341 -27 -23 -48 -47
-48 -55 0 -7 14 -23 31 -36 18 -13 50 -41 71 -62 26 -26 55 -42 82 -48 22 -5
59 -13 81 -18 22 -5 72 -9 110 -10 57 0 81 5 132 29 84 40 116 65 152 120 29
46 101 212 101 235 0 40 99 242 140 287 16 19 30 37 30 41 0 4 19 17 42 29 33
17 68 22 177 28 122 7 144 11 211 40 41 18 84 36 95 40 27 11 130 90 195 148
104 93 213 260 264 403 41 114 54 123 81 58 20 -48 25 -230 7 -264 -5 -10 -12
-35 -16 -55 -3 -20 -20 -64 -36 -98 -17 -34 -30 -63 -30 -65 0 -23 -185 -282
-233 -327 -36 -33 -157 -99 -183 -99 -58 0 -264 -162 -264 -208 0 -9 -7 -30
-15 -46 -12 -22 -15 -58 -13 -150 2 -113 0 -124 -23 -166 -74 -134 -115 -193
-183 -266 -63 -68 -91 -90 -168 -130 -58 -30 -113 -51 -146 -55 -88 -12 -118
-61 -67 -109 14 -13 25 -30 25 -37 0 -39 97 -124 210 -184 61 -32 71 -34 160
-34 94 0 96 0 164 42 41 25 117 90 190 162 124 123 147 142 249 200 55 31 64
33 127 29 37 -3 80 -12 96 -20 16 -8 53 -27 82 -42 72 -39 248 -53 382 -31 99
15 248 70 321 116 25 16 49 29 53 29 12 0 77 51 164 128 96 86 119 90 108 16
-16 -119 -147 -303 -277 -390 -38 -25 -72 -50 -75 -56 -4 -6 -31 -21 -61 -34
-30 -14 -71 -36 -91 -50 -54 -36 -164 -66 -241 -65 -328 3 -312 6 -420 -79
-52 -41 -67 -66 -136 -227 -8 -18 -30 -43 -48 -55 -19 -13 -59 -41 -88 -64
-30 -23 -105 -65 -168 -94 l-114 -53 -126 -1 c-69 0 -153 3 -187 8 -60 8 -60
8 -87 -24 -32 -37 -34 -69 -7 -129 11 -24 20 -51 20 -61 0 -25 133 -221 166
-246 16 -11 61 -35 101 -54 66 -30 78 -32 135 -26 57 7 185 43 233 66 112 53
354 95 416 72 35 -14 116 -85 151 -133 43 -60 108 -119 137 -125 14 -4 49 -22
76 -40 31 -21 76 -39 115 -48 36 -8 79 -19 95 -26 20 -8 89 -13 200 -13 177 0
221 6 361 55 113 40 123 7 27 -90 -53 -52 -91 -78 -168 -116 -55 -28 -120 -53
-145 -58 -25 -4 -76 -13 -115 -19 -38 -7 -135 -12 -215 -13 -128 -1 -153 2
-210 22 -36 13 -82 36 -102 53 -58 45 -162 82 -248 86 -102 5 -172 -24 -257
-106 -35 -33 -75 -63 -90 -67 -16 -3 -53 -13 -83 -22 -42 -13 -95 -17 -226
-17 l-171 0 -104 49 c-57 27 -122 66 -144 86 -49 46 -88 57 -121 35 -20 -13
-24 -24 -24 -63 0 -28 -7 -57 -16 -71 -34 -49 -21 -218 27 -334 26 -62 102
-139 164 -166 62 -27 171 -51 233 -51 56 0 187 -22 265 -45 67 -19 135 -55
164 -87 31 -34 63 -99 63 -128 1 -93 90 -259 192 -356 59 -56 178 -144 230
-170 90 -45 181 -84 197 -84 9 0 34 -6 56 -14 22 -7 75 -17 117 -21 156 -14
122 -74 -66 -115 -72 -16 -246 -13 -314 6 -31 9 -74 20 -95 25 -22 5 -56 18
-77 29 -21 11 -67 30 -102 43 -118 45 -220 132 -271 232 -26 51 -109 132 -175
170 -57 33 -69 36 -145 37 -61 1 -91 -3 -116 -17 -57 -29 -90 -35 -144 -24
-85 15 -188 48 -247 77 -191 95 -274 171 -345 316 -32 66 -68 92 -110 82 -13
-3 -26 -15 -30 -26 -3 -11 -25 -43 -49 -72 -72 -89 -126 -232 -126 -334 0 -27
8 -76 17 -109 15 -51 29 -71 88 -130 39 -38 98 -85 130 -103 57 -32 79 -46
170 -109 65 -46 137 -115 167 -162 25 -40 28 -54 28 -123 0 -47 -6 -93 -15
-115 -35 -83 -5 -302 59 -439 48 -100 95 -170 171 -258 59 -68 166 -160 215
-186 34 -17 80 -61 80 -76 0 -23 -82 -27 -156 -9 -98 25 -178 60 -259 113 -70
47 -290 260 -306 297 -5 11 -25 44 -44 74 -24 38 -36 71 -40 110 -10 90 -35
203 -56 250 -50 111 -155 190 -264 198 -33 2 -69 6 -80 8 -23 5 -119 75 -155
114 -14 14 -34 33 -45 41 -11 8 -29 27 -40 41 -11 14 -39 51 -61 81 -84 109
-127 235 -125 361 1 69 -18 112 -54 121 -30 8 -28 9 -125 -62 -188 -138 -260
-245 -260 -389 0 -70 35 -151 123 -287 31 -48 57 -91 57 -95 0 -3 10 -22 23
-41 28 -43 62 -128 77 -196 18 -82 -15 -168 -97 -253 -33 -34 -67 -105 -97
-204 -23 -74 -26 -102 -26 -228 0 -119 4 -162 25 -247 14 -56 34 -120 45 -142
11 -21 20 -44 20 -49 0 -9 18 -40 97 -170 41 -67 25 -78 -55 -37 -72 37 -146
96 -196 158 -76 94 -153 248 -176 353 -5 22 -18 63 -30 90 -19 41 -23 70 -23
165 -1 101 2 120 22 158 12 24 29 83 36 131 18 110 4 192 -44 263 -33 49 -124
128 -147 128 -43 0 -144 219 -171 370 -8 47 -17 98 -20 114 -9 45 27 215 60
285 40 86 45 139 17 169 -18 19 -31 22 -89 22 -148 0 -334 -71 -403 -154 -81
-96 -83 -104 -82 -271 1 -82 7 -188 13 -234 15 -115 -2 -270 -36 -328 -24 -42
-97 -93 -171 -120 -60 -22 -169 -121 -230 -209 -39 -56 -109 -208 -130 -279
-39 -140 -45 -190 -39 -349 3 -87 1 -159 -4 -167 -7 -11 -18 -4 -49 31 -39 45
-48 60 -89 152 -31 72 -54 237 -46 333 9 117 33 250 57 330 22 71 102 195 138
215 22 12 69 75 106 145 22 40 28 67 32 137 4 83 3 90 -28 150 -18 34 -42 75
-53 90 -18 25 -20 38 -14 180 10 290 72 425 276 597 66 57 65 76 -8 113 -30
15 -70 38 -90 52 -40 27 -148 46 -261 46 -59 0 -78 -5 -136 -35 -38 -20 -77
-43 -87 -53 -48 -43 -114 -170 -141 -272 -27 -104 -106 -266 -158 -324 -60
-67 -81 -75 -235 -86 -143 -9 -161 -13 -253 -52 -67 -29 -120 -63 -186 -117
-181 -152 -286 -310 -361 -544 -9 -28 -28 -20 -47 20 -24 49 -24 231 -1 299 8
24 15 50 15 56 0 46 171 330 259 430 40 45 173 128 206 128 39 0 151 66 205
121 79 80 93 122 95 279 1 130 3 135 56 230 48 87 79 130 142 199 94 105 244
191 332 191 80 0 113 60 61 110 -14 12 -28 35 -31 51 -8 37 -114 125 -203 169
-56 28 -81 34 -152 38 -80 4 -89 2 -150 -28 -49 -25 -98 -65 -195 -160 -118
-116 -233 -210 -258 -210 -5 0 -20 -9 -34 -20 -19 -15 -41 -20 -88 -20 -53 0
-75 6 -156 46 -94 46 -117 51 -314 66 -22 2 -211 -34 -228 -44 -10 -5 -47 -19
-80 -30 -34 -11 -78 -30 -97 -42 -19 -13 -57 -35 -84 -51 -26 -15 -85 -60
-130 -99 -97 -87 -125 -104 -137 -85 -14 21 -1 66 48 166 37 77 60 108 133
182 48 49 105 98 127 109 22 11 45 28 53 37 7 9 43 31 79 49 36 18 89 45 117
59 71 37 152 47 314 40 163 -7 198 2 294 75 45 34 65 59 87 106 16 34 29 67
29 75 0 17 41 91 51 91 4 0 45 28 91 63 46 35 99 69 118 77 19 7 62 27 94 43
70 34 209 60 281 52 74 -9 159 -27 169 -37 35 -31 72 38 62 115 -13 92 -173
366 -224 384 -9 3 -48 19 -85 36 -69 31 -69 31 -152 19 -46 -7 -114 -24 -152
-38 -176 -67 -269 -92 -363 -99 -81 -5 -100 -4 -127 12 -41 24 -98 77 -148
138 -56 69 -94 103 -133 116 -18 6 -55 26 -83 45 -27 18 -67 36 -87 39 -20 3
-64 14 -97 23 -94 27 -352 23 -466 -6 -48 -12 -103 -29 -122 -37 -80 -33 -96
-7 -41 65 58 76 231 179 339 202 119 25 233 36 360 34 151 -2 208 -17 279 -71
18 -13 54 -34 82 -46 27 -11 63 -27 81 -35 46 -21 153 -18 213 6 55 22 134 77
157 110 19 26 42 38 127 63 60 18 98 21 251 21 l180 0 100 -48 c59 -29 120
-66 148 -93 37 -34 52 -43 70 -38 30 9 57 42 57 72 0 13 10 43 21 65 19 37 21
54 16 142 -6 138 -34 216 -101 288 -28 30 -69 64 -92 75 -46 24 -166 48 -309
63 -99 11 -122 15 -220 43 -133 37 -199 118 -220 269 -6 50 -35 109 -94 193
-48 70 -76 99 -156 164 -158 129 -319 198 -528 226 -131 17 -136 50 -14 97 55
20 79 23 217 23 166 0 236 -14 358 -70 29 -14 58 -25 64 -25 28 0 162 -77 200
-114 23 -23 61 -72 85 -110 96 -148 209 -226 331 -227 65 -1 80 3 168 35 42
15 88 9 252 -33 47 -13 196 -89 258 -133 51 -36 134 -132 155 -178 66 -146 70
-147 170 -58 59 52 78 77 109 144 63 134 70 239 22 364 -9 23 -80 100 -130
141 -32 26 -162 109 -171 109 -10 0 -68 45 -152 117 -67 58 -119 148 -119 209
0 22 9 78 21 124 15 60 20 100 16 144 -11 110 -25 174 -51 230 -14 30 -26 59
-26 64 0 6 -16 36 -35 68 -19 33 -43 76 -54 96 -28 49 -206 227 -260 258 -24
14 -60 39 -80 57 -34 30 -35 33 -19 49 16 16 25 17 110 5 143 -20 287 -96 408
-213 87 -85 200 -208 200 -218 0 -5 11 -26 25 -46 30 -45 43 -87 55 -184 13
-106 48 -206 95 -266 52 -67 149 -116 247 -125 56 -5 76 -12 124 -45 31 -21
64 -48 73 -59 9 -11 28 -30 43 -41 35 -27 152 -183 178 -237 31 -63 63 -206
56 -248 -9 -55 3 -99 30 -111 20 -9 37 -4 109 33 100 51 187 125 243 208 32
46 42 73 51 131 19 123 -9 204 -136 392 -46 66 -97 171 -123 248 -37 110 -16
192 75 290 39 42 81 118 90 162 4 18 16 59 26 90 23 70 26 266 4 373 -18 95
-40 177 -53 200 -6 11 -27 55 -47 97 -20 43 -41 80 -46 84 -11 7 -49 79 -49
94 0 17 21 12 85 -20z"/>
</g>
</svg>
