<?xml version="1.0" standalone="no"?>
<!DOCTYPE svg PUBLIC "-//W3C//DTD SVG 20010904//EN"
 "http://www.w3.org/TR/2001/REC-SVG-20010904/DTD/svg10.dtd">
<svg version="1.0" xmlns="http://www.w3.org/2000/svg"
 width="300.000000pt" height="300.000000pt" viewBox="0 0 300.000000 300.000000"
 preserveAspectRatio="xMidYMid meet">
<metadata>
Created by potrace 1.10, written by Peter Selinger 2001-2011
</metadata>
<g transform="translate(0.000000,300.000000) scale(0.100000,-0.100000)"
fill="#000000" stroke="none">
<path d="M1473 2544 c-3 -8 -11 -13 -19 -10 -35 13 -42 -58 -9 -94 19 -21 8
-65 -11 -49 -17 14 -18 5 -4 -22 16 -29 26 -23 39 22 10 34 10 44 -3 57 -8 10
-19 29 -25 45 -9 22 -8 27 4 27 8 0 15 -9 15 -19 0 -41 18 -29 22 14 3 47 1
55 -9 29z"/>
<path d="M1499 2510 c-1 -19 -4 -55 -7 -80 -7 -70 -6 -159 1 -166 16 -17 47
30 47 71 0 29 5 45 15 49 17 6 18 4 5 -48 -8 -36 -7 -38 8 -23 9 9 19 40 22
69 4 29 10 62 14 73 8 20 7 20 -8 1 -9 -11 -16 -27 -16 -36 0 -8 -10 -20 -22
-25 -14 -6 -24 -21 -26 -35 -2 -14 -8 -38 -15 -55 l-11 -29 -7 34 c-10 46 -1
88 21 100 10 5 20 7 24 5 3 -3 4 -2 2 1 -3 3 6 17 20 31 26 26 30 38 14 48 -5
3 -12 -6 -16 -20 -6 -24 -30 -45 -52 -45 -18 0 0 40 26 60 22 18 22 25 -2 21
-4 -1 -14 6 -22 16 -12 16 -14 15 -15 -17z"/>
<path d="M1366 2475 c-12 -12 -20 -14 -36 -5 -13 7 -26 7 -37 2 -13 -8 -11
-11 15 -16 18 -5 41 -21 57 -42 15 -20 29 -33 32 -30 3 3 -2 12 -11 21 -18 18
-22 60 -6 70 12 8 24 -40 14 -57 -6 -10 -4 -10 9 1 15 12 15 16 1 42 -17 34
-18 34 -38 14z"/>
<path d="M1620 2440 c0 -14 -3 -34 -6 -45 -4 -16 0 -21 15 -22 11 -1 25 5 32
13 14 17 -2 19 -19 2 -8 -8 -12 -9 -12 -1 0 6 12 21 28 33 22 17 24 20 7 18
-11 -2 -25 3 -32 12 -11 13 -12 11 -13 -10z"/>
<path d="M1283 2423 c14 -25 83 -72 138 -94 36 -14 53 -74 32 -113 l-14 -27
-29 21 c-31 22 -32 25 -32 75 l1 30 -11 -32 c-13 -40 -8 -55 36 -88 40 -31 50
-28 66 19 20 62 0 105 -71 149 -33 20 -67 37 -75 37 -8 0 -14 5 -14 11 0 6 7
8 16 5 9 -3 12 -2 9 5 -4 6 -13 8 -20 5 -7 -2 -16 2 -19 10 -3 8 -10 14 -16
14 -7 0 -5 -10 3 -27z"/>
<path d="M1683 2400 c-6 -32 -28 -50 -62 -50 -11 0 -22 -9 -26 -19 -3 -11 -26
-36 -50 -56 -25 -20 -50 -46 -57 -58 -12 -21 -18 -147 -8 -147 3 0 19 9 37 20
37 22 58 58 69 115 4 22 10 42 14 45 4 3 10 16 14 30 7 24 6 24 -15 -4 -13
-16 -24 -44 -26 -64 -5 -44 -28 -88 -52 -102 -30 -15 -31 -14 -31 39 0 54 25
94 73 120 14 7 29 23 35 36 11 24 59 42 74 27 13 -13 -8 -85 -33 -114 l-20
-23 7 25 c4 14 9 32 11 40 3 8 -4 0 -16 -18 -39 -61 -21 -83 28 -34 19 19 30
43 35 75 4 26 14 53 21 61 12 11 12 15 1 19 -8 3 -11 16 -8 36 6 40 -7 40 -15
1z"/>
<path d="M1156 2413 c-19 -19 7 -83 35 -83 8 0 5 -5 -7 -15 -18 -14 -18 -14 3
-8 15 3 30 -3 48 -22 35 -34 44 -25 15 14 -14 21 -20 42 -18 63 4 34 11 26 22
-23 8 -35 48 -93 68 -97 26 -5 26 30 1 61 -25 31 -29 47 -13 47 6 0 16 -11 22
-25 6 -14 15 -25 20 -25 13 0 9 13 -12 38 -14 17 -25 22 -40 17 -15 -5 -26 0
-42 20 -11 14 -22 24 -25 21 -3 -2 -19 2 -38 9 -18 8 -35 11 -39 8z m52 -46
c8 -16 11 -31 9 -34 -8 -7 -57 43 -57 57 0 22 35 5 48 -23z"/>
<path d="M1842 2413 c-13 -3 -26 -11 -29 -19 -7 -18 -23 -18 -37 1 -9 13 -11
10 -11 -14 0 -41 -18 -40 -26 1 -6 29 -7 30 -8 7 0 -15 -8 -43 -16 -62 -30
-72 -17 -73 45 -5 58 64 120 102 120 74 0 -19 -39 -56 -58 -56 -10 0 -33 -16
-52 -35 -19 -19 -29 -35 -23 -35 6 0 16 7 23 15 7 8 30 20 51 25 22 6 39 15
39 21 0 6 7 17 16 26 16 16 16 55 -1 58 -5 1 -20 0 -33 -2z"/>
<path d="M1845 2301 c10 -17 -38 -41 -82 -41 -38 0 -48 -6 -93 -50 -28 -27
-55 -50 -60 -50 -5 0 -21 -17 -34 -38 -17 -27 -40 -45 -73 -60 -51 -22 -91
-57 -79 -69 4 -4 15 2 24 14 9 11 36 30 59 42 23 11 55 37 70 56 15 20 44 46
65 60 31 21 40 22 66 13 29 -11 29 -12 15 -47 -17 -41 -51 -81 -68 -81 -12 0
-45 -31 -45 -42 0 -4 9 -4 20 -1 28 7 100 79 100 100 0 9 12 37 26 62 15 25
23 43 19 39 -5 -4 -14 -3 -20 2 -9 8 -14 6 -19 -5 -6 -17 -41 -20 -51 -5 -3 5
5 12 19 16 14 3 24 11 23 18 -1 7 18 12 50 14 41 2 56 8 68 25 18 25 19 37 4
37 -5 0 -8 -4 -4 -9z"/>
<path d="M1176 2275 c12 -35 26 -45 59 -45 41 0 97 -23 155 -64 73 -51 74 -57
24 -117 -19 -23 -38 -55 -41 -71 -7 -34 -22 -36 -52 -4 -32 35 -22 84 20 93
18 3 29 12 29 22 0 9 3 27 5 41 4 20 2 19 -10 -7 -8 -18 -25 -38 -37 -44 -30
-16 -38 -28 -38 -61 0 -40 10 -57 41 -73 40 -21 62 -20 54 5 -7 23 14 66 49
99 17 17 26 35 26 56 0 28 -8 37 -57 71 -75 50 -132 76 -159 72 -13 -2 -33 7
-49 22 -23 21 -25 22 -19 5z"/>
<path d="M1838 2243 c-9 -10 -19 -28 -23 -41 -4 -13 -9 -21 -12 -18 -3 3 -19
-15 -36 -40 -16 -25 -27 -47 -25 -49 13 -14 81 65 98 113 10 28 17 52 16 52
-2 0 -10 -8 -18 -17z"/>
<path d="M1873 2243 c4 -6 0 -19 -8 -29 -20 -26 -19 -29 13 -31 23 -1 24 0 7
7 -20 8 -17 11 24 22 9 3 4 10 -14 22 -15 10 -25 14 -22 9z"/>
<path d="M1015 2220 c16 -10 32 -17 35 -14 7 8 -31 34 -49 34 -10 0 -4 -8 14
-20z"/>
<path d="M1142 2209 c14 -40 29 -47 22 -9 -4 19 -2 30 5 30 6 0 12 -10 12 -22
2 -46 16 -88 28 -88 9 0 -9 87 -21 106 -4 6 -19 12 -32 12 -22 0 -23 -3 -14
-29z"/>
<path d="M1111 2208 c-1 -19 10 -40 34 -65 34 -37 45 -63 25 -63 -6 0 -32 24
-59 52 -64 68 -74 60 -12 -9 31 -36 56 -55 79 -59 l32 -7 -16 39 c-9 22 -29
52 -44 67 -16 16 -31 38 -33 50 -4 18 -5 17 -6 -5z"/>
<path d="M976 2193 c13 -52 70 -103 116 -103 20 0 -15 40 -52 61 -23 13 -43
33 -46 46 -4 13 -10 23 -15 23 -5 0 -6 -12 -3 -27z"/>
<path d="M1934 2208 c3 -10 1 -18 -5 -18 -5 0 -20 -9 -32 -20 -12 -11 -30 -19
-42 -18 -12 2 -19 -2 -17 -9 1 -7 -3 -13 -9 -13 -6 0 -25 -12 -43 -27 l-31
-26 33 6 c25 5 32 3 29 -6 -2 -7 -22 -12 -44 -13 -29 0 -51 -9 -73 -27 l-32
-27 32 0 c24 0 30 4 28 18 -2 14 4 17 36 17 46 0 52 -11 33 -58 -23 -53 -93
-90 -185 -98 -65 -5 -76 -9 -108 -40 -29 -28 -36 -31 -44 -19 -26 40 2 82 78
117 32 14 86 29 122 33 l65 7 -72 2 c-39 0 -74 -3 -78 -8 -3 -5 -22 -15 -43
-22 -45 -14 -80 -44 -97 -84 -11 -27 -13 -28 -20 -10 -4 11 -11 29 -16 40 -7
16 -8 14 -4 -10 5 -25 65 -95 81 -95 3 0 20 16 38 35 31 32 38 35 90 35 31 0
73 7 92 15 50 20 114 73 114 93 0 10 9 35 19 57 13 30 15 45 8 57 -14 21 7 48
37 48 38 0 81 47 65 70 -9 12 -10 12 -5 -2z"/>
<path d="M1268 2164 c2 -19 9 -37 14 -40 7 -4 8 6 3 27 -4 19 -4 30 1 26 4 -4
11 -29 14 -55 5 -37 8 -43 15 -27 4 11 15 29 24 39 15 18 15 19 -1 13 -12 -4
-21 0 -28 13 -6 11 -18 24 -28 29 -16 8 -17 5 -14 -25z"/>
<path d="M1245 2155 c2 -22 7 -49 10 -61 5 -15 2 -21 -9 -21 -9 0 -16 9 -16
19 0 10 -4 18 -10 18 -5 0 -10 -5 -10 -11 0 -15 42 -89 50 -89 4 0 11 15 17
34 8 26 8 39 -2 53 -7 10 -17 36 -23 58 l-12 40 5 -40z"/>
<path d="M940 2159 l-25 -7 23 -7 c24 -8 29 -21 10 -27 -7 -3 5 -5 27 -6 32
-1 37 1 22 9 -10 6 -21 18 -25 28 -5 13 -13 15 -32 10z"/>
<path d="M894 2146 c-3 -8 2 -26 11 -40 15 -22 24 -26 69 -26 57 0 218 -51
251 -79 11 -9 29 -27 39 -39 l19 -22 -31 0 c-19 0 -32 5 -32 13 0 7 -14 21
-32 32 l-32 19 34 -42 c36 -43 63 -52 93 -29 15 11 12 16 -21 54 -32 35 -51
46 -132 72 -52 17 -110 31 -130 31 -52 0 -82 11 -76 26 3 8 0 13 -7 11 -7 -1
-11 6 -11 16 2 21 -5 22 -12 3z"/>
<path d="M1960 2147 c-16 -13 -43 -78 -35 -85 2 -2 13 10 23 28 11 17 22 28
24 23 3 -4 3 -2 1 6 -2 8 1 18 8 21 6 4 7 10 2 13 -4 3 -15 0 -23 -6z"/>
<path d="M2006 2133 c-5 -19 -21 -42 -42 -58 -20 -15 -33 -29 -31 -32 7 -6 46
15 80 43 16 13 40 24 55 24 l25 0 -23 -25 c-22 -23 -18 -34 6 -17 34 23 14 70
-26 57 -15 -5 -22 -1 -29 17 -8 22 -9 22 -15 -9z"/>
<path d="M1630 2120 c-11 -11 -20 -31 -20 -44 0 -28 -57 -83 -98 -92 -15 -4
-39 -15 -54 -25 -33 -24 -36 -24 -41 4 -3 17 -5 15 -6 -9 -2 -43 7 -47 43 -19
17 13 51 32 76 43 47 20 100 77 100 108 0 10 7 26 17 36 22 24 8 23 -17 -2z"/>
<path d="M1895 2103 c-10 -59 -15 -70 -24 -55 -5 9 -13 2 -26 -22 -26 -49 -14
-54 26 -11 23 24 36 49 40 76 7 51 -8 62 -16 12z"/>
<path d="M1957 2031 c-22 -13 -29 -13 -36 -3 -6 10 -10 10 -21 -3 -11 -13 -7
-15 29 -15 22 0 41 -4 41 -9 0 -14 -35 -23 -63 -16 -30 8 -58 -6 -117 -58 -25
-22 -61 -46 -80 -54 l-34 -15 33 -14 c72 -30 154 -11 222 53 27 25 49 51 49
57 0 13 39 40 47 32 13 -12 -13 -48 -58 -81 -28 -20 -49 -39 -46 -41 7 -7 45
13 80 42 31 26 112 35 105 12 -8 -23 -66 -50 -84 -40 -12 7 -24 6 -35 -1 -16
-10 -15 -13 12 -29 16 -10 29 -22 29 -28 0 -18 -53 -10 -76 11 l-23 21 -62
-21 c-35 -11 -74 -21 -87 -21 -22 0 -22 -1 -8 -22 28 -40 16 -44 -17 -7 -65
73 -171 97 -222 49 -31 -30 -31 -50 0 -96 14 -20 25 -33 25 -28 0 5 5 2 10 -6
18 -28 11 -77 -15 -108 -14 -17 -25 -39 -25 -50 0 -31 38 -72 68 -72 15 0 38
-9 52 -20 24 -19 44 -20 453 -20 278 0 427 -3 427 -10 0 -7 -170 -10 -491 -10
l-490 0 21 -30 c19 -27 27 -30 72 -30 35 0 48 -4 45 -12 -5 -16 -95 -11 -116
6 -12 10 -41 66 -41 81 0 3 28 6 63 6 34 1 53 3 42 6 -48 10 -106 36 -115 51
-5 9 -10 12 -10 5 0 -6 12 -21 26 -32 l27 -21 -59 0 c-40 0 -54 3 -44 10 8 5
11 12 7 16 -4 4 -15 -1 -26 -10 -13 -12 -32 -16 -62 -14 l-44 3 32 18 c18 9
41 17 52 17 11 0 23 5 27 12 4 7 3 8 -4 4 -8 -5 -12 3 -12 22 0 32 32 70 90
106 23 14 36 30 37 46 1 19 0 20 -3 5 -6 -20 -31 -45 -47 -45 -4 0 -5 5 -2 10
14 22 -16 78 -55 104 -34 23 -71 66 -55 66 12 0 81 -49 102 -71 12 -13 23 -35
26 -49 4 -23 4 -22 6 5 1 31 -13 46 -111 118 -24 17 -38 35 -38 50 0 50 -43
73 -93 52 -20 -8 -67 -15 -109 -15 -126 1 -142 -1 -155 -12 -7 -5 -26 -8 -43
-6 -32 5 -41 -6 -14 -16 25 -9 64 -7 64 4 0 23 19 8 22 -17 4 -41 40 -42 79
-4 25 25 40 32 86 35 31 3 61 10 66 15 15 15 52 14 64 -1 6 -7 16 -35 23 -63
10 -39 24 -61 66 -102 68 -65 71 -93 14 -142 -22 -19 -37 -38 -35 -42 8 -12
-14 -59 -27 -59 -7 0 -24 -9 -38 -20 -24 -19 -44 -20 -430 -20 -244 0 -411 -4
-420 -10 -10 -6 150 -10 460 -10 261 0 481 -4 489 -9 8 -5 11 -16 6 -30 -6
-21 -7 -21 -421 -21 -269 0 -414 3 -414 10 0 7 143 10 410 10 267 0 410 3 410
10 0 7 -164 10 -473 10 -365 0 -476 3 -486 13 -11 10 -13 9 -9 -3 3 -11 22
-16 67 -18 51 -2 64 -6 68 -21 5 -19 56 -36 74 -25 5 3 6 -2 2 -11 -9 -24 14
-35 75 -35 38 0 52 -4 52 -14 0 -8 7 -17 16 -20 21 -8 109 -6 164 3 37 7 25 9
-62 10 -65 0 -108 5 -108 11 0 6 43 10 108 10 162 1 281 6 289 13 3 4 -111 7
-255 7 -175 0 -262 3 -262 10 0 7 88 10 268 10 147 -1 275 2 285 6 13 5 27 -2
49 -25 17 -17 29 -33 27 -35 -12 -9 -92 -36 -108 -36 -10 0 -34 -14 -52 -31
-19 -17 -49 -33 -69 -37 -37 -6 -90 -39 -90 -56 0 -7 3 -8 8 -1 13 18 70 45
95 45 14 0 40 12 58 27 34 29 109 58 178 69 55 8 107 53 122 105 14 45 49 56
49 15 0 -12 10 -38 23 -57 21 -31 26 -33 72 -31 64 4 85 10 85 27 0 24 41 25
74 1 17 -13 39 -22 49 -21 33 6 32 15 -1 15 -18 0 -32 4 -32 10 0 18 103 9
129 -11 13 -11 29 -19 37 -19 7 0 15 -6 17 -12 4 -10 6 -10 6 0 1 17 202 17
219 0 9 -9 12 -9 12 0 0 7 15 12 39 12 48 0 71 8 71 25 0 7 17 15 38 18 20 4
45 16 55 28 13 15 28 20 55 18 58 -3 72 0 72 16 0 32 -38 35 -452 35 -350 1
-416 3 -433 16 -11 8 -36 19 -57 25 -52 13 -60 46 -24 97 39 57 33 98 -23 161
-17 18 -31 37 -31 42 0 17 55 49 85 49 46 0 101 -25 133 -61 15 -16 38 -31 52
-34 34 -5 63 -8 78 -6 16 1 16 33 0 49 -10 10 -10 15 2 23 30 19 59 21 75 5
38 -37 103 -26 92 16 -4 14 4 23 34 36 22 9 42 25 45 35 7 21 -12 47 -33 47
-8 0 -24 10 -36 23 -25 27 -62 44 -51 24 5 -9 4 -9 -6 0 -13 12 -5 37 9 28 5
-2 16 1 25 8 14 11 13 12 -11 13 -16 1 -40 -6 -56 -15z m3 -70 c0 -6 -19 -30
-43 -54 -50 -50 -114 -74 -166 -60 l-33 8 51 35 c28 19 51 40 51 47 0 6 12 16
28 21 35 13 112 15 112 3z m-830 -91 c-12 -23 -56 -47 -66 -37 -18 18 24 54
64 56 10 1 10 -4 2 -19z m722 -87 c24 -22 23 -33 -5 -33 -29 0 -65 35 -45 43
22 9 31 8 50 -10z m538 -403 c0 -6 -140 -10 -399 -10 -256 0 -402 4 -406 10
-4 7 132 10 399 10 264 0 406 -3 406 -10z m-950 -29 c0 -14 -27 -21 -81 -21
-66 0 -63 18 4 23 28 2 58 4 65 5 6 1 12 -2 12 -7z m870 -11 c0 -6 -70 -10
-190 -10 -120 0 -190 4 -190 10 0 6 70 10 190 10 120 0 190 -4 190 -10z"/>
<path d="M960 2013 c0 -8 53 -53 62 -53 5 0 1 11 -8 25 -26 40 -1 29 34 -15
34 -42 87 -64 129 -54 l23 6 -31 37 c-35 40 -43 45 -78 56 -18 5 -10 -5 27
-36 28 -24 51 -48 51 -52 1 -13 -38 12 -80 50 -32 29 -49 36 -84 38 -25 0 -45
0 -45 -2z"/>
<path d="M950 1974 c0 -6 6 -16 13 -23 10 -10 9 -14 -5 -22 -10 -6 -18 -14
-18 -20 0 -5 11 -2 25 7 21 14 31 15 51 5 16 -7 31 -8 42 -2 13 7 7 12 -28 21
-25 7 -53 19 -62 27 -10 9 -18 12 -18 7z"/>
<path d="M2024 1901 c5 -8 56 -3 56 5 0 2 -14 4 -31 4 -16 0 -28 -4 -25 -9z"/>
<path d="M1500 1590 c-19 -11 -28 -19 -20 -20 8 0 29 9 45 20 38 25 21 25 -25
0z"/>
<path d="M1500 1367 c0 -2 7 -23 15 -47 23 -65 69 -116 120 -134 30 -10 66
-35 105 -74 50 -51 66 -61 107 -67 26 -4 65 -16 85 -26 21 -11 38 -15 38 -10
0 13 -81 51 -124 58 -40 6 -64 27 -46 38 6 4 17 -1 24 -11 7 -9 18 -14 25 -10
8 5 4 14 -13 27 -13 11 -34 34 -45 53 -23 37 -108 86 -149 86 -42 0 -72 21
-109 74 -18 26 -33 46 -33 43z m190 -147 c14 -11 32 -20 41 -20 9 0 21 -12 27
-26 7 -14 16 -23 20 -20 6 4 9 -38 3 -52 0 -2 -15 11 -33 28 -42 43 -72 61
-111 69 -19 4 -33 14 -35 24 -5 24 56 22 88 -3z"/>
<path d="M1443 1309 c-31 -32 -53 -44 -99 -54 -118 -27 -139 -34 -154 -53 -21
-25 -53 -42 -82 -42 -13 -1 -36 -12 -53 -25 -38 -31 -31 -31 38 -1 48 22 57
23 73 11 18 -14 18 -14 -4 -15 -33 0 -100 -45 -87 -58 2 -2 17 6 34 17 24 18
112 41 154 41 5 0 30 22 57 48 29 29 65 53 88 60 33 10 44 20 62 58 12 25 20
47 18 49 -2 2 -22 -14 -45 -36z m-112 -100 c-17 -17 -31 -34 -31 -39 0 -11
-57 -30 -91 -30 -32 0 -48 17 -25 26 9 3 14 9 12 13 -6 9 16 25 39 29 11 2 31
10 45 17 14 7 38 13 53 14 l29 1 -31 -31z"/>
<path d="M1589 1287 c8 -11 28 -17 53 -17 23 0 50 -8 66 -20 24 -17 32 -18 75
-8 37 9 53 9 68 0 27 -17 38 -14 15 3 -13 10 -43 15 -84 15 -43 0 -68 5 -78
15 -9 8 -33 15 -54 15 -21 0 -47 3 -57 7 -16 6 -16 5 -4 -10z"/>
<path d="M1990 1280 c0 -12 139 -12 178 0 18 6 -7 9 -75 9 -63 1 -103 -3 -103
-9z"/>
<path d="M1511 1232 c-1 -33 5 -62 15 -78 17 -25 14 -41 -5 -29 -6 3 -11 13
-11 21 0 25 -23 10 -31 -19 -7 -26 5 -40 13 -15 8 22 28 -3 28 -35 0 -59 18
-64 23 -6 2 30 7 75 10 101 4 35 2 50 -10 60 -8 7 -19 21 -23 33 -6 14 -9 5
-9 -33z"/>
<path d="M1463 1220 c-26 -57 -29 -104 -8 -140 8 -14 24 -45 36 -70 12 -25 30
-56 40 -69 19 -24 25 -51 11 -51 -4 0 -13 14 -20 32 -6 17 -13 30 -14 27 -2
-2 -1 -121 2 -264 3 -143 7 -255 9 -250 2 6 3 73 1 150 -3 178 7 295 26 295 7
0 16 -15 20 -34 3 -19 15 -42 25 -52 14 -12 19 -31 19 -65 0 -26 5 -51 10 -54
6 -4 10 14 10 46 0 39 -6 60 -23 83 -13 17 -26 51 -30 74 -3 24 -14 54 -25 65
-11 12 -32 48 -47 80 -15 31 -31 60 -36 63 -15 9 -10 48 11 89 20 39 27 95 13
95 -5 0 -18 -23 -30 -50z"/>
<path d="M1411 1220 c-25 -9 -59 -34 -75 -53 -17 -20 -46 -42 -63 -48 -39 -13
-93 -82 -93 -118 0 -30 -16 -59 -26 -49 -3 4 -2 21 4 37 13 36 8 38 -34 12
-27 -16 -33 -28 -39 -70 -4 -28 -12 -51 -17 -51 -15 0 -3 76 17 106 9 14 32
32 50 40 28 11 90 73 81 81 -1 1 -18 -2 -37 -7 -34 -10 -112 -60 -93 -60 16 0
64 24 64 33 0 4 8 7 18 7 14 -1 13 -4 -7 -20 -13 -11 -29 -20 -36 -20 -18 0
-75 -67 -76 -90 -1 -11 -1 -29 -1 -40 0 -35 2 -40 17 -40 14 0 37 32 33 47 0
4 2 21 7 36 l7 28 23 -21 c29 -27 51 -17 60 28 10 55 42 101 83 117 19 9 51
33 69 55 19 22 41 40 49 40 18 0 18 -3 -5 -48 -22 -42 -46 -67 -78 -76 -12 -4
-33 -28 -47 -53 -35 -61 -33 -64 8 -12 19 24 52 55 72 69 21 14 48 47 63 76
14 28 32 58 40 67 7 10 12 17 10 16 -2 -1 -24 -9 -48 -19z"/>
<path d="M1787 1223 c-18 -4 -17 -6 4 -29 12 -13 34 -24 48 -24 15 0 51 -9 81
-21 30 -12 66 -23 80 -26 24 -5 24 -5 5 10 -11 8 -50 25 -88 37 -54 18 -65 25
-56 36 9 11 8 14 -2 14 -8 0 -23 2 -34 4 -11 2 -28 2 -38 -1z"/>
<path d="M1570 1167 c0 -21 9 -45 23 -62 12 -16 31 -47 42 -69 14 -29 29 -43
50 -49 17 -5 51 -20 78 -33 26 -13 47 -20 47 -15 0 8 -56 54 -70 57 -64 14
-68 17 -106 82 -21 37 -40 74 -41 82 -2 8 0 10 3 4 3 -7 13 -10 23 -7 27 7 77
-41 97 -93 9 -25 25 -49 35 -54 31 -17 34 -11 7 18 -14 15 -33 43 -41 63 -15
37 -60 79 -84 79 -7 0 -25 7 -38 16 -25 16 -25 16 -25 -19z"/>
<path d="M1830 1141 c0 -15 21 -24 61 -27 20 -1 51 -10 69 -19 27 -14 34 -15
44 -3 6 7 7 10 3 7 -5 -4 -38 6 -73 22 -64 29 -104 37 -104 20z"/>
<path d="M1403 1109 c-13 -20 -23 -43 -23 -50 1 -10 4 -9 11 4 15 25 30 21 25
-7 -10 -53 -40 -80 -113 -101 -20 -5 -21 -4 -10 19 7 14 22 31 34 37 21 11 38
38 29 46 -2 2 -13 -1 -25 -8 -23 -15 -74 -103 -64 -113 3 -3 0 -6 -9 -6 -16 0
-61 -48 -66 -71 -2 -8 11 3 28 23 17 20 47 42 68 49 109 35 146 78 140 164
l-3 50 -22 -36z"/>
<path d="M1557 1097 c-9 -24 4 -58 21 -55 9 2 19 -9 24 -27 20 -63 18 -60 27
-46 6 9 16 -1 35 -32 14 -25 26 -50 26 -54 0 -11 47 -46 73 -56 28 -10 19 6
-16 28 -18 12 -42 41 -54 67 -12 26 -31 52 -41 57 -11 6 -27 27 -35 48 -9 21
-25 49 -35 62 -15 19 -20 21 -25 8z"/>
<path d="M1740 1075 c0 -11 97 -105 108 -105 11 0 34 -49 27 -59 -2 -5 3 -17
11 -27 15 -18 15 -18 10 6 -3 14 -6 33 -6 43 0 9 -12 27 -26 40 -15 12 -36 31
-48 42 -47 45 -76 68 -76 60z"/>
<path d="M1440 1035 c0 -11 -9 -31 -20 -45 -11 -14 -20 -41 -20 -62 0 -21 -8
-53 -17 -73 -18 -38 -10 -61 12 -31 8 10 19 15 25 11 6 -4 18 -1 26 6 8 6 17
9 20 7 3 -3 6 -115 8 -249 l3 -244 24 0 c20 0 24 4 22 29 -1 17 -9 34 -18 38
-13 8 -15 47 -15 281 l0 272 -27 -30 c-21 -22 -27 -39 -27 -67 1 -21 -2 -38
-7 -38 -5 0 -9 19 -9 43 0 33 6 49 24 66 33 31 38 57 15 84 -18 21 -18 21 -19
2z m76 -646 c10 -17 -13 -36 -27 -22 -12 12 -4 33 11 33 5 0 12 -5 16 -11z"/>
<path d="M1865 997 c30 -26 42 -47 51 -83 l12 -49 1 51 c1 42 5 53 24 62 21
10 21 11 2 11 -11 1 -29 7 -40 15 -11 7 -36 17 -55 20 l-35 7 40 -34z"/>
<path d="M1700 956 c0 -21 37 -76 57 -85 32 -15 38 -14 23 4 -11 13 -10 18 6
30 14 10 15 14 5 15 -8 0 -22 6 -30 14 -17 15 -61 31 -61 22z"/>
<path d="M1328 892 c-39 -50 -48 -70 -48 -103 0 -24 4 -38 10 -34 6 3 10 26
10 51 0 26 5 44 11 44 7 0 9 -11 6 -30 -4 -16 -2 -54 4 -82 6 -29 12 -59 13
-66 1 -7 7 -17 14 -24 7 -7 6 7 -3 43 -20 73 -19 83 11 149 14 32 24 70 22 86
-3 28 -4 27 -50 -34z"/>
<path d="M1587 926 c-4 -10 8 -26 33 -46 22 -18 40 -39 40 -48 0 -11 -10 -6
-35 18 -43 42 -45 30 -5 -30 24 -36 30 -56 30 -98 0 -36 4 -51 11 -46 9 5 7
85 -3 121 -1 4 3 18 10 30 11 20 8 27 -32 68 -33 35 -45 42 -49 31z"/>
<path d="M1295 916 c-37 -17 -92 -76 -70 -76 11 0 15 -12 15 -44 0 -25 5 -48
10 -51 6 -4 10 12 10 42 0 40 6 56 35 92 46 57 46 57 0 37z"/>
<path d="M1354 786 c-4 -10 -2 -35 5 -55 6 -21 11 -49 12 -62 1 -22 2 -21 9 5
5 16 8 32 6 35 -2 3 -7 24 -10 45 -8 47 -13 55 -22 32z"/>
</g>
</svg>
